G04 EAGLE Gerber RS-274X export*
G75*
%MOMM*%
%FSLAX34Y34*%
%LPD*%
%INTop Copper*%
%IPPOS*%
%AMOC8*
5,1,8,0,0,1.08239X$1,22.5*%
G01*
%ADD10C,0.130000*%
%ADD11C,0.152400*%
%ADD12C,1.308000*%
%ADD13C,1.778000*%
%ADD14P,1.429621X8X292.500000*%
%ADD15P,1.429621X8X112.500000*%
%ADD16P,1.429621X8X22.500000*%
%ADD17R,1.308000X1.308000*%
%ADD18C,1.308000*%
%ADD19R,2.500000X2.500000*%
%ADD20P,1.732040X8X22.500000*%
%ADD21P,2.336880X8X22.500000*%
%ADD22C,1.508000*%
%ADD23R,1.508000X1.508000*%
%ADD24C,0.139500*%
%ADD25C,0.196500*%
%ADD26C,0.304800*%
%ADD27C,0.508000*%
%ADD28C,0.756400*%
%ADD29C,0.406400*%
%ADD30C,0.812800*%


D10*
X1625600Y1003300D02*
X1708600Y1003300D01*
X1708600Y12700D02*
X1625600Y12700D01*
X1689100Y13350D02*
X1689100Y1002650D01*
X1685908Y977300D01*
X1692292Y977300D01*
X1689100Y1002650D01*
X1687800Y977300D01*
X1690400Y977300D02*
X1689100Y1002650D01*
X1686500Y977300D01*
X1691700Y977300D02*
X1689100Y1002650D01*
X1685908Y38700D02*
X1689100Y13350D01*
X1685908Y38700D02*
X1692292Y38700D01*
X1689100Y13350D01*
X1687800Y38700D01*
X1690400Y38700D02*
X1689100Y13350D01*
X1686500Y38700D01*
X1691700Y38700D02*
X1689100Y13350D01*
D11*
X1675368Y480554D02*
X1675368Y485972D01*
X1675368Y480554D02*
X1675366Y480436D01*
X1675360Y480318D01*
X1675351Y480200D01*
X1675337Y480083D01*
X1675320Y479966D01*
X1675299Y479849D01*
X1675274Y479734D01*
X1675245Y479619D01*
X1675212Y479505D01*
X1675176Y479393D01*
X1675136Y479282D01*
X1675093Y479172D01*
X1675046Y479063D01*
X1674996Y478956D01*
X1674941Y478851D01*
X1674884Y478748D01*
X1674823Y478647D01*
X1674759Y478547D01*
X1674692Y478450D01*
X1674622Y478355D01*
X1674548Y478263D01*
X1674472Y478172D01*
X1674392Y478085D01*
X1674310Y478000D01*
X1674225Y477918D01*
X1674138Y477838D01*
X1674047Y477762D01*
X1673955Y477688D01*
X1673860Y477618D01*
X1673763Y477551D01*
X1673663Y477487D01*
X1673562Y477426D01*
X1673459Y477369D01*
X1673354Y477314D01*
X1673247Y477264D01*
X1673138Y477217D01*
X1673028Y477174D01*
X1672917Y477134D01*
X1672805Y477098D01*
X1672691Y477065D01*
X1672576Y477036D01*
X1672461Y477011D01*
X1672344Y476990D01*
X1672227Y476973D01*
X1672110Y476959D01*
X1671992Y476950D01*
X1671874Y476944D01*
X1671756Y476942D01*
X1671756Y476941D02*
X1670853Y476941D01*
X1670720Y476943D01*
X1670588Y476949D01*
X1670456Y476959D01*
X1670324Y476972D01*
X1670192Y476990D01*
X1670062Y477011D01*
X1669931Y477036D01*
X1669802Y477065D01*
X1669674Y477098D01*
X1669546Y477134D01*
X1669420Y477174D01*
X1669295Y477218D01*
X1669171Y477266D01*
X1669049Y477317D01*
X1668928Y477372D01*
X1668809Y477430D01*
X1668691Y477492D01*
X1668576Y477557D01*
X1668462Y477626D01*
X1668351Y477697D01*
X1668242Y477773D01*
X1668135Y477851D01*
X1668030Y477932D01*
X1667928Y478017D01*
X1667828Y478104D01*
X1667731Y478194D01*
X1667636Y478287D01*
X1667545Y478383D01*
X1667456Y478481D01*
X1667370Y478582D01*
X1667287Y478686D01*
X1667207Y478792D01*
X1667131Y478900D01*
X1667057Y479010D01*
X1666987Y479123D01*
X1666920Y479237D01*
X1666857Y479354D01*
X1666797Y479472D01*
X1666740Y479592D01*
X1666687Y479714D01*
X1666638Y479837D01*
X1666592Y479961D01*
X1666550Y480087D01*
X1666512Y480214D01*
X1666477Y480342D01*
X1666446Y480471D01*
X1666419Y480600D01*
X1666396Y480731D01*
X1666376Y480862D01*
X1666361Y480994D01*
X1666349Y481126D01*
X1666341Y481258D01*
X1666337Y481391D01*
X1666337Y481523D01*
X1666341Y481656D01*
X1666349Y481788D01*
X1666361Y481920D01*
X1666376Y482052D01*
X1666396Y482183D01*
X1666419Y482314D01*
X1666446Y482443D01*
X1666477Y482572D01*
X1666512Y482700D01*
X1666550Y482827D01*
X1666592Y482953D01*
X1666638Y483077D01*
X1666687Y483200D01*
X1666740Y483322D01*
X1666797Y483442D01*
X1666857Y483560D01*
X1666920Y483677D01*
X1666987Y483791D01*
X1667057Y483904D01*
X1667131Y484014D01*
X1667207Y484122D01*
X1667287Y484228D01*
X1667370Y484332D01*
X1667456Y484433D01*
X1667545Y484531D01*
X1667636Y484627D01*
X1667731Y484720D01*
X1667828Y484810D01*
X1667928Y484897D01*
X1668030Y484982D01*
X1668135Y485063D01*
X1668242Y485141D01*
X1668351Y485217D01*
X1668462Y485288D01*
X1668576Y485357D01*
X1668691Y485422D01*
X1668809Y485484D01*
X1668928Y485542D01*
X1669049Y485597D01*
X1669171Y485648D01*
X1669295Y485696D01*
X1669420Y485740D01*
X1669546Y485780D01*
X1669674Y485816D01*
X1669802Y485849D01*
X1669931Y485878D01*
X1670062Y485903D01*
X1670192Y485924D01*
X1670324Y485942D01*
X1670456Y485955D01*
X1670588Y485965D01*
X1670720Y485971D01*
X1670853Y485973D01*
X1670853Y485972D02*
X1675368Y485972D01*
X1675368Y485973D02*
X1675543Y485971D01*
X1675717Y485965D01*
X1675891Y485954D01*
X1676065Y485939D01*
X1676239Y485920D01*
X1676412Y485897D01*
X1676584Y485870D01*
X1676756Y485838D01*
X1676927Y485803D01*
X1677097Y485763D01*
X1677266Y485719D01*
X1677434Y485671D01*
X1677601Y485619D01*
X1677766Y485563D01*
X1677930Y485503D01*
X1678093Y485440D01*
X1678253Y485372D01*
X1678413Y485300D01*
X1678570Y485225D01*
X1678726Y485145D01*
X1678879Y485062D01*
X1679031Y484976D01*
X1679180Y484885D01*
X1679327Y484791D01*
X1679472Y484694D01*
X1679615Y484593D01*
X1679755Y484489D01*
X1679892Y484381D01*
X1680027Y484270D01*
X1680159Y484156D01*
X1680288Y484039D01*
X1680415Y483918D01*
X1680538Y483795D01*
X1680659Y483668D01*
X1680776Y483539D01*
X1680890Y483407D01*
X1681001Y483272D01*
X1681109Y483135D01*
X1681213Y482995D01*
X1681314Y482852D01*
X1681411Y482707D01*
X1681505Y482560D01*
X1681596Y482411D01*
X1681682Y482259D01*
X1681765Y482106D01*
X1681845Y481950D01*
X1681920Y481793D01*
X1681992Y481633D01*
X1682060Y481473D01*
X1682123Y481310D01*
X1682183Y481146D01*
X1682239Y480981D01*
X1682291Y480814D01*
X1682339Y480646D01*
X1682383Y480477D01*
X1682423Y480307D01*
X1682458Y480136D01*
X1682490Y479964D01*
X1682517Y479792D01*
X1682540Y479619D01*
X1682559Y479445D01*
X1682574Y479271D01*
X1682585Y479097D01*
X1682591Y478923D01*
X1682593Y478748D01*
X1675368Y496185D02*
X1675368Y501604D01*
X1675368Y496185D02*
X1675366Y496067D01*
X1675360Y495949D01*
X1675351Y495831D01*
X1675337Y495714D01*
X1675320Y495597D01*
X1675299Y495480D01*
X1675274Y495365D01*
X1675245Y495250D01*
X1675212Y495136D01*
X1675176Y495024D01*
X1675136Y494913D01*
X1675093Y494803D01*
X1675046Y494694D01*
X1674996Y494587D01*
X1674941Y494482D01*
X1674884Y494379D01*
X1674823Y494278D01*
X1674759Y494178D01*
X1674692Y494081D01*
X1674622Y493986D01*
X1674548Y493894D01*
X1674472Y493803D01*
X1674392Y493716D01*
X1674310Y493631D01*
X1674225Y493549D01*
X1674138Y493469D01*
X1674047Y493393D01*
X1673955Y493319D01*
X1673860Y493249D01*
X1673763Y493182D01*
X1673663Y493118D01*
X1673562Y493057D01*
X1673459Y493000D01*
X1673354Y492945D01*
X1673247Y492895D01*
X1673138Y492848D01*
X1673028Y492805D01*
X1672917Y492765D01*
X1672805Y492729D01*
X1672691Y492696D01*
X1672576Y492667D01*
X1672461Y492642D01*
X1672344Y492621D01*
X1672227Y492604D01*
X1672110Y492590D01*
X1671992Y492581D01*
X1671874Y492575D01*
X1671756Y492573D01*
X1670853Y492573D01*
X1670853Y492572D02*
X1670720Y492574D01*
X1670588Y492580D01*
X1670456Y492590D01*
X1670324Y492603D01*
X1670192Y492621D01*
X1670062Y492642D01*
X1669931Y492667D01*
X1669802Y492696D01*
X1669674Y492729D01*
X1669546Y492765D01*
X1669420Y492805D01*
X1669295Y492849D01*
X1669171Y492897D01*
X1669049Y492948D01*
X1668928Y493003D01*
X1668809Y493061D01*
X1668691Y493123D01*
X1668576Y493188D01*
X1668462Y493257D01*
X1668351Y493328D01*
X1668242Y493404D01*
X1668135Y493482D01*
X1668030Y493563D01*
X1667928Y493648D01*
X1667828Y493735D01*
X1667731Y493825D01*
X1667636Y493918D01*
X1667545Y494014D01*
X1667456Y494112D01*
X1667370Y494213D01*
X1667287Y494317D01*
X1667207Y494423D01*
X1667131Y494531D01*
X1667057Y494641D01*
X1666987Y494754D01*
X1666920Y494868D01*
X1666857Y494985D01*
X1666797Y495103D01*
X1666740Y495223D01*
X1666687Y495345D01*
X1666638Y495468D01*
X1666592Y495592D01*
X1666550Y495718D01*
X1666512Y495845D01*
X1666477Y495973D01*
X1666446Y496102D01*
X1666419Y496231D01*
X1666396Y496362D01*
X1666376Y496493D01*
X1666361Y496625D01*
X1666349Y496757D01*
X1666341Y496889D01*
X1666337Y497022D01*
X1666337Y497154D01*
X1666341Y497287D01*
X1666349Y497419D01*
X1666361Y497551D01*
X1666376Y497683D01*
X1666396Y497814D01*
X1666419Y497945D01*
X1666446Y498074D01*
X1666477Y498203D01*
X1666512Y498331D01*
X1666550Y498458D01*
X1666592Y498584D01*
X1666638Y498708D01*
X1666687Y498831D01*
X1666740Y498953D01*
X1666797Y499073D01*
X1666857Y499191D01*
X1666920Y499308D01*
X1666987Y499422D01*
X1667057Y499535D01*
X1667131Y499645D01*
X1667207Y499753D01*
X1667287Y499859D01*
X1667370Y499963D01*
X1667456Y500064D01*
X1667545Y500162D01*
X1667636Y500258D01*
X1667731Y500351D01*
X1667828Y500441D01*
X1667928Y500528D01*
X1668030Y500613D01*
X1668135Y500694D01*
X1668242Y500772D01*
X1668351Y500848D01*
X1668462Y500919D01*
X1668576Y500988D01*
X1668691Y501053D01*
X1668809Y501115D01*
X1668928Y501173D01*
X1669049Y501228D01*
X1669171Y501279D01*
X1669295Y501327D01*
X1669420Y501371D01*
X1669546Y501411D01*
X1669674Y501447D01*
X1669802Y501480D01*
X1669931Y501509D01*
X1670062Y501534D01*
X1670192Y501555D01*
X1670324Y501573D01*
X1670456Y501586D01*
X1670588Y501596D01*
X1670720Y501602D01*
X1670853Y501604D01*
X1675368Y501604D01*
X1675543Y501602D01*
X1675717Y501596D01*
X1675891Y501585D01*
X1676065Y501570D01*
X1676239Y501551D01*
X1676412Y501528D01*
X1676584Y501501D01*
X1676756Y501469D01*
X1676927Y501434D01*
X1677097Y501394D01*
X1677266Y501350D01*
X1677434Y501302D01*
X1677601Y501250D01*
X1677766Y501194D01*
X1677930Y501134D01*
X1678093Y501071D01*
X1678253Y501003D01*
X1678413Y500931D01*
X1678570Y500856D01*
X1678726Y500776D01*
X1678879Y500693D01*
X1679031Y500607D01*
X1679180Y500516D01*
X1679327Y500422D01*
X1679472Y500325D01*
X1679615Y500224D01*
X1679755Y500120D01*
X1679892Y500012D01*
X1680027Y499901D01*
X1680159Y499787D01*
X1680288Y499670D01*
X1680415Y499549D01*
X1680538Y499426D01*
X1680659Y499299D01*
X1680776Y499170D01*
X1680890Y499038D01*
X1681001Y498903D01*
X1681109Y498766D01*
X1681213Y498626D01*
X1681314Y498483D01*
X1681411Y498338D01*
X1681505Y498191D01*
X1681596Y498042D01*
X1681682Y497890D01*
X1681765Y497737D01*
X1681845Y497581D01*
X1681920Y497424D01*
X1681992Y497264D01*
X1682060Y497104D01*
X1682123Y496941D01*
X1682183Y496777D01*
X1682239Y496612D01*
X1682291Y496445D01*
X1682339Y496277D01*
X1682383Y496108D01*
X1682423Y495938D01*
X1682458Y495767D01*
X1682490Y495595D01*
X1682517Y495423D01*
X1682540Y495250D01*
X1682559Y495076D01*
X1682574Y494902D01*
X1682585Y494728D01*
X1682591Y494554D01*
X1682593Y494379D01*
X1682593Y507578D02*
X1681690Y507578D01*
X1681690Y508481D01*
X1682593Y508481D01*
X1682593Y507578D01*
X1674465Y514456D02*
X1674145Y514460D01*
X1673826Y514471D01*
X1673506Y514490D01*
X1673188Y514517D01*
X1672870Y514551D01*
X1672553Y514593D01*
X1672237Y514643D01*
X1671922Y514700D01*
X1671609Y514764D01*
X1671297Y514836D01*
X1670987Y514915D01*
X1670680Y515002D01*
X1670374Y515096D01*
X1670071Y515197D01*
X1669770Y515306D01*
X1669472Y515421D01*
X1669176Y515544D01*
X1668884Y515674D01*
X1668595Y515811D01*
X1668594Y515812D02*
X1668486Y515851D01*
X1668379Y515894D01*
X1668274Y515940D01*
X1668171Y515990D01*
X1668069Y516044D01*
X1667969Y516101D01*
X1667871Y516162D01*
X1667775Y516226D01*
X1667682Y516293D01*
X1667591Y516363D01*
X1667502Y516437D01*
X1667416Y516513D01*
X1667333Y516593D01*
X1667252Y516675D01*
X1667174Y516760D01*
X1667100Y516847D01*
X1667028Y516938D01*
X1666959Y517030D01*
X1666894Y517125D01*
X1666832Y517222D01*
X1666773Y517321D01*
X1666718Y517422D01*
X1666667Y517525D01*
X1666619Y517630D01*
X1666574Y517736D01*
X1666533Y517843D01*
X1666496Y517952D01*
X1666463Y518063D01*
X1666434Y518174D01*
X1666408Y518286D01*
X1666386Y518399D01*
X1666369Y518513D01*
X1666355Y518627D01*
X1666345Y518742D01*
X1666339Y518857D01*
X1666337Y518972D01*
X1666339Y519087D01*
X1666345Y519202D01*
X1666355Y519317D01*
X1666369Y519431D01*
X1666386Y519545D01*
X1666408Y519658D01*
X1666434Y519770D01*
X1666463Y519882D01*
X1666496Y519992D01*
X1666533Y520101D01*
X1666574Y520209D01*
X1666619Y520315D01*
X1666667Y520420D01*
X1666718Y520522D01*
X1666774Y520624D01*
X1666832Y520723D01*
X1666894Y520820D01*
X1666960Y520915D01*
X1667028Y521007D01*
X1667100Y521097D01*
X1667174Y521185D01*
X1667252Y521270D01*
X1667333Y521352D01*
X1667416Y521431D01*
X1667502Y521508D01*
X1667591Y521581D01*
X1667682Y521652D01*
X1667776Y521719D01*
X1667871Y521783D01*
X1667969Y521844D01*
X1668069Y521901D01*
X1668171Y521954D01*
X1668275Y522005D01*
X1668380Y522051D01*
X1668487Y522094D01*
X1668595Y522133D01*
X1668595Y522132D02*
X1668884Y522269D01*
X1669176Y522399D01*
X1669472Y522522D01*
X1669770Y522637D01*
X1670071Y522746D01*
X1670374Y522847D01*
X1670680Y522941D01*
X1670987Y523028D01*
X1671297Y523107D01*
X1671609Y523179D01*
X1671922Y523243D01*
X1672237Y523300D01*
X1672553Y523350D01*
X1672870Y523392D01*
X1673188Y523426D01*
X1673506Y523453D01*
X1673826Y523472D01*
X1674145Y523483D01*
X1674465Y523487D01*
X1674465Y514457D02*
X1674785Y514461D01*
X1675104Y514472D01*
X1675424Y514491D01*
X1675742Y514518D01*
X1676060Y514552D01*
X1676377Y514594D01*
X1676693Y514644D01*
X1677008Y514701D01*
X1677321Y514765D01*
X1677633Y514837D01*
X1677943Y514916D01*
X1678250Y515003D01*
X1678556Y515097D01*
X1678859Y515198D01*
X1679160Y515307D01*
X1679458Y515422D01*
X1679754Y515545D01*
X1680046Y515675D01*
X1680335Y515812D01*
X1680336Y515811D02*
X1680444Y515850D01*
X1680551Y515893D01*
X1680656Y515939D01*
X1680760Y515990D01*
X1680862Y516043D01*
X1680962Y516100D01*
X1681060Y516161D01*
X1681155Y516225D01*
X1681249Y516292D01*
X1681340Y516363D01*
X1681429Y516436D01*
X1681515Y516513D01*
X1681598Y516592D01*
X1681679Y516674D01*
X1681757Y516759D01*
X1681831Y516847D01*
X1681903Y516937D01*
X1681972Y517030D01*
X1682037Y517124D01*
X1682099Y517221D01*
X1682157Y517321D01*
X1682213Y517422D01*
X1682264Y517524D01*
X1682312Y517629D01*
X1682357Y517735D01*
X1682398Y517843D01*
X1682435Y517952D01*
X1682468Y518062D01*
X1682497Y518174D01*
X1682523Y518286D01*
X1682545Y518399D01*
X1682562Y518513D01*
X1682576Y518627D01*
X1682586Y518742D01*
X1682592Y518857D01*
X1682594Y518972D01*
X1680335Y522132D02*
X1680046Y522269D01*
X1679754Y522399D01*
X1679458Y522522D01*
X1679160Y522637D01*
X1678859Y522746D01*
X1678556Y522847D01*
X1678250Y522941D01*
X1677943Y523028D01*
X1677633Y523107D01*
X1677321Y523179D01*
X1677008Y523243D01*
X1676693Y523300D01*
X1676377Y523350D01*
X1676060Y523392D01*
X1675742Y523426D01*
X1675424Y523453D01*
X1675104Y523472D01*
X1674785Y523483D01*
X1674465Y523487D01*
X1680335Y522133D02*
X1680443Y522094D01*
X1680550Y522051D01*
X1680655Y522005D01*
X1680759Y521954D01*
X1680861Y521901D01*
X1680961Y521844D01*
X1681059Y521783D01*
X1681154Y521719D01*
X1681248Y521652D01*
X1681339Y521581D01*
X1681428Y521508D01*
X1681514Y521431D01*
X1681597Y521352D01*
X1681678Y521270D01*
X1681756Y521185D01*
X1681830Y521097D01*
X1681902Y521007D01*
X1681971Y520914D01*
X1682036Y520820D01*
X1682098Y520723D01*
X1682156Y520623D01*
X1682212Y520522D01*
X1682263Y520419D01*
X1682311Y520315D01*
X1682356Y520209D01*
X1682397Y520101D01*
X1682434Y519992D01*
X1682467Y519882D01*
X1682496Y519770D01*
X1682522Y519658D01*
X1682544Y519545D01*
X1682561Y519431D01*
X1682575Y519317D01*
X1682585Y519202D01*
X1682591Y519087D01*
X1682593Y518972D01*
X1678981Y515359D02*
X1669949Y522584D01*
X1673562Y530087D02*
X1673562Y535506D01*
X1673564Y535624D01*
X1673570Y535742D01*
X1673579Y535860D01*
X1673593Y535977D01*
X1673610Y536094D01*
X1673631Y536211D01*
X1673656Y536326D01*
X1673685Y536441D01*
X1673718Y536555D01*
X1673754Y536667D01*
X1673794Y536778D01*
X1673837Y536888D01*
X1673884Y536997D01*
X1673934Y537104D01*
X1673989Y537209D01*
X1674046Y537312D01*
X1674107Y537413D01*
X1674171Y537513D01*
X1674238Y537610D01*
X1674308Y537705D01*
X1674382Y537797D01*
X1674458Y537888D01*
X1674538Y537975D01*
X1674620Y538060D01*
X1674705Y538142D01*
X1674792Y538222D01*
X1674883Y538298D01*
X1674975Y538372D01*
X1675070Y538442D01*
X1675167Y538509D01*
X1675267Y538573D01*
X1675368Y538634D01*
X1675471Y538691D01*
X1675576Y538746D01*
X1675683Y538796D01*
X1675792Y538843D01*
X1675902Y538886D01*
X1676013Y538926D01*
X1676125Y538962D01*
X1676239Y538995D01*
X1676354Y539024D01*
X1676469Y539049D01*
X1676586Y539070D01*
X1676703Y539087D01*
X1676820Y539101D01*
X1676938Y539110D01*
X1677056Y539116D01*
X1677174Y539118D01*
X1677174Y539119D02*
X1678077Y539119D01*
X1678210Y539117D01*
X1678342Y539111D01*
X1678474Y539101D01*
X1678606Y539088D01*
X1678738Y539070D01*
X1678868Y539049D01*
X1678999Y539024D01*
X1679128Y538995D01*
X1679256Y538962D01*
X1679384Y538926D01*
X1679510Y538886D01*
X1679635Y538842D01*
X1679759Y538794D01*
X1679881Y538743D01*
X1680002Y538688D01*
X1680121Y538630D01*
X1680239Y538568D01*
X1680354Y538503D01*
X1680468Y538434D01*
X1680579Y538363D01*
X1680688Y538287D01*
X1680795Y538209D01*
X1680900Y538128D01*
X1681002Y538043D01*
X1681102Y537956D01*
X1681199Y537866D01*
X1681294Y537773D01*
X1681385Y537677D01*
X1681474Y537579D01*
X1681560Y537478D01*
X1681643Y537374D01*
X1681723Y537268D01*
X1681799Y537160D01*
X1681873Y537050D01*
X1681943Y536937D01*
X1682010Y536823D01*
X1682073Y536706D01*
X1682133Y536588D01*
X1682190Y536468D01*
X1682243Y536346D01*
X1682292Y536223D01*
X1682338Y536099D01*
X1682380Y535973D01*
X1682418Y535846D01*
X1682453Y535718D01*
X1682484Y535589D01*
X1682511Y535460D01*
X1682534Y535329D01*
X1682554Y535198D01*
X1682569Y535066D01*
X1682581Y534934D01*
X1682589Y534802D01*
X1682593Y534669D01*
X1682593Y534537D01*
X1682589Y534404D01*
X1682581Y534272D01*
X1682569Y534140D01*
X1682554Y534008D01*
X1682534Y533877D01*
X1682511Y533746D01*
X1682484Y533617D01*
X1682453Y533488D01*
X1682418Y533360D01*
X1682380Y533233D01*
X1682338Y533107D01*
X1682292Y532983D01*
X1682243Y532860D01*
X1682190Y532738D01*
X1682133Y532618D01*
X1682073Y532500D01*
X1682010Y532383D01*
X1681943Y532269D01*
X1681873Y532156D01*
X1681799Y532046D01*
X1681723Y531938D01*
X1681643Y531832D01*
X1681560Y531728D01*
X1681474Y531627D01*
X1681385Y531529D01*
X1681294Y531433D01*
X1681199Y531340D01*
X1681102Y531250D01*
X1681002Y531163D01*
X1680900Y531078D01*
X1680795Y530997D01*
X1680688Y530919D01*
X1680579Y530843D01*
X1680468Y530772D01*
X1680354Y530703D01*
X1680239Y530638D01*
X1680121Y530576D01*
X1680002Y530518D01*
X1679881Y530463D01*
X1679759Y530412D01*
X1679635Y530364D01*
X1679510Y530320D01*
X1679384Y530280D01*
X1679256Y530244D01*
X1679128Y530211D01*
X1678999Y530182D01*
X1678868Y530157D01*
X1678738Y530136D01*
X1678606Y530118D01*
X1678474Y530105D01*
X1678342Y530095D01*
X1678210Y530089D01*
X1678077Y530087D01*
X1673562Y530087D01*
X1673385Y530089D01*
X1673207Y530096D01*
X1673030Y530107D01*
X1672854Y530122D01*
X1672678Y530141D01*
X1672502Y530165D01*
X1672327Y530193D01*
X1672152Y530226D01*
X1671979Y530263D01*
X1671806Y530304D01*
X1671635Y530349D01*
X1671465Y530398D01*
X1671296Y530452D01*
X1671128Y530509D01*
X1670962Y530571D01*
X1670797Y530637D01*
X1670634Y530707D01*
X1670473Y530781D01*
X1670314Y530858D01*
X1670156Y530940D01*
X1670001Y531026D01*
X1669848Y531115D01*
X1669697Y531208D01*
X1669548Y531305D01*
X1669402Y531405D01*
X1669258Y531509D01*
X1669117Y531616D01*
X1668979Y531727D01*
X1668843Y531841D01*
X1668710Y531959D01*
X1668580Y532079D01*
X1668453Y532203D01*
X1668329Y532330D01*
X1668209Y532460D01*
X1668091Y532593D01*
X1667977Y532728D01*
X1667866Y532867D01*
X1667759Y533008D01*
X1667655Y533152D01*
X1667555Y533298D01*
X1667458Y533447D01*
X1667365Y533598D01*
X1667276Y533751D01*
X1667190Y533906D01*
X1667108Y534064D01*
X1667031Y534223D01*
X1666957Y534384D01*
X1666887Y534547D01*
X1666821Y534712D01*
X1666759Y534878D01*
X1666702Y535046D01*
X1666648Y535215D01*
X1666599Y535385D01*
X1666554Y535556D01*
X1666513Y535729D01*
X1666476Y535902D01*
X1666443Y536077D01*
X1666415Y536252D01*
X1666391Y536428D01*
X1666372Y536604D01*
X1666357Y536780D01*
X1666346Y536957D01*
X1666339Y537135D01*
X1666337Y537312D01*
D10*
X0Y-12700D02*
X-57600Y-12700D01*
X-57600Y965200D02*
X0Y965200D01*
X-38100Y964550D02*
X-38100Y-12050D01*
X-41292Y13300D01*
X-34908Y13300D01*
X-38100Y-12050D01*
X-39400Y13300D01*
X-36800Y13300D02*
X-38100Y-12050D01*
X-40700Y13300D01*
X-35500Y13300D02*
X-38100Y-12050D01*
X-41292Y939200D02*
X-38100Y964550D01*
X-41292Y939200D02*
X-34908Y939200D01*
X-38100Y964550D01*
X-39400Y939200D01*
X-36800Y939200D02*
X-38100Y964550D01*
X-40700Y939200D01*
X-35500Y939200D02*
X-38100Y964550D01*
D11*
X-51832Y454222D02*
X-51832Y448804D01*
X-51834Y448686D01*
X-51840Y448568D01*
X-51849Y448450D01*
X-51863Y448333D01*
X-51880Y448216D01*
X-51901Y448099D01*
X-51926Y447984D01*
X-51955Y447869D01*
X-51988Y447755D01*
X-52024Y447643D01*
X-52064Y447532D01*
X-52107Y447422D01*
X-52154Y447313D01*
X-52204Y447206D01*
X-52259Y447101D01*
X-52316Y446998D01*
X-52377Y446897D01*
X-52441Y446797D01*
X-52508Y446700D01*
X-52578Y446605D01*
X-52652Y446513D01*
X-52728Y446422D01*
X-52808Y446335D01*
X-52890Y446250D01*
X-52975Y446168D01*
X-53062Y446088D01*
X-53153Y446012D01*
X-53245Y445938D01*
X-53340Y445868D01*
X-53437Y445801D01*
X-53537Y445737D01*
X-53638Y445676D01*
X-53741Y445619D01*
X-53846Y445564D01*
X-53953Y445514D01*
X-54062Y445467D01*
X-54172Y445424D01*
X-54283Y445384D01*
X-54395Y445348D01*
X-54509Y445315D01*
X-54624Y445286D01*
X-54739Y445261D01*
X-54856Y445240D01*
X-54973Y445223D01*
X-55090Y445209D01*
X-55208Y445200D01*
X-55326Y445194D01*
X-55444Y445192D01*
X-55444Y445191D02*
X-56347Y445191D01*
X-56480Y445193D01*
X-56612Y445199D01*
X-56744Y445209D01*
X-56876Y445222D01*
X-57008Y445240D01*
X-57138Y445261D01*
X-57269Y445286D01*
X-57398Y445315D01*
X-57526Y445348D01*
X-57654Y445384D01*
X-57780Y445424D01*
X-57905Y445468D01*
X-58029Y445516D01*
X-58151Y445567D01*
X-58272Y445622D01*
X-58391Y445680D01*
X-58509Y445742D01*
X-58624Y445807D01*
X-58738Y445876D01*
X-58849Y445947D01*
X-58958Y446023D01*
X-59065Y446101D01*
X-59170Y446182D01*
X-59272Y446267D01*
X-59372Y446354D01*
X-59469Y446444D01*
X-59564Y446537D01*
X-59655Y446633D01*
X-59744Y446731D01*
X-59830Y446832D01*
X-59913Y446936D01*
X-59993Y447042D01*
X-60069Y447150D01*
X-60143Y447260D01*
X-60213Y447373D01*
X-60280Y447487D01*
X-60343Y447604D01*
X-60403Y447722D01*
X-60460Y447842D01*
X-60513Y447964D01*
X-60562Y448087D01*
X-60608Y448211D01*
X-60650Y448337D01*
X-60688Y448464D01*
X-60723Y448592D01*
X-60754Y448721D01*
X-60781Y448850D01*
X-60804Y448981D01*
X-60824Y449112D01*
X-60839Y449244D01*
X-60851Y449376D01*
X-60859Y449508D01*
X-60863Y449641D01*
X-60863Y449773D01*
X-60859Y449906D01*
X-60851Y450038D01*
X-60839Y450170D01*
X-60824Y450302D01*
X-60804Y450433D01*
X-60781Y450564D01*
X-60754Y450693D01*
X-60723Y450822D01*
X-60688Y450950D01*
X-60650Y451077D01*
X-60608Y451203D01*
X-60562Y451327D01*
X-60513Y451450D01*
X-60460Y451572D01*
X-60403Y451692D01*
X-60343Y451810D01*
X-60280Y451927D01*
X-60213Y452041D01*
X-60143Y452154D01*
X-60069Y452264D01*
X-59993Y452372D01*
X-59913Y452478D01*
X-59830Y452582D01*
X-59744Y452683D01*
X-59655Y452781D01*
X-59564Y452877D01*
X-59469Y452970D01*
X-59372Y453060D01*
X-59272Y453147D01*
X-59170Y453232D01*
X-59065Y453313D01*
X-58958Y453391D01*
X-58849Y453467D01*
X-58738Y453538D01*
X-58624Y453607D01*
X-58509Y453672D01*
X-58391Y453734D01*
X-58272Y453792D01*
X-58151Y453847D01*
X-58029Y453898D01*
X-57905Y453946D01*
X-57780Y453990D01*
X-57654Y454030D01*
X-57526Y454066D01*
X-57398Y454099D01*
X-57269Y454128D01*
X-57138Y454153D01*
X-57008Y454174D01*
X-56876Y454192D01*
X-56744Y454205D01*
X-56612Y454215D01*
X-56480Y454221D01*
X-56347Y454223D01*
X-56347Y454222D02*
X-51832Y454222D01*
X-51832Y454223D02*
X-51657Y454221D01*
X-51483Y454215D01*
X-51309Y454204D01*
X-51135Y454189D01*
X-50961Y454170D01*
X-50788Y454147D01*
X-50616Y454120D01*
X-50444Y454088D01*
X-50273Y454053D01*
X-50103Y454013D01*
X-49934Y453969D01*
X-49766Y453921D01*
X-49599Y453869D01*
X-49434Y453813D01*
X-49270Y453753D01*
X-49107Y453690D01*
X-48947Y453622D01*
X-48787Y453550D01*
X-48630Y453475D01*
X-48474Y453395D01*
X-48321Y453312D01*
X-48169Y453226D01*
X-48020Y453135D01*
X-47873Y453041D01*
X-47728Y452944D01*
X-47585Y452843D01*
X-47445Y452739D01*
X-47308Y452631D01*
X-47173Y452520D01*
X-47041Y452406D01*
X-46912Y452289D01*
X-46785Y452168D01*
X-46662Y452045D01*
X-46541Y451918D01*
X-46424Y451789D01*
X-46310Y451657D01*
X-46199Y451522D01*
X-46091Y451385D01*
X-45987Y451245D01*
X-45886Y451102D01*
X-45789Y450957D01*
X-45695Y450810D01*
X-45604Y450661D01*
X-45518Y450509D01*
X-45435Y450356D01*
X-45355Y450200D01*
X-45280Y450043D01*
X-45208Y449883D01*
X-45140Y449723D01*
X-45077Y449560D01*
X-45017Y449396D01*
X-44961Y449231D01*
X-44909Y449064D01*
X-44861Y448896D01*
X-44817Y448727D01*
X-44777Y448557D01*
X-44742Y448386D01*
X-44710Y448214D01*
X-44683Y448042D01*
X-44660Y447869D01*
X-44641Y447695D01*
X-44626Y447521D01*
X-44615Y447347D01*
X-44609Y447173D01*
X-44607Y446998D01*
X-59057Y460823D02*
X-60863Y460823D01*
X-60863Y469854D01*
X-44607Y465338D01*
X-44607Y475828D02*
X-45510Y475828D01*
X-45510Y476731D01*
X-44607Y476731D01*
X-44607Y475828D01*
X-59057Y482706D02*
X-60863Y482706D01*
X-60863Y491737D01*
X-44607Y487222D01*
X-51832Y501950D02*
X-51832Y507369D01*
X-51832Y501950D02*
X-51834Y501832D01*
X-51840Y501714D01*
X-51849Y501596D01*
X-51863Y501479D01*
X-51880Y501362D01*
X-51901Y501245D01*
X-51926Y501130D01*
X-51955Y501015D01*
X-51988Y500901D01*
X-52024Y500789D01*
X-52064Y500678D01*
X-52107Y500568D01*
X-52154Y500459D01*
X-52204Y500352D01*
X-52259Y500247D01*
X-52316Y500144D01*
X-52377Y500043D01*
X-52441Y499943D01*
X-52508Y499846D01*
X-52578Y499751D01*
X-52652Y499659D01*
X-52728Y499568D01*
X-52808Y499481D01*
X-52890Y499396D01*
X-52975Y499314D01*
X-53062Y499234D01*
X-53153Y499158D01*
X-53245Y499084D01*
X-53340Y499014D01*
X-53437Y498947D01*
X-53537Y498883D01*
X-53638Y498822D01*
X-53741Y498765D01*
X-53846Y498710D01*
X-53953Y498660D01*
X-54062Y498613D01*
X-54172Y498570D01*
X-54283Y498530D01*
X-54395Y498494D01*
X-54509Y498461D01*
X-54624Y498432D01*
X-54739Y498407D01*
X-54856Y498386D01*
X-54973Y498369D01*
X-55090Y498355D01*
X-55208Y498346D01*
X-55326Y498340D01*
X-55444Y498338D01*
X-55444Y498337D02*
X-56347Y498337D01*
X-56480Y498339D01*
X-56612Y498345D01*
X-56744Y498355D01*
X-56876Y498368D01*
X-57008Y498386D01*
X-57138Y498407D01*
X-57269Y498432D01*
X-57398Y498461D01*
X-57526Y498494D01*
X-57654Y498530D01*
X-57780Y498570D01*
X-57905Y498614D01*
X-58029Y498662D01*
X-58151Y498713D01*
X-58272Y498768D01*
X-58391Y498826D01*
X-58509Y498888D01*
X-58624Y498953D01*
X-58738Y499022D01*
X-58849Y499093D01*
X-58958Y499169D01*
X-59065Y499247D01*
X-59170Y499328D01*
X-59272Y499413D01*
X-59372Y499500D01*
X-59469Y499590D01*
X-59564Y499683D01*
X-59655Y499779D01*
X-59744Y499877D01*
X-59830Y499978D01*
X-59913Y500082D01*
X-59993Y500188D01*
X-60069Y500296D01*
X-60143Y500406D01*
X-60213Y500519D01*
X-60280Y500633D01*
X-60343Y500750D01*
X-60403Y500868D01*
X-60460Y500988D01*
X-60513Y501110D01*
X-60562Y501233D01*
X-60608Y501357D01*
X-60650Y501483D01*
X-60688Y501610D01*
X-60723Y501738D01*
X-60754Y501867D01*
X-60781Y501996D01*
X-60804Y502127D01*
X-60824Y502258D01*
X-60839Y502390D01*
X-60851Y502522D01*
X-60859Y502654D01*
X-60863Y502787D01*
X-60863Y502919D01*
X-60859Y503052D01*
X-60851Y503184D01*
X-60839Y503316D01*
X-60824Y503448D01*
X-60804Y503579D01*
X-60781Y503710D01*
X-60754Y503839D01*
X-60723Y503968D01*
X-60688Y504096D01*
X-60650Y504223D01*
X-60608Y504349D01*
X-60562Y504473D01*
X-60513Y504596D01*
X-60460Y504718D01*
X-60403Y504838D01*
X-60343Y504956D01*
X-60280Y505073D01*
X-60213Y505187D01*
X-60143Y505300D01*
X-60069Y505410D01*
X-59993Y505518D01*
X-59913Y505624D01*
X-59830Y505728D01*
X-59744Y505829D01*
X-59655Y505927D01*
X-59564Y506023D01*
X-59469Y506116D01*
X-59372Y506206D01*
X-59272Y506293D01*
X-59170Y506378D01*
X-59065Y506459D01*
X-58958Y506537D01*
X-58849Y506613D01*
X-58738Y506684D01*
X-58624Y506753D01*
X-58509Y506818D01*
X-58391Y506880D01*
X-58272Y506938D01*
X-58151Y506993D01*
X-58029Y507044D01*
X-57905Y507092D01*
X-57780Y507136D01*
X-57654Y507176D01*
X-57526Y507212D01*
X-57398Y507245D01*
X-57269Y507274D01*
X-57138Y507299D01*
X-57008Y507320D01*
X-56876Y507338D01*
X-56744Y507351D01*
X-56612Y507361D01*
X-56480Y507367D01*
X-56347Y507369D01*
X-51832Y507369D01*
X-51657Y507367D01*
X-51483Y507361D01*
X-51309Y507350D01*
X-51135Y507335D01*
X-50961Y507316D01*
X-50788Y507293D01*
X-50616Y507266D01*
X-50444Y507234D01*
X-50273Y507199D01*
X-50103Y507159D01*
X-49934Y507115D01*
X-49766Y507067D01*
X-49599Y507015D01*
X-49434Y506959D01*
X-49270Y506899D01*
X-49107Y506836D01*
X-48947Y506768D01*
X-48787Y506696D01*
X-48630Y506621D01*
X-48474Y506541D01*
X-48321Y506458D01*
X-48169Y506372D01*
X-48020Y506281D01*
X-47873Y506187D01*
X-47728Y506090D01*
X-47585Y505989D01*
X-47445Y505885D01*
X-47308Y505777D01*
X-47173Y505666D01*
X-47041Y505552D01*
X-46912Y505435D01*
X-46785Y505314D01*
X-46662Y505191D01*
X-46541Y505064D01*
X-46424Y504935D01*
X-46310Y504803D01*
X-46199Y504668D01*
X-46091Y504531D01*
X-45987Y504391D01*
X-45886Y504248D01*
X-45789Y504103D01*
X-45695Y503956D01*
X-45604Y503807D01*
X-45518Y503655D01*
X-45435Y503502D01*
X-45355Y503346D01*
X-45280Y503189D01*
X-45208Y503029D01*
X-45140Y502869D01*
X-45077Y502706D01*
X-45017Y502542D01*
X-44961Y502377D01*
X-44909Y502210D01*
X-44861Y502042D01*
X-44817Y501873D01*
X-44777Y501703D01*
X-44742Y501532D01*
X-44710Y501360D01*
X-44683Y501188D01*
X-44660Y501015D01*
X-44641Y500841D01*
X-44626Y500667D01*
X-44615Y500493D01*
X-44609Y500319D01*
X-44607Y500144D01*
D10*
X0Y-12700D02*
X0Y-57600D01*
X977900Y-57600D02*
X977900Y-12700D01*
X977250Y-38100D02*
X650Y-38100D01*
X26000Y-34908D01*
X26000Y-41292D01*
X650Y-38100D01*
X26000Y-36800D01*
X26000Y-39400D02*
X650Y-38100D01*
X26000Y-35500D01*
X26000Y-40700D02*
X650Y-38100D01*
X951900Y-34908D02*
X977250Y-38100D01*
X951900Y-34908D02*
X951900Y-41292D01*
X977250Y-38100D01*
X951900Y-36800D01*
X951900Y-39400D02*
X977250Y-38100D01*
X951900Y-35500D01*
X951900Y-40700D02*
X977250Y-38100D01*
D11*
X466922Y-24368D02*
X461504Y-24368D01*
X461386Y-24366D01*
X461268Y-24360D01*
X461150Y-24351D01*
X461033Y-24337D01*
X460916Y-24320D01*
X460799Y-24299D01*
X460684Y-24274D01*
X460569Y-24245D01*
X460455Y-24212D01*
X460343Y-24176D01*
X460232Y-24136D01*
X460122Y-24093D01*
X460013Y-24046D01*
X459906Y-23996D01*
X459801Y-23941D01*
X459698Y-23884D01*
X459597Y-23823D01*
X459497Y-23759D01*
X459400Y-23692D01*
X459305Y-23622D01*
X459213Y-23548D01*
X459122Y-23472D01*
X459035Y-23392D01*
X458950Y-23310D01*
X458868Y-23225D01*
X458788Y-23138D01*
X458712Y-23047D01*
X458638Y-22955D01*
X458568Y-22860D01*
X458501Y-22763D01*
X458437Y-22663D01*
X458376Y-22562D01*
X458319Y-22459D01*
X458264Y-22354D01*
X458214Y-22247D01*
X458167Y-22138D01*
X458124Y-22028D01*
X458084Y-21917D01*
X458048Y-21805D01*
X458015Y-21691D01*
X457986Y-21576D01*
X457961Y-21461D01*
X457940Y-21344D01*
X457923Y-21227D01*
X457909Y-21110D01*
X457900Y-20992D01*
X457894Y-20874D01*
X457892Y-20756D01*
X457891Y-20756D02*
X457891Y-19853D01*
X457893Y-19720D01*
X457899Y-19588D01*
X457909Y-19456D01*
X457922Y-19324D01*
X457940Y-19192D01*
X457961Y-19062D01*
X457986Y-18931D01*
X458015Y-18802D01*
X458048Y-18674D01*
X458084Y-18546D01*
X458124Y-18420D01*
X458168Y-18295D01*
X458216Y-18171D01*
X458267Y-18049D01*
X458322Y-17928D01*
X458380Y-17809D01*
X458442Y-17691D01*
X458507Y-17576D01*
X458576Y-17462D01*
X458647Y-17351D01*
X458723Y-17242D01*
X458801Y-17135D01*
X458882Y-17030D01*
X458967Y-16928D01*
X459054Y-16828D01*
X459144Y-16731D01*
X459237Y-16636D01*
X459333Y-16545D01*
X459431Y-16456D01*
X459532Y-16370D01*
X459636Y-16287D01*
X459742Y-16207D01*
X459850Y-16131D01*
X459960Y-16057D01*
X460073Y-15987D01*
X460187Y-15920D01*
X460304Y-15857D01*
X460422Y-15797D01*
X460542Y-15740D01*
X460664Y-15687D01*
X460787Y-15638D01*
X460911Y-15592D01*
X461037Y-15550D01*
X461164Y-15512D01*
X461292Y-15477D01*
X461421Y-15446D01*
X461550Y-15419D01*
X461681Y-15396D01*
X461812Y-15376D01*
X461944Y-15361D01*
X462076Y-15349D01*
X462208Y-15341D01*
X462341Y-15337D01*
X462473Y-15337D01*
X462606Y-15341D01*
X462738Y-15349D01*
X462870Y-15361D01*
X463002Y-15376D01*
X463133Y-15396D01*
X463264Y-15419D01*
X463393Y-15446D01*
X463522Y-15477D01*
X463650Y-15512D01*
X463777Y-15550D01*
X463903Y-15592D01*
X464027Y-15638D01*
X464150Y-15687D01*
X464272Y-15740D01*
X464392Y-15797D01*
X464510Y-15857D01*
X464627Y-15920D01*
X464741Y-15987D01*
X464854Y-16057D01*
X464964Y-16131D01*
X465072Y-16207D01*
X465178Y-16287D01*
X465282Y-16370D01*
X465383Y-16456D01*
X465481Y-16545D01*
X465577Y-16636D01*
X465670Y-16731D01*
X465760Y-16828D01*
X465847Y-16928D01*
X465932Y-17030D01*
X466013Y-17135D01*
X466091Y-17242D01*
X466167Y-17351D01*
X466238Y-17462D01*
X466307Y-17576D01*
X466372Y-17691D01*
X466434Y-17809D01*
X466492Y-17928D01*
X466547Y-18049D01*
X466598Y-18171D01*
X466646Y-18295D01*
X466690Y-18420D01*
X466730Y-18546D01*
X466766Y-18674D01*
X466799Y-18802D01*
X466828Y-18931D01*
X466853Y-19062D01*
X466874Y-19192D01*
X466892Y-19324D01*
X466905Y-19456D01*
X466915Y-19588D01*
X466921Y-19720D01*
X466923Y-19853D01*
X466922Y-19853D02*
X466922Y-24368D01*
X466923Y-24368D02*
X466921Y-24543D01*
X466915Y-24717D01*
X466904Y-24891D01*
X466889Y-25065D01*
X466870Y-25239D01*
X466847Y-25412D01*
X466820Y-25584D01*
X466788Y-25756D01*
X466753Y-25927D01*
X466713Y-26097D01*
X466669Y-26266D01*
X466621Y-26434D01*
X466569Y-26601D01*
X466513Y-26766D01*
X466453Y-26930D01*
X466390Y-27093D01*
X466322Y-27253D01*
X466250Y-27413D01*
X466175Y-27570D01*
X466095Y-27726D01*
X466012Y-27879D01*
X465926Y-28031D01*
X465835Y-28180D01*
X465741Y-28327D01*
X465644Y-28472D01*
X465543Y-28615D01*
X465439Y-28755D01*
X465331Y-28892D01*
X465220Y-29027D01*
X465106Y-29159D01*
X464989Y-29288D01*
X464868Y-29415D01*
X464745Y-29538D01*
X464618Y-29659D01*
X464489Y-29776D01*
X464357Y-29890D01*
X464222Y-30001D01*
X464085Y-30109D01*
X463945Y-30213D01*
X463802Y-30314D01*
X463657Y-30411D01*
X463510Y-30505D01*
X463361Y-30596D01*
X463209Y-30682D01*
X463056Y-30765D01*
X462900Y-30845D01*
X462743Y-30920D01*
X462583Y-30992D01*
X462423Y-31060D01*
X462260Y-31123D01*
X462096Y-31183D01*
X461931Y-31239D01*
X461764Y-31291D01*
X461596Y-31339D01*
X461427Y-31383D01*
X461257Y-31423D01*
X461086Y-31458D01*
X460914Y-31490D01*
X460742Y-31517D01*
X460569Y-31540D01*
X460395Y-31559D01*
X460221Y-31574D01*
X460047Y-31585D01*
X459873Y-31591D01*
X459698Y-31593D01*
X473523Y-17143D02*
X473523Y-15337D01*
X482554Y-15337D01*
X478038Y-31593D01*
X488528Y-31593D02*
X488528Y-30690D01*
X489431Y-30690D01*
X489431Y-31593D01*
X488528Y-31593D01*
X495406Y-17143D02*
X495406Y-15337D01*
X504437Y-15337D01*
X499922Y-31593D01*
X514650Y-24368D02*
X520069Y-24368D01*
X514650Y-24368D02*
X514532Y-24366D01*
X514414Y-24360D01*
X514296Y-24351D01*
X514179Y-24337D01*
X514062Y-24320D01*
X513945Y-24299D01*
X513830Y-24274D01*
X513715Y-24245D01*
X513601Y-24212D01*
X513489Y-24176D01*
X513378Y-24136D01*
X513268Y-24093D01*
X513159Y-24046D01*
X513052Y-23996D01*
X512947Y-23941D01*
X512844Y-23884D01*
X512743Y-23823D01*
X512643Y-23759D01*
X512546Y-23692D01*
X512451Y-23622D01*
X512359Y-23548D01*
X512268Y-23472D01*
X512181Y-23392D01*
X512096Y-23310D01*
X512014Y-23225D01*
X511934Y-23138D01*
X511858Y-23047D01*
X511784Y-22955D01*
X511714Y-22860D01*
X511647Y-22763D01*
X511583Y-22663D01*
X511522Y-22562D01*
X511465Y-22459D01*
X511410Y-22354D01*
X511360Y-22247D01*
X511313Y-22138D01*
X511270Y-22028D01*
X511230Y-21917D01*
X511194Y-21805D01*
X511161Y-21691D01*
X511132Y-21576D01*
X511107Y-21461D01*
X511086Y-21344D01*
X511069Y-21227D01*
X511055Y-21110D01*
X511046Y-20992D01*
X511040Y-20874D01*
X511038Y-20756D01*
X511037Y-20756D02*
X511037Y-19853D01*
X511039Y-19720D01*
X511045Y-19588D01*
X511055Y-19456D01*
X511068Y-19324D01*
X511086Y-19192D01*
X511107Y-19062D01*
X511132Y-18931D01*
X511161Y-18802D01*
X511194Y-18674D01*
X511230Y-18546D01*
X511270Y-18420D01*
X511314Y-18295D01*
X511362Y-18171D01*
X511413Y-18049D01*
X511468Y-17928D01*
X511526Y-17809D01*
X511588Y-17691D01*
X511653Y-17576D01*
X511722Y-17462D01*
X511793Y-17351D01*
X511869Y-17242D01*
X511947Y-17135D01*
X512028Y-17030D01*
X512113Y-16928D01*
X512200Y-16828D01*
X512290Y-16731D01*
X512383Y-16636D01*
X512479Y-16545D01*
X512577Y-16456D01*
X512678Y-16370D01*
X512782Y-16287D01*
X512888Y-16207D01*
X512996Y-16131D01*
X513106Y-16057D01*
X513219Y-15987D01*
X513333Y-15920D01*
X513450Y-15857D01*
X513568Y-15797D01*
X513688Y-15740D01*
X513810Y-15687D01*
X513933Y-15638D01*
X514057Y-15592D01*
X514183Y-15550D01*
X514310Y-15512D01*
X514438Y-15477D01*
X514567Y-15446D01*
X514696Y-15419D01*
X514827Y-15396D01*
X514958Y-15376D01*
X515090Y-15361D01*
X515222Y-15349D01*
X515354Y-15341D01*
X515487Y-15337D01*
X515619Y-15337D01*
X515752Y-15341D01*
X515884Y-15349D01*
X516016Y-15361D01*
X516148Y-15376D01*
X516279Y-15396D01*
X516410Y-15419D01*
X516539Y-15446D01*
X516668Y-15477D01*
X516796Y-15512D01*
X516923Y-15550D01*
X517049Y-15592D01*
X517173Y-15638D01*
X517296Y-15687D01*
X517418Y-15740D01*
X517538Y-15797D01*
X517656Y-15857D01*
X517773Y-15920D01*
X517887Y-15987D01*
X518000Y-16057D01*
X518110Y-16131D01*
X518218Y-16207D01*
X518324Y-16287D01*
X518428Y-16370D01*
X518529Y-16456D01*
X518627Y-16545D01*
X518723Y-16636D01*
X518816Y-16731D01*
X518906Y-16828D01*
X518993Y-16928D01*
X519078Y-17030D01*
X519159Y-17135D01*
X519237Y-17242D01*
X519313Y-17351D01*
X519384Y-17462D01*
X519453Y-17576D01*
X519518Y-17691D01*
X519580Y-17809D01*
X519638Y-17928D01*
X519693Y-18049D01*
X519744Y-18171D01*
X519792Y-18295D01*
X519836Y-18420D01*
X519876Y-18546D01*
X519912Y-18674D01*
X519945Y-18802D01*
X519974Y-18931D01*
X519999Y-19062D01*
X520020Y-19192D01*
X520038Y-19324D01*
X520051Y-19456D01*
X520061Y-19588D01*
X520067Y-19720D01*
X520069Y-19853D01*
X520069Y-24368D01*
X520067Y-24543D01*
X520061Y-24717D01*
X520050Y-24891D01*
X520035Y-25065D01*
X520016Y-25239D01*
X519993Y-25412D01*
X519966Y-25584D01*
X519934Y-25756D01*
X519899Y-25927D01*
X519859Y-26097D01*
X519815Y-26266D01*
X519767Y-26434D01*
X519715Y-26601D01*
X519659Y-26766D01*
X519599Y-26930D01*
X519536Y-27093D01*
X519468Y-27253D01*
X519396Y-27413D01*
X519321Y-27570D01*
X519241Y-27726D01*
X519158Y-27879D01*
X519072Y-28031D01*
X518981Y-28180D01*
X518887Y-28327D01*
X518790Y-28472D01*
X518689Y-28615D01*
X518585Y-28755D01*
X518477Y-28892D01*
X518366Y-29027D01*
X518252Y-29159D01*
X518135Y-29288D01*
X518014Y-29415D01*
X517891Y-29538D01*
X517764Y-29659D01*
X517635Y-29776D01*
X517503Y-29890D01*
X517368Y-30001D01*
X517231Y-30109D01*
X517091Y-30213D01*
X516948Y-30314D01*
X516803Y-30411D01*
X516656Y-30505D01*
X516507Y-30596D01*
X516355Y-30682D01*
X516202Y-30765D01*
X516046Y-30845D01*
X515889Y-30920D01*
X515729Y-30992D01*
X515569Y-31060D01*
X515406Y-31123D01*
X515242Y-31183D01*
X515077Y-31239D01*
X514910Y-31291D01*
X514742Y-31339D01*
X514573Y-31383D01*
X514403Y-31423D01*
X514232Y-31458D01*
X514060Y-31490D01*
X513888Y-31517D01*
X513715Y-31540D01*
X513541Y-31559D01*
X513367Y-31574D01*
X513193Y-31585D01*
X513019Y-31591D01*
X512844Y-31593D01*
D10*
X0Y-12700D02*
X0Y-95700D01*
X495300Y-95700D02*
X495300Y-12700D01*
X494650Y-76200D02*
X650Y-76200D01*
X26000Y-73008D01*
X26000Y-79392D01*
X650Y-76200D01*
X26000Y-74900D01*
X26000Y-77500D02*
X650Y-76200D01*
X26000Y-73600D01*
X26000Y-78800D02*
X650Y-76200D01*
X469300Y-73008D02*
X494650Y-76200D01*
X469300Y-73008D02*
X469300Y-79392D01*
X494650Y-76200D01*
X469300Y-74900D01*
X469300Y-77500D02*
X494650Y-76200D01*
X469300Y-73600D01*
X469300Y-78800D02*
X494650Y-76200D01*
D11*
X220204Y-53437D02*
X216591Y-66081D01*
X225622Y-66081D01*
X222913Y-62468D02*
X222913Y-69693D01*
X235835Y-62468D02*
X241254Y-62468D01*
X235835Y-62468D02*
X235717Y-62466D01*
X235599Y-62460D01*
X235481Y-62451D01*
X235364Y-62437D01*
X235247Y-62420D01*
X235130Y-62399D01*
X235015Y-62374D01*
X234900Y-62345D01*
X234786Y-62312D01*
X234674Y-62276D01*
X234563Y-62236D01*
X234453Y-62193D01*
X234344Y-62146D01*
X234237Y-62096D01*
X234132Y-62041D01*
X234029Y-61984D01*
X233928Y-61923D01*
X233828Y-61859D01*
X233731Y-61792D01*
X233636Y-61722D01*
X233544Y-61648D01*
X233453Y-61572D01*
X233366Y-61492D01*
X233281Y-61410D01*
X233199Y-61325D01*
X233119Y-61238D01*
X233043Y-61147D01*
X232969Y-61055D01*
X232899Y-60960D01*
X232832Y-60863D01*
X232768Y-60763D01*
X232707Y-60662D01*
X232650Y-60559D01*
X232595Y-60454D01*
X232545Y-60347D01*
X232498Y-60238D01*
X232455Y-60128D01*
X232415Y-60017D01*
X232379Y-59905D01*
X232346Y-59791D01*
X232317Y-59676D01*
X232292Y-59561D01*
X232271Y-59444D01*
X232254Y-59327D01*
X232240Y-59210D01*
X232231Y-59092D01*
X232225Y-58974D01*
X232223Y-58856D01*
X232223Y-57953D01*
X232222Y-57953D02*
X232224Y-57820D01*
X232230Y-57688D01*
X232240Y-57556D01*
X232253Y-57424D01*
X232271Y-57292D01*
X232292Y-57162D01*
X232317Y-57031D01*
X232346Y-56902D01*
X232379Y-56774D01*
X232415Y-56646D01*
X232455Y-56520D01*
X232499Y-56395D01*
X232547Y-56271D01*
X232598Y-56149D01*
X232653Y-56028D01*
X232711Y-55909D01*
X232773Y-55791D01*
X232838Y-55676D01*
X232907Y-55562D01*
X232978Y-55451D01*
X233054Y-55342D01*
X233132Y-55235D01*
X233213Y-55130D01*
X233298Y-55028D01*
X233385Y-54928D01*
X233475Y-54831D01*
X233568Y-54736D01*
X233664Y-54645D01*
X233762Y-54556D01*
X233863Y-54470D01*
X233967Y-54387D01*
X234073Y-54307D01*
X234181Y-54231D01*
X234291Y-54157D01*
X234404Y-54087D01*
X234518Y-54020D01*
X234635Y-53957D01*
X234753Y-53897D01*
X234873Y-53840D01*
X234995Y-53787D01*
X235118Y-53738D01*
X235242Y-53692D01*
X235368Y-53650D01*
X235495Y-53612D01*
X235623Y-53577D01*
X235752Y-53546D01*
X235881Y-53519D01*
X236012Y-53496D01*
X236143Y-53476D01*
X236275Y-53461D01*
X236407Y-53449D01*
X236539Y-53441D01*
X236672Y-53437D01*
X236804Y-53437D01*
X236937Y-53441D01*
X237069Y-53449D01*
X237201Y-53461D01*
X237333Y-53476D01*
X237464Y-53496D01*
X237595Y-53519D01*
X237724Y-53546D01*
X237853Y-53577D01*
X237981Y-53612D01*
X238108Y-53650D01*
X238234Y-53692D01*
X238358Y-53738D01*
X238481Y-53787D01*
X238603Y-53840D01*
X238723Y-53897D01*
X238841Y-53957D01*
X238958Y-54020D01*
X239072Y-54087D01*
X239185Y-54157D01*
X239295Y-54231D01*
X239403Y-54307D01*
X239509Y-54387D01*
X239613Y-54470D01*
X239714Y-54556D01*
X239812Y-54645D01*
X239908Y-54736D01*
X240001Y-54831D01*
X240091Y-54928D01*
X240178Y-55028D01*
X240263Y-55130D01*
X240344Y-55235D01*
X240422Y-55342D01*
X240498Y-55451D01*
X240569Y-55562D01*
X240638Y-55676D01*
X240703Y-55791D01*
X240765Y-55909D01*
X240823Y-56028D01*
X240878Y-56149D01*
X240929Y-56271D01*
X240977Y-56395D01*
X241021Y-56520D01*
X241061Y-56646D01*
X241097Y-56774D01*
X241130Y-56902D01*
X241159Y-57031D01*
X241184Y-57162D01*
X241205Y-57292D01*
X241223Y-57424D01*
X241236Y-57556D01*
X241246Y-57688D01*
X241252Y-57820D01*
X241254Y-57953D01*
X241254Y-62468D01*
X241252Y-62643D01*
X241246Y-62817D01*
X241235Y-62991D01*
X241220Y-63165D01*
X241201Y-63339D01*
X241178Y-63512D01*
X241151Y-63684D01*
X241119Y-63856D01*
X241084Y-64027D01*
X241044Y-64197D01*
X241000Y-64366D01*
X240952Y-64534D01*
X240900Y-64701D01*
X240844Y-64866D01*
X240784Y-65030D01*
X240721Y-65193D01*
X240653Y-65353D01*
X240581Y-65513D01*
X240506Y-65670D01*
X240426Y-65826D01*
X240343Y-65979D01*
X240257Y-66131D01*
X240166Y-66280D01*
X240072Y-66427D01*
X239975Y-66572D01*
X239874Y-66715D01*
X239770Y-66855D01*
X239662Y-66992D01*
X239551Y-67127D01*
X239437Y-67259D01*
X239320Y-67388D01*
X239199Y-67515D01*
X239076Y-67638D01*
X238949Y-67759D01*
X238820Y-67876D01*
X238688Y-67990D01*
X238553Y-68101D01*
X238416Y-68209D01*
X238276Y-68313D01*
X238133Y-68414D01*
X237988Y-68511D01*
X237841Y-68605D01*
X237692Y-68696D01*
X237540Y-68782D01*
X237387Y-68865D01*
X237231Y-68945D01*
X237074Y-69020D01*
X236914Y-69092D01*
X236754Y-69160D01*
X236591Y-69223D01*
X236427Y-69283D01*
X236262Y-69339D01*
X236095Y-69391D01*
X235927Y-69439D01*
X235758Y-69483D01*
X235588Y-69523D01*
X235417Y-69558D01*
X235245Y-69590D01*
X235073Y-69617D01*
X234900Y-69640D01*
X234726Y-69659D01*
X234552Y-69674D01*
X234378Y-69685D01*
X234204Y-69691D01*
X234029Y-69693D01*
X247228Y-69693D02*
X247228Y-68790D01*
X248131Y-68790D01*
X248131Y-69693D01*
X247228Y-69693D01*
X254106Y-69693D02*
X259525Y-69693D01*
X259643Y-69691D01*
X259761Y-69685D01*
X259879Y-69676D01*
X259996Y-69662D01*
X260113Y-69645D01*
X260230Y-69624D01*
X260345Y-69599D01*
X260460Y-69570D01*
X260574Y-69537D01*
X260686Y-69501D01*
X260797Y-69461D01*
X260907Y-69418D01*
X261016Y-69371D01*
X261123Y-69321D01*
X261228Y-69266D01*
X261331Y-69209D01*
X261432Y-69148D01*
X261532Y-69084D01*
X261629Y-69017D01*
X261724Y-68947D01*
X261816Y-68873D01*
X261907Y-68797D01*
X261994Y-68717D01*
X262079Y-68635D01*
X262161Y-68550D01*
X262241Y-68463D01*
X262317Y-68372D01*
X262391Y-68280D01*
X262461Y-68185D01*
X262528Y-68088D01*
X262592Y-67988D01*
X262653Y-67887D01*
X262710Y-67784D01*
X262765Y-67679D01*
X262815Y-67572D01*
X262862Y-67463D01*
X262905Y-67353D01*
X262945Y-67242D01*
X262981Y-67130D01*
X263014Y-67016D01*
X263043Y-66901D01*
X263068Y-66786D01*
X263089Y-66669D01*
X263106Y-66552D01*
X263120Y-66435D01*
X263129Y-66317D01*
X263135Y-66199D01*
X263137Y-66081D01*
X263137Y-64274D01*
X263135Y-64156D01*
X263129Y-64038D01*
X263120Y-63920D01*
X263106Y-63803D01*
X263089Y-63686D01*
X263068Y-63569D01*
X263043Y-63454D01*
X263014Y-63339D01*
X262981Y-63225D01*
X262945Y-63113D01*
X262905Y-63002D01*
X262862Y-62892D01*
X262815Y-62783D01*
X262765Y-62676D01*
X262710Y-62571D01*
X262653Y-62468D01*
X262592Y-62367D01*
X262528Y-62267D01*
X262461Y-62170D01*
X262391Y-62075D01*
X262317Y-61983D01*
X262241Y-61892D01*
X262161Y-61805D01*
X262079Y-61720D01*
X261994Y-61638D01*
X261907Y-61558D01*
X261816Y-61482D01*
X261724Y-61408D01*
X261629Y-61338D01*
X261532Y-61271D01*
X261432Y-61207D01*
X261331Y-61146D01*
X261228Y-61089D01*
X261123Y-61034D01*
X261016Y-60984D01*
X260907Y-60937D01*
X260797Y-60894D01*
X260686Y-60854D01*
X260574Y-60818D01*
X260460Y-60785D01*
X260345Y-60756D01*
X260230Y-60731D01*
X260113Y-60710D01*
X259996Y-60693D01*
X259879Y-60679D01*
X259761Y-60670D01*
X259643Y-60664D01*
X259525Y-60662D01*
X254106Y-60662D01*
X254106Y-53437D01*
X263137Y-53437D01*
X269737Y-69693D02*
X274253Y-69693D01*
X274386Y-69691D01*
X274518Y-69685D01*
X274650Y-69675D01*
X274782Y-69662D01*
X274914Y-69644D01*
X275044Y-69623D01*
X275175Y-69598D01*
X275304Y-69569D01*
X275432Y-69536D01*
X275560Y-69500D01*
X275686Y-69460D01*
X275811Y-69416D01*
X275935Y-69368D01*
X276057Y-69317D01*
X276178Y-69262D01*
X276297Y-69204D01*
X276415Y-69142D01*
X276530Y-69077D01*
X276644Y-69008D01*
X276755Y-68937D01*
X276864Y-68861D01*
X276971Y-68783D01*
X277076Y-68702D01*
X277178Y-68617D01*
X277278Y-68530D01*
X277375Y-68440D01*
X277470Y-68347D01*
X277561Y-68251D01*
X277650Y-68153D01*
X277736Y-68052D01*
X277819Y-67948D01*
X277899Y-67842D01*
X277975Y-67734D01*
X278049Y-67624D01*
X278119Y-67511D01*
X278186Y-67397D01*
X278249Y-67280D01*
X278309Y-67162D01*
X278366Y-67042D01*
X278419Y-66920D01*
X278468Y-66797D01*
X278514Y-66673D01*
X278556Y-66547D01*
X278594Y-66420D01*
X278629Y-66292D01*
X278660Y-66163D01*
X278687Y-66034D01*
X278710Y-65903D01*
X278730Y-65772D01*
X278745Y-65640D01*
X278757Y-65508D01*
X278765Y-65376D01*
X278769Y-65243D01*
X278769Y-65111D01*
X278765Y-64978D01*
X278757Y-64846D01*
X278745Y-64714D01*
X278730Y-64582D01*
X278710Y-64451D01*
X278687Y-64320D01*
X278660Y-64191D01*
X278629Y-64062D01*
X278594Y-63934D01*
X278556Y-63807D01*
X278514Y-63681D01*
X278468Y-63557D01*
X278419Y-63434D01*
X278366Y-63312D01*
X278309Y-63192D01*
X278249Y-63074D01*
X278186Y-62957D01*
X278119Y-62843D01*
X278049Y-62730D01*
X277975Y-62620D01*
X277899Y-62512D01*
X277819Y-62406D01*
X277736Y-62302D01*
X277650Y-62201D01*
X277561Y-62103D01*
X277470Y-62007D01*
X277375Y-61914D01*
X277278Y-61824D01*
X277178Y-61737D01*
X277076Y-61652D01*
X276971Y-61571D01*
X276864Y-61493D01*
X276755Y-61417D01*
X276644Y-61346D01*
X276530Y-61277D01*
X276415Y-61212D01*
X276297Y-61150D01*
X276178Y-61092D01*
X276057Y-61037D01*
X275935Y-60986D01*
X275811Y-60938D01*
X275686Y-60894D01*
X275560Y-60854D01*
X275432Y-60818D01*
X275304Y-60785D01*
X275175Y-60756D01*
X275044Y-60731D01*
X274914Y-60710D01*
X274782Y-60692D01*
X274650Y-60679D01*
X274518Y-60669D01*
X274386Y-60663D01*
X274253Y-60661D01*
X275156Y-53437D02*
X269737Y-53437D01*
X275156Y-53437D02*
X275275Y-53439D01*
X275395Y-53445D01*
X275514Y-53455D01*
X275632Y-53469D01*
X275751Y-53486D01*
X275868Y-53508D01*
X275985Y-53533D01*
X276100Y-53563D01*
X276215Y-53596D01*
X276329Y-53633D01*
X276441Y-53673D01*
X276552Y-53718D01*
X276661Y-53766D01*
X276769Y-53817D01*
X276875Y-53872D01*
X276979Y-53931D01*
X277081Y-53993D01*
X277181Y-54058D01*
X277279Y-54127D01*
X277375Y-54199D01*
X277468Y-54274D01*
X277558Y-54351D01*
X277646Y-54432D01*
X277731Y-54516D01*
X277813Y-54603D01*
X277893Y-54692D01*
X277969Y-54784D01*
X278043Y-54878D01*
X278113Y-54975D01*
X278180Y-55073D01*
X278244Y-55174D01*
X278304Y-55278D01*
X278361Y-55383D01*
X278414Y-55490D01*
X278464Y-55598D01*
X278510Y-55708D01*
X278552Y-55820D01*
X278591Y-55933D01*
X278626Y-56047D01*
X278657Y-56162D01*
X278685Y-56279D01*
X278708Y-56396D01*
X278728Y-56513D01*
X278744Y-56632D01*
X278756Y-56751D01*
X278764Y-56870D01*
X278768Y-56989D01*
X278768Y-57109D01*
X278764Y-57228D01*
X278756Y-57347D01*
X278744Y-57466D01*
X278728Y-57585D01*
X278708Y-57702D01*
X278685Y-57819D01*
X278657Y-57936D01*
X278626Y-58051D01*
X278591Y-58165D01*
X278552Y-58278D01*
X278510Y-58390D01*
X278464Y-58500D01*
X278414Y-58608D01*
X278361Y-58715D01*
X278304Y-58820D01*
X278244Y-58924D01*
X278180Y-59025D01*
X278113Y-59123D01*
X278043Y-59220D01*
X277969Y-59314D01*
X277893Y-59406D01*
X277813Y-59495D01*
X277731Y-59582D01*
X277646Y-59666D01*
X277558Y-59747D01*
X277468Y-59824D01*
X277375Y-59899D01*
X277279Y-59971D01*
X277181Y-60040D01*
X277081Y-60105D01*
X276979Y-60167D01*
X276875Y-60226D01*
X276769Y-60281D01*
X276661Y-60332D01*
X276552Y-60380D01*
X276441Y-60425D01*
X276329Y-60465D01*
X276215Y-60502D01*
X276100Y-60535D01*
X275985Y-60565D01*
X275868Y-60590D01*
X275751Y-60612D01*
X275632Y-60629D01*
X275514Y-60643D01*
X275395Y-60653D01*
X275275Y-60659D01*
X275156Y-60661D01*
X275156Y-60662D02*
X271544Y-60662D01*
D10*
X0Y-12700D02*
X-32200Y-12700D01*
X-32200Y469900D02*
X0Y469900D01*
X-12700Y469250D02*
X-12700Y-12050D01*
X-15892Y13300D01*
X-9508Y13300D01*
X-12700Y-12050D01*
X-14000Y13300D01*
X-11400Y13300D02*
X-12700Y-12050D01*
X-15300Y13300D01*
X-10100Y13300D02*
X-12700Y-12050D01*
X-15892Y443900D02*
X-12700Y469250D01*
X-15892Y443900D02*
X-9508Y443900D01*
X-12700Y469250D01*
X-14000Y443900D01*
X-11400Y443900D02*
X-12700Y469250D01*
X-15300Y443900D01*
X-10100Y443900D02*
X-12700Y469250D01*
D11*
X-35463Y201154D02*
X-22819Y197541D01*
X-22819Y206572D01*
X-26432Y203863D02*
X-19207Y203863D01*
X-23723Y213172D02*
X-23856Y213174D01*
X-23988Y213180D01*
X-24120Y213190D01*
X-24252Y213203D01*
X-24384Y213221D01*
X-24514Y213242D01*
X-24645Y213267D01*
X-24774Y213296D01*
X-24902Y213329D01*
X-25030Y213365D01*
X-25156Y213405D01*
X-25281Y213449D01*
X-25405Y213497D01*
X-25527Y213548D01*
X-25648Y213603D01*
X-25767Y213661D01*
X-25885Y213723D01*
X-26000Y213788D01*
X-26114Y213857D01*
X-26225Y213928D01*
X-26334Y214004D01*
X-26441Y214082D01*
X-26546Y214163D01*
X-26648Y214248D01*
X-26748Y214335D01*
X-26845Y214425D01*
X-26940Y214518D01*
X-27031Y214614D01*
X-27120Y214712D01*
X-27206Y214813D01*
X-27289Y214917D01*
X-27369Y215023D01*
X-27445Y215131D01*
X-27519Y215241D01*
X-27589Y215354D01*
X-27656Y215468D01*
X-27719Y215585D01*
X-27779Y215703D01*
X-27836Y215823D01*
X-27889Y215945D01*
X-27938Y216068D01*
X-27984Y216192D01*
X-28026Y216318D01*
X-28064Y216445D01*
X-28099Y216573D01*
X-28130Y216702D01*
X-28157Y216831D01*
X-28180Y216962D01*
X-28200Y217093D01*
X-28215Y217225D01*
X-28227Y217357D01*
X-28235Y217489D01*
X-28239Y217622D01*
X-28239Y217754D01*
X-28235Y217887D01*
X-28227Y218019D01*
X-28215Y218151D01*
X-28200Y218283D01*
X-28180Y218414D01*
X-28157Y218545D01*
X-28130Y218674D01*
X-28099Y218803D01*
X-28064Y218931D01*
X-28026Y219058D01*
X-27984Y219184D01*
X-27938Y219308D01*
X-27889Y219431D01*
X-27836Y219553D01*
X-27779Y219673D01*
X-27719Y219791D01*
X-27656Y219908D01*
X-27589Y220022D01*
X-27519Y220135D01*
X-27445Y220245D01*
X-27369Y220353D01*
X-27289Y220459D01*
X-27206Y220563D01*
X-27120Y220664D01*
X-27031Y220762D01*
X-26940Y220858D01*
X-26845Y220951D01*
X-26748Y221041D01*
X-26648Y221128D01*
X-26546Y221213D01*
X-26441Y221294D01*
X-26334Y221372D01*
X-26225Y221448D01*
X-26114Y221519D01*
X-26000Y221588D01*
X-25885Y221653D01*
X-25767Y221715D01*
X-25648Y221773D01*
X-25527Y221828D01*
X-25405Y221879D01*
X-25281Y221927D01*
X-25156Y221971D01*
X-25030Y222011D01*
X-24902Y222047D01*
X-24774Y222080D01*
X-24645Y222109D01*
X-24514Y222134D01*
X-24384Y222155D01*
X-24252Y222173D01*
X-24120Y222186D01*
X-23988Y222196D01*
X-23856Y222202D01*
X-23723Y222204D01*
X-23590Y222202D01*
X-23458Y222196D01*
X-23326Y222186D01*
X-23194Y222173D01*
X-23062Y222155D01*
X-22932Y222134D01*
X-22801Y222109D01*
X-22672Y222080D01*
X-22544Y222047D01*
X-22416Y222011D01*
X-22290Y221971D01*
X-22165Y221927D01*
X-22041Y221879D01*
X-21919Y221828D01*
X-21798Y221773D01*
X-21679Y221715D01*
X-21561Y221653D01*
X-21446Y221588D01*
X-21332Y221519D01*
X-21221Y221448D01*
X-21112Y221372D01*
X-21005Y221294D01*
X-20900Y221213D01*
X-20798Y221128D01*
X-20698Y221041D01*
X-20601Y220951D01*
X-20506Y220858D01*
X-20415Y220762D01*
X-20326Y220664D01*
X-20240Y220563D01*
X-20157Y220459D01*
X-20077Y220353D01*
X-20001Y220245D01*
X-19927Y220135D01*
X-19857Y220022D01*
X-19790Y219908D01*
X-19727Y219791D01*
X-19667Y219673D01*
X-19610Y219553D01*
X-19557Y219431D01*
X-19508Y219308D01*
X-19462Y219184D01*
X-19420Y219058D01*
X-19382Y218931D01*
X-19347Y218803D01*
X-19316Y218674D01*
X-19289Y218545D01*
X-19266Y218414D01*
X-19246Y218283D01*
X-19231Y218151D01*
X-19219Y218019D01*
X-19211Y217887D01*
X-19207Y217754D01*
X-19207Y217622D01*
X-19211Y217489D01*
X-19219Y217357D01*
X-19231Y217225D01*
X-19246Y217093D01*
X-19266Y216962D01*
X-19289Y216831D01*
X-19316Y216702D01*
X-19347Y216573D01*
X-19382Y216445D01*
X-19420Y216318D01*
X-19462Y216192D01*
X-19508Y216068D01*
X-19557Y215945D01*
X-19610Y215823D01*
X-19667Y215703D01*
X-19727Y215585D01*
X-19790Y215468D01*
X-19857Y215354D01*
X-19927Y215241D01*
X-20001Y215131D01*
X-20077Y215023D01*
X-20157Y214917D01*
X-20240Y214813D01*
X-20326Y214712D01*
X-20415Y214614D01*
X-20506Y214518D01*
X-20601Y214425D01*
X-20698Y214335D01*
X-20798Y214248D01*
X-20900Y214163D01*
X-21005Y214082D01*
X-21112Y214004D01*
X-21221Y213928D01*
X-21332Y213857D01*
X-21446Y213788D01*
X-21561Y213723D01*
X-21679Y213661D01*
X-21798Y213603D01*
X-21919Y213548D01*
X-22041Y213497D01*
X-22165Y213449D01*
X-22290Y213405D01*
X-22416Y213365D01*
X-22544Y213329D01*
X-22672Y213296D01*
X-22801Y213267D01*
X-22932Y213242D01*
X-23062Y213221D01*
X-23194Y213203D01*
X-23326Y213190D01*
X-23458Y213180D01*
X-23590Y213174D01*
X-23723Y213172D01*
X-31851Y214076D02*
X-31970Y214078D01*
X-32090Y214084D01*
X-32209Y214094D01*
X-32327Y214108D01*
X-32446Y214125D01*
X-32563Y214147D01*
X-32680Y214172D01*
X-32795Y214202D01*
X-32910Y214235D01*
X-33024Y214272D01*
X-33136Y214312D01*
X-33247Y214357D01*
X-33356Y214405D01*
X-33464Y214456D01*
X-33570Y214511D01*
X-33674Y214570D01*
X-33776Y214632D01*
X-33876Y214697D01*
X-33974Y214766D01*
X-34070Y214838D01*
X-34163Y214913D01*
X-34253Y214990D01*
X-34341Y215071D01*
X-34426Y215155D01*
X-34508Y215242D01*
X-34588Y215331D01*
X-34664Y215423D01*
X-34738Y215517D01*
X-34808Y215614D01*
X-34875Y215712D01*
X-34939Y215813D01*
X-34999Y215917D01*
X-35056Y216022D01*
X-35109Y216129D01*
X-35159Y216237D01*
X-35205Y216347D01*
X-35247Y216459D01*
X-35286Y216572D01*
X-35321Y216686D01*
X-35352Y216801D01*
X-35380Y216918D01*
X-35403Y217035D01*
X-35423Y217152D01*
X-35439Y217271D01*
X-35451Y217390D01*
X-35459Y217509D01*
X-35463Y217628D01*
X-35463Y217748D01*
X-35459Y217867D01*
X-35451Y217986D01*
X-35439Y218105D01*
X-35423Y218224D01*
X-35403Y218341D01*
X-35380Y218458D01*
X-35352Y218575D01*
X-35321Y218690D01*
X-35286Y218804D01*
X-35247Y218917D01*
X-35205Y219029D01*
X-35159Y219139D01*
X-35109Y219247D01*
X-35056Y219354D01*
X-34999Y219459D01*
X-34939Y219563D01*
X-34875Y219664D01*
X-34808Y219762D01*
X-34738Y219859D01*
X-34664Y219953D01*
X-34588Y220045D01*
X-34508Y220134D01*
X-34426Y220221D01*
X-34341Y220305D01*
X-34253Y220386D01*
X-34163Y220463D01*
X-34070Y220538D01*
X-33974Y220610D01*
X-33876Y220679D01*
X-33776Y220744D01*
X-33674Y220806D01*
X-33570Y220865D01*
X-33464Y220920D01*
X-33356Y220971D01*
X-33247Y221019D01*
X-33136Y221064D01*
X-33024Y221104D01*
X-32910Y221141D01*
X-32795Y221174D01*
X-32680Y221204D01*
X-32563Y221229D01*
X-32446Y221251D01*
X-32327Y221268D01*
X-32209Y221282D01*
X-32090Y221292D01*
X-31970Y221298D01*
X-31851Y221300D01*
X-31732Y221298D01*
X-31612Y221292D01*
X-31493Y221282D01*
X-31375Y221268D01*
X-31256Y221251D01*
X-31139Y221229D01*
X-31022Y221204D01*
X-30907Y221174D01*
X-30792Y221141D01*
X-30678Y221104D01*
X-30566Y221064D01*
X-30455Y221019D01*
X-30346Y220971D01*
X-30238Y220920D01*
X-30132Y220865D01*
X-30028Y220806D01*
X-29926Y220744D01*
X-29826Y220679D01*
X-29728Y220610D01*
X-29632Y220538D01*
X-29539Y220463D01*
X-29449Y220386D01*
X-29361Y220305D01*
X-29276Y220221D01*
X-29194Y220134D01*
X-29114Y220045D01*
X-29038Y219953D01*
X-28964Y219859D01*
X-28894Y219762D01*
X-28827Y219664D01*
X-28763Y219563D01*
X-28703Y219459D01*
X-28646Y219354D01*
X-28593Y219247D01*
X-28543Y219139D01*
X-28497Y219029D01*
X-28455Y218917D01*
X-28416Y218804D01*
X-28381Y218690D01*
X-28350Y218575D01*
X-28322Y218458D01*
X-28299Y218341D01*
X-28279Y218224D01*
X-28263Y218105D01*
X-28251Y217986D01*
X-28243Y217867D01*
X-28239Y217748D01*
X-28239Y217628D01*
X-28243Y217509D01*
X-28251Y217390D01*
X-28263Y217271D01*
X-28279Y217152D01*
X-28299Y217035D01*
X-28322Y216918D01*
X-28350Y216801D01*
X-28381Y216686D01*
X-28416Y216572D01*
X-28455Y216459D01*
X-28497Y216347D01*
X-28543Y216237D01*
X-28593Y216129D01*
X-28646Y216022D01*
X-28703Y215917D01*
X-28763Y215813D01*
X-28827Y215712D01*
X-28894Y215614D01*
X-28964Y215517D01*
X-29038Y215423D01*
X-29114Y215331D01*
X-29194Y215242D01*
X-29276Y215155D01*
X-29361Y215071D01*
X-29449Y214990D01*
X-29539Y214913D01*
X-29632Y214838D01*
X-29728Y214766D01*
X-29826Y214697D01*
X-29926Y214632D01*
X-30028Y214570D01*
X-30132Y214511D01*
X-30238Y214456D01*
X-30346Y214405D01*
X-30455Y214357D01*
X-30566Y214312D01*
X-30678Y214272D01*
X-30792Y214235D01*
X-30907Y214202D01*
X-31022Y214172D01*
X-31139Y214147D01*
X-31256Y214125D01*
X-31375Y214108D01*
X-31493Y214094D01*
X-31612Y214084D01*
X-31732Y214078D01*
X-31851Y214076D01*
X-20110Y228178D02*
X-19207Y228178D01*
X-20110Y228178D02*
X-20110Y229081D01*
X-19207Y229081D01*
X-19207Y228178D01*
X-31399Y244087D02*
X-31524Y244085D01*
X-31649Y244079D01*
X-31774Y244070D01*
X-31898Y244056D01*
X-32022Y244039D01*
X-32146Y244018D01*
X-32268Y243993D01*
X-32390Y243964D01*
X-32511Y243932D01*
X-32631Y243896D01*
X-32750Y243856D01*
X-32867Y243813D01*
X-32983Y243766D01*
X-33098Y243715D01*
X-33210Y243661D01*
X-33322Y243603D01*
X-33431Y243543D01*
X-33538Y243478D01*
X-33644Y243411D01*
X-33747Y243340D01*
X-33848Y243266D01*
X-33947Y243189D01*
X-34043Y243109D01*
X-34137Y243026D01*
X-34228Y242941D01*
X-34317Y242852D01*
X-34402Y242761D01*
X-34485Y242667D01*
X-34565Y242571D01*
X-34642Y242472D01*
X-34716Y242371D01*
X-34787Y242268D01*
X-34854Y242162D01*
X-34919Y242055D01*
X-34979Y241946D01*
X-35037Y241834D01*
X-35091Y241722D01*
X-35142Y241607D01*
X-35189Y241491D01*
X-35232Y241374D01*
X-35272Y241255D01*
X-35308Y241135D01*
X-35340Y241014D01*
X-35369Y240892D01*
X-35394Y240770D01*
X-35415Y240646D01*
X-35432Y240522D01*
X-35446Y240398D01*
X-35455Y240273D01*
X-35461Y240148D01*
X-35463Y240023D01*
X-35461Y239880D01*
X-35455Y239738D01*
X-35445Y239595D01*
X-35432Y239453D01*
X-35414Y239312D01*
X-35393Y239170D01*
X-35368Y239030D01*
X-35339Y238890D01*
X-35306Y238751D01*
X-35269Y238613D01*
X-35229Y238476D01*
X-35185Y238341D01*
X-35137Y238206D01*
X-35085Y238073D01*
X-35030Y237941D01*
X-34971Y237811D01*
X-34909Y237683D01*
X-34843Y237556D01*
X-34774Y237431D01*
X-34702Y237308D01*
X-34626Y237188D01*
X-34547Y237069D01*
X-34464Y236952D01*
X-34379Y236838D01*
X-34290Y236726D01*
X-34199Y236617D01*
X-34104Y236510D01*
X-34007Y236405D01*
X-33906Y236304D01*
X-33803Y236205D01*
X-33698Y236109D01*
X-33589Y236016D01*
X-33478Y235926D01*
X-33365Y235839D01*
X-33250Y235755D01*
X-33132Y235675D01*
X-33012Y235597D01*
X-32890Y235523D01*
X-32766Y235453D01*
X-32640Y235385D01*
X-32512Y235322D01*
X-32383Y235261D01*
X-32252Y235204D01*
X-32120Y235151D01*
X-31986Y235102D01*
X-31851Y235056D01*
X-28238Y242732D02*
X-28330Y242826D01*
X-28424Y242916D01*
X-28521Y243004D01*
X-28621Y243089D01*
X-28723Y243171D01*
X-28828Y243250D01*
X-28935Y243325D01*
X-29044Y243397D01*
X-29155Y243466D01*
X-29269Y243532D01*
X-29384Y243594D01*
X-29501Y243653D01*
X-29620Y243708D01*
X-29740Y243759D01*
X-29862Y243807D01*
X-29985Y243852D01*
X-30109Y243892D01*
X-30235Y243929D01*
X-30362Y243962D01*
X-30489Y243991D01*
X-30618Y244017D01*
X-30747Y244038D01*
X-30877Y244056D01*
X-31007Y244069D01*
X-31137Y244079D01*
X-31268Y244085D01*
X-31399Y244087D01*
X-28238Y242733D02*
X-19207Y235056D01*
X-19207Y244087D01*
X-28238Y250687D02*
X-28238Y256106D01*
X-28236Y256224D01*
X-28230Y256342D01*
X-28221Y256460D01*
X-28207Y256577D01*
X-28190Y256694D01*
X-28169Y256811D01*
X-28144Y256926D01*
X-28115Y257041D01*
X-28082Y257155D01*
X-28046Y257267D01*
X-28006Y257378D01*
X-27963Y257488D01*
X-27916Y257597D01*
X-27866Y257704D01*
X-27811Y257809D01*
X-27754Y257912D01*
X-27693Y258013D01*
X-27629Y258113D01*
X-27562Y258210D01*
X-27492Y258305D01*
X-27418Y258397D01*
X-27342Y258488D01*
X-27262Y258575D01*
X-27180Y258660D01*
X-27095Y258742D01*
X-27008Y258822D01*
X-26917Y258898D01*
X-26825Y258972D01*
X-26730Y259042D01*
X-26633Y259109D01*
X-26533Y259173D01*
X-26432Y259234D01*
X-26329Y259291D01*
X-26224Y259346D01*
X-26117Y259396D01*
X-26008Y259443D01*
X-25898Y259486D01*
X-25787Y259526D01*
X-25675Y259562D01*
X-25561Y259595D01*
X-25446Y259624D01*
X-25331Y259649D01*
X-25214Y259670D01*
X-25097Y259687D01*
X-24980Y259701D01*
X-24862Y259710D01*
X-24744Y259716D01*
X-24626Y259718D01*
X-24626Y259719D02*
X-23723Y259719D01*
X-23590Y259717D01*
X-23458Y259711D01*
X-23326Y259701D01*
X-23194Y259688D01*
X-23062Y259670D01*
X-22932Y259649D01*
X-22801Y259624D01*
X-22672Y259595D01*
X-22544Y259562D01*
X-22416Y259526D01*
X-22290Y259486D01*
X-22165Y259442D01*
X-22041Y259394D01*
X-21919Y259343D01*
X-21798Y259288D01*
X-21679Y259230D01*
X-21561Y259168D01*
X-21446Y259103D01*
X-21332Y259034D01*
X-21221Y258963D01*
X-21112Y258887D01*
X-21005Y258809D01*
X-20900Y258728D01*
X-20798Y258643D01*
X-20698Y258556D01*
X-20601Y258466D01*
X-20506Y258373D01*
X-20415Y258277D01*
X-20326Y258179D01*
X-20240Y258078D01*
X-20157Y257974D01*
X-20077Y257868D01*
X-20001Y257760D01*
X-19927Y257650D01*
X-19857Y257537D01*
X-19790Y257423D01*
X-19727Y257306D01*
X-19667Y257188D01*
X-19610Y257068D01*
X-19557Y256946D01*
X-19508Y256823D01*
X-19462Y256699D01*
X-19420Y256573D01*
X-19382Y256446D01*
X-19347Y256318D01*
X-19316Y256189D01*
X-19289Y256060D01*
X-19266Y255929D01*
X-19246Y255798D01*
X-19231Y255666D01*
X-19219Y255534D01*
X-19211Y255402D01*
X-19207Y255269D01*
X-19207Y255137D01*
X-19211Y255004D01*
X-19219Y254872D01*
X-19231Y254740D01*
X-19246Y254608D01*
X-19266Y254477D01*
X-19289Y254346D01*
X-19316Y254217D01*
X-19347Y254088D01*
X-19382Y253960D01*
X-19420Y253833D01*
X-19462Y253707D01*
X-19508Y253583D01*
X-19557Y253460D01*
X-19610Y253338D01*
X-19667Y253218D01*
X-19727Y253100D01*
X-19790Y252983D01*
X-19857Y252869D01*
X-19927Y252756D01*
X-20001Y252646D01*
X-20077Y252538D01*
X-20157Y252432D01*
X-20240Y252328D01*
X-20326Y252227D01*
X-20415Y252129D01*
X-20506Y252033D01*
X-20601Y251940D01*
X-20698Y251850D01*
X-20798Y251763D01*
X-20900Y251678D01*
X-21005Y251597D01*
X-21112Y251519D01*
X-21221Y251443D01*
X-21332Y251372D01*
X-21446Y251303D01*
X-21561Y251238D01*
X-21679Y251176D01*
X-21798Y251118D01*
X-21919Y251063D01*
X-22041Y251012D01*
X-22165Y250964D01*
X-22290Y250920D01*
X-22416Y250880D01*
X-22544Y250844D01*
X-22672Y250811D01*
X-22801Y250782D01*
X-22932Y250757D01*
X-23062Y250736D01*
X-23194Y250718D01*
X-23326Y250705D01*
X-23458Y250695D01*
X-23590Y250689D01*
X-23723Y250687D01*
X-28238Y250687D01*
X-28413Y250689D01*
X-28587Y250695D01*
X-28761Y250706D01*
X-28935Y250721D01*
X-29109Y250740D01*
X-29282Y250763D01*
X-29454Y250790D01*
X-29626Y250822D01*
X-29797Y250857D01*
X-29967Y250897D01*
X-30136Y250941D01*
X-30304Y250989D01*
X-30471Y251041D01*
X-30636Y251097D01*
X-30800Y251157D01*
X-30963Y251220D01*
X-31123Y251288D01*
X-31283Y251360D01*
X-31440Y251435D01*
X-31596Y251515D01*
X-31749Y251598D01*
X-31901Y251684D01*
X-32050Y251775D01*
X-32197Y251869D01*
X-32342Y251966D01*
X-32485Y252067D01*
X-32625Y252171D01*
X-32762Y252279D01*
X-32897Y252390D01*
X-33029Y252504D01*
X-33158Y252621D01*
X-33285Y252742D01*
X-33408Y252865D01*
X-33529Y252992D01*
X-33646Y253121D01*
X-33760Y253253D01*
X-33871Y253388D01*
X-33979Y253525D01*
X-34083Y253665D01*
X-34184Y253808D01*
X-34281Y253953D01*
X-34375Y254100D01*
X-34466Y254249D01*
X-34552Y254401D01*
X-34635Y254554D01*
X-34715Y254710D01*
X-34790Y254867D01*
X-34862Y255027D01*
X-34930Y255187D01*
X-34993Y255350D01*
X-35053Y255514D01*
X-35109Y255679D01*
X-35161Y255846D01*
X-35209Y256014D01*
X-35253Y256183D01*
X-35293Y256353D01*
X-35328Y256524D01*
X-35360Y256696D01*
X-35387Y256868D01*
X-35410Y257041D01*
X-35429Y257215D01*
X-35444Y257389D01*
X-35455Y257563D01*
X-35461Y257737D01*
X-35463Y257912D01*
D12*
X730060Y914400D02*
X743140Y914400D01*
X743140Y889000D02*
X730060Y889000D01*
X730060Y863600D02*
X743140Y863600D01*
X743140Y838200D02*
X730060Y838200D01*
X730060Y812800D02*
X743140Y812800D01*
X743140Y787400D02*
X730060Y787400D01*
X730060Y762000D02*
X743140Y762000D01*
X743140Y736600D02*
X730060Y736600D01*
X730060Y711200D02*
X743140Y711200D01*
X743140Y685800D02*
X730060Y685800D01*
X730060Y660400D02*
X743140Y660400D01*
X743140Y635000D02*
X730060Y635000D01*
X730060Y609600D02*
X743140Y609600D01*
X743140Y584200D02*
X730060Y584200D01*
X730060Y558800D02*
X743140Y558800D01*
X743140Y533400D02*
X730060Y533400D01*
X730060Y508000D02*
X743140Y508000D01*
X743140Y482600D02*
X730060Y482600D01*
X730060Y457200D02*
X743140Y457200D01*
X743140Y431800D02*
X730060Y431800D01*
X882460Y914400D02*
X895540Y914400D01*
X895540Y889000D02*
X882460Y889000D01*
X882460Y863600D02*
X895540Y863600D01*
X895540Y838200D02*
X882460Y838200D01*
X882460Y812800D02*
X895540Y812800D01*
X895540Y787400D02*
X882460Y787400D01*
X882460Y762000D02*
X895540Y762000D01*
X895540Y736600D02*
X882460Y736600D01*
X882460Y711200D02*
X895540Y711200D01*
X895540Y685800D02*
X882460Y685800D01*
X882460Y660400D02*
X895540Y660400D01*
X895540Y635000D02*
X882460Y635000D01*
X882460Y609600D02*
X895540Y609600D01*
X895540Y584200D02*
X882460Y584200D01*
X882460Y558800D02*
X895540Y558800D01*
X895540Y533400D02*
X882460Y533400D01*
X882460Y508000D02*
X895540Y508000D01*
X895540Y482600D02*
X882460Y482600D01*
X882460Y457200D02*
X895540Y457200D01*
X895540Y431800D02*
X882460Y431800D01*
D13*
X482600Y389890D02*
X482600Y372110D01*
X508000Y372110D02*
X508000Y389890D01*
X457200Y389890D02*
X457200Y372110D01*
X431800Y372110D02*
X431800Y389890D01*
X406400Y389890D02*
X406400Y372110D01*
X533400Y372110D02*
X533400Y389890D01*
X558800Y389890D02*
X558800Y372110D01*
X584200Y372110D02*
X584200Y389890D01*
D14*
X660400Y406400D03*
X660400Y330200D03*
D15*
X774700Y330200D03*
X774700Y406400D03*
D14*
X317500Y508000D03*
X317500Y431800D03*
X317500Y381000D03*
X317500Y304800D03*
D16*
X482600Y876300D03*
X558800Y876300D03*
D17*
X234200Y889000D03*
D18*
X299200Y889000D03*
D17*
X69100Y889000D03*
D18*
X134100Y889000D03*
D19*
X577850Y44450D03*
X717550Y44450D03*
X609600Y273050D03*
X685800Y273050D03*
X577850Y273050D03*
X717550Y273050D03*
X781050Y44450D03*
X920750Y44450D03*
X812800Y273050D03*
X889000Y273050D03*
X781050Y273050D03*
X920750Y273050D03*
X78740Y386080D03*
X251460Y386080D03*
X251460Y782320D03*
X78740Y782320D03*
D14*
X406400Y863600D03*
X425450Y876300D03*
X406400Y889000D03*
D20*
X609600Y736600D03*
X609600Y660400D03*
X330200Y736600D03*
X330200Y660400D03*
X914400Y381000D03*
X914400Y330200D03*
X952500Y622300D03*
X952500Y571500D03*
X952500Y520700D03*
X508000Y190500D03*
X508000Y139700D03*
X508000Y88900D03*
X25400Y431800D03*
X25400Y381000D03*
D21*
X406400Y76200D03*
X406400Y25400D03*
D22*
X520700Y920750D03*
D23*
X495300Y920750D03*
D22*
X546100Y920750D03*
X571500Y920750D03*
X596900Y920750D03*
X622300Y920750D03*
D24*
X489053Y544897D02*
X481147Y544897D01*
X481147Y556603D01*
X489053Y556603D01*
X489053Y544897D01*
X489053Y546222D02*
X481147Y546222D01*
X481147Y547547D02*
X489053Y547547D01*
X489053Y548872D02*
X481147Y548872D01*
X481147Y550197D02*
X489053Y550197D01*
X489053Y551522D02*
X481147Y551522D01*
X481147Y552847D02*
X489053Y552847D01*
X489053Y554172D02*
X481147Y554172D01*
X481147Y555497D02*
X489053Y555497D01*
X504047Y544897D02*
X511953Y544897D01*
X504047Y544897D02*
X504047Y556603D01*
X511953Y556603D01*
X511953Y544897D01*
X511953Y546222D02*
X504047Y546222D01*
X504047Y547547D02*
X511953Y547547D01*
X511953Y548872D02*
X504047Y548872D01*
X504047Y550197D02*
X511953Y550197D01*
X511953Y551522D02*
X504047Y551522D01*
X504047Y552847D02*
X511953Y552847D01*
X511953Y554172D02*
X504047Y554172D01*
X504047Y555497D02*
X511953Y555497D01*
X526947Y544897D02*
X534853Y544897D01*
X526947Y544897D02*
X526947Y556603D01*
X534853Y556603D01*
X534853Y544897D01*
X534853Y546222D02*
X526947Y546222D01*
X526947Y547547D02*
X534853Y547547D01*
X534853Y548872D02*
X526947Y548872D01*
X526947Y550197D02*
X534853Y550197D01*
X534853Y551522D02*
X526947Y551522D01*
X526947Y552847D02*
X534853Y552847D01*
X534853Y554172D02*
X526947Y554172D01*
X526947Y555497D02*
X534853Y555497D01*
D25*
X523218Y612082D02*
X492782Y612082D01*
X492782Y623218D01*
X523218Y623218D01*
X523218Y612082D01*
X523218Y613949D02*
X492782Y613949D01*
X492782Y615816D02*
X523218Y615816D01*
X523218Y617683D02*
X492782Y617683D01*
X492782Y619550D02*
X523218Y619550D01*
X523218Y621417D02*
X492782Y621417D01*
D15*
X609600Y546100D03*
X609600Y571500D03*
X406400Y546100D03*
X406400Y571500D03*
D26*
X558800Y876300D02*
X647700Y876300D01*
X660400Y889000D01*
X736600Y889000D01*
X470662Y394462D02*
X457200Y381000D01*
X470662Y394462D02*
X470662Y394835D01*
X583827Y508000D01*
X673100Y508000D01*
X685800Y520700D01*
X685800Y584200D01*
X698500Y596900D01*
X723900Y596900D01*
X736600Y584200D01*
X496062Y394462D02*
X482600Y381000D01*
X496062Y394462D02*
X496062Y394835D01*
X596527Y495300D01*
X685800Y495300D01*
X698500Y508000D01*
X698500Y546100D01*
X711200Y558800D01*
X736600Y558800D01*
X736600Y508000D02*
X850900Y622300D01*
X952500Y622300D01*
X863600Y749300D02*
X876300Y762000D01*
X889000Y762000D01*
D27*
X317500Y431800D02*
X317500Y381000D01*
D28*
X685800Y749300D03*
D26*
X863600Y749300D01*
X774700Y330200D02*
X660400Y330200D01*
X406400Y889000D02*
X299200Y889000D01*
D27*
X812800Y304800D02*
X812800Y273050D01*
X609600Y279400D02*
X609600Y292100D01*
X635000Y317500D01*
X635000Y393700D01*
X647700Y406400D01*
X660400Y406400D01*
X635000Y317500D02*
X647700Y304800D01*
X812800Y304800D01*
X889000Y355600D02*
X914400Y381000D01*
X825500Y355600D02*
X812800Y342900D01*
X812800Y304800D01*
X825500Y355600D02*
X889000Y355600D01*
D26*
X485100Y538894D02*
X485100Y550750D01*
D28*
X485100Y538894D03*
D26*
X35560Y429260D02*
X33020Y431800D01*
X25400Y431800D01*
D29*
X35560Y429260D02*
X78740Y386080D01*
D30*
X76200Y381000D02*
X25400Y431800D01*
D26*
X78740Y386080D02*
X132080Y386080D01*
X190500Y444500D02*
X190500Y495300D01*
X203200Y508000D01*
X317500Y508000D01*
X190500Y444500D02*
X132080Y386080D01*
X78740Y782320D02*
X69100Y791960D01*
X69100Y889000D01*
X203200Y889000D02*
X234200Y889000D01*
X203200Y889000D02*
X177800Y914400D01*
X76200Y914400D02*
X69850Y908050D01*
X76200Y914400D02*
X177800Y914400D01*
X69850Y889750D02*
X69100Y889000D01*
X69850Y889750D02*
X69850Y908050D01*
X323850Y730250D02*
X330200Y736600D01*
X330200Y787400D01*
X355600Y812800D01*
X508000Y812800D01*
X520700Y825500D01*
X520700Y889000D01*
X533400Y901700D01*
X584200Y901700D02*
X596900Y914400D01*
X584200Y901700D02*
X533400Y901700D01*
D27*
X508000Y736600D02*
X330200Y736600D01*
X571500Y673100D02*
X571500Y584200D01*
X584200Y571500D01*
X609600Y571500D01*
X571500Y673100D02*
X508000Y736600D01*
X609600Y571500D02*
X622300Y571500D01*
X698500Y647700D01*
X927100Y647700D01*
D28*
X927100Y647700D03*
D30*
X279400Y707376D02*
X153684Y707376D01*
X279400Y707376D02*
X300976Y707376D01*
X153684Y707376D02*
X78740Y782320D01*
X300976Y707376D02*
X330200Y736600D01*
D27*
X279400Y707376D02*
X279400Y635000D01*
X292100Y622300D01*
X330200Y622300D01*
X368300Y584200D02*
X368300Y165100D01*
X393700Y139700D01*
X508000Y139700D01*
X368300Y584200D02*
X330200Y622300D01*
D26*
X425450Y876300D02*
X482600Y876300D01*
D27*
X406400Y76200D02*
X406400Y25400D01*
X419100Y38100D01*
X571500Y38100D01*
X584200Y38100D01*
X635000Y88900D01*
X749300Y88900D01*
X774700Y63500D01*
X774700Y50800D01*
X781050Y44450D01*
X558800Y25400D02*
X406400Y25400D01*
X558800Y25400D02*
X571500Y38100D01*
X577850Y44450D01*
X535550Y546100D02*
X530900Y550750D01*
X535550Y546100D02*
X609600Y546100D01*
D26*
X431800Y571500D02*
X406400Y571500D01*
X431800Y571500D02*
X444500Y558800D01*
X444500Y533400D01*
X457200Y520700D01*
X495300Y520700D01*
X508000Y533400D01*
X508000Y550750D01*
M02*
