G04 EAGLE Gerber RS-274X export*
G75*
%MOMM*%
%FSLAX34Y34*%
%LPD*%
%INTop Copper*%
%IPPOS*%
%AMOC8*
5,1,8,0,0,1.08239X$1,22.5*%
G01*
%ADD10C,0.130000*%
%ADD11C,0.152400*%
%ADD12C,1.308000*%
%ADD13C,1.778000*%
%ADD14P,1.429621X8X292.500000*%
%ADD15P,1.429621X8X112.500000*%
%ADD16P,1.429621X8X22.500000*%
%ADD17R,1.308000X1.308000*%
%ADD18C,1.308000*%
%ADD19R,2.500000X2.500000*%
%ADD20P,1.732040X8X22.500000*%
%ADD21C,1.508000*%
%ADD22R,1.508000X1.508000*%
%ADD23C,0.139500*%
%ADD24C,0.196500*%
%ADD25R,1.050000X0.600000*%
%ADD26R,1.000000X0.550000*%
%ADD27R,1.500000X1.300000*%
%ADD28C,1.320800*%
%ADD29R,1.200000X1.200000*%
%ADD30R,1.300000X1.500000*%
%ADD31C,0.304800*%
%ADD32C,0.508000*%
%ADD33C,0.756400*%
%ADD34C,0.406400*%
%ADD35C,0.812800*%
%ADD36C,1.524000*%

G36*
X508118Y125746D02*
X508118Y125746D01*
X508237Y125753D01*
X508275Y125766D01*
X508316Y125771D01*
X508426Y125814D01*
X508539Y125851D01*
X508574Y125873D01*
X508611Y125888D01*
X508707Y125958D01*
X508808Y126021D01*
X508836Y126051D01*
X508869Y126074D01*
X508945Y126166D01*
X509026Y126253D01*
X509046Y126288D01*
X509071Y126319D01*
X509122Y126427D01*
X509180Y126531D01*
X509190Y126571D01*
X509207Y126607D01*
X509229Y126724D01*
X509259Y126839D01*
X509263Y126900D01*
X509267Y126920D01*
X509265Y126940D01*
X509269Y127000D01*
X509269Y138938D01*
X509254Y139056D01*
X509247Y139175D01*
X509234Y139213D01*
X509229Y139253D01*
X509186Y139364D01*
X509149Y139477D01*
X509127Y139511D01*
X509112Y139549D01*
X509043Y139645D01*
X509009Y139697D01*
X509026Y139715D01*
X509046Y139750D01*
X509071Y139782D01*
X509122Y139889D01*
X509180Y139994D01*
X509190Y140033D01*
X509207Y140069D01*
X509229Y140186D01*
X509259Y140302D01*
X509263Y140362D01*
X509267Y140382D01*
X509265Y140402D01*
X509269Y140462D01*
X509269Y152400D01*
X509254Y152518D01*
X509247Y152637D01*
X509234Y152675D01*
X509229Y152716D01*
X509186Y152826D01*
X509149Y152939D01*
X509127Y152974D01*
X509112Y153011D01*
X509043Y153107D01*
X508979Y153208D01*
X508949Y153236D01*
X508926Y153269D01*
X508834Y153345D01*
X508747Y153426D01*
X508712Y153446D01*
X508681Y153471D01*
X508573Y153522D01*
X508469Y153580D01*
X508429Y153590D01*
X508393Y153607D01*
X508276Y153629D01*
X508161Y153659D01*
X508101Y153663D01*
X508081Y153667D01*
X508060Y153665D01*
X508000Y153669D01*
X406926Y153669D01*
X382269Y178326D01*
X382269Y584200D01*
X382257Y584298D01*
X382254Y584397D01*
X382237Y584455D01*
X382229Y584516D01*
X382193Y584608D01*
X382165Y584703D01*
X382135Y584755D01*
X382112Y584811D01*
X382054Y584891D01*
X382004Y584977D01*
X381938Y585052D01*
X381926Y585069D01*
X381916Y585076D01*
X381898Y585098D01*
X320818Y646177D01*
X381000Y646177D01*
X381026Y646180D01*
X381052Y646178D01*
X381199Y646200D01*
X381346Y646217D01*
X381371Y646225D01*
X381397Y646229D01*
X381535Y646284D01*
X381674Y646334D01*
X381696Y646348D01*
X381721Y646358D01*
X381842Y646443D01*
X381967Y646523D01*
X381985Y646542D01*
X382007Y646557D01*
X382106Y646667D01*
X382209Y646774D01*
X382223Y646796D01*
X382240Y646816D01*
X382312Y646946D01*
X382388Y647073D01*
X382396Y647098D01*
X382409Y647121D01*
X382449Y647264D01*
X382494Y647405D01*
X382496Y647431D01*
X382504Y647456D01*
X382523Y647700D01*
X382523Y749300D01*
X382520Y749326D01*
X382522Y749352D01*
X382500Y749499D01*
X382483Y749646D01*
X382475Y749671D01*
X382471Y749697D01*
X382416Y749835D01*
X382366Y749974D01*
X382352Y749996D01*
X382342Y750021D01*
X382257Y750142D01*
X382177Y750267D01*
X382158Y750285D01*
X382143Y750307D01*
X382033Y750406D01*
X381926Y750509D01*
X381904Y750523D01*
X381884Y750540D01*
X381754Y750612D01*
X381627Y750688D01*
X381602Y750696D01*
X381579Y750709D01*
X381436Y750749D01*
X381295Y750794D01*
X381269Y750796D01*
X381244Y750804D01*
X381000Y750823D01*
X264780Y750823D01*
X264704Y750815D01*
X264629Y750816D01*
X264532Y750795D01*
X264433Y750783D01*
X264362Y750758D01*
X264288Y750742D01*
X264199Y750699D01*
X264105Y750666D01*
X264042Y750625D01*
X263973Y750592D01*
X263896Y750531D01*
X263813Y750477D01*
X263760Y750422D01*
X263701Y750375D01*
X263639Y750298D01*
X263570Y750226D01*
X263532Y750161D01*
X263485Y750102D01*
X263442Y750012D01*
X263392Y749927D01*
X263368Y749855D01*
X263336Y749786D01*
X263315Y749689D01*
X263285Y749595D01*
X263279Y749520D01*
X263263Y749446D01*
X263265Y749346D01*
X263257Y749248D01*
X263269Y749173D01*
X263270Y749097D01*
X263294Y749001D01*
X263309Y748903D01*
X263337Y748833D01*
X263356Y748759D01*
X263420Y748623D01*
X263438Y748579D01*
X263448Y748564D01*
X263460Y748538D01*
X264746Y746312D01*
X266461Y739912D01*
X266461Y733288D01*
X264746Y726888D01*
X261434Y721151D01*
X256749Y716466D01*
X251012Y713154D01*
X244612Y711439D01*
X237988Y711439D01*
X231588Y713154D01*
X225851Y716466D01*
X221166Y721151D01*
X217854Y726888D01*
X216139Y733288D01*
X216139Y739912D01*
X217854Y746312D01*
X219140Y748538D01*
X219170Y748608D01*
X219208Y748673D01*
X219239Y748767D01*
X219278Y748858D01*
X219292Y748933D01*
X219315Y749005D01*
X219323Y749104D01*
X219340Y749201D01*
X219337Y749277D01*
X219343Y749352D01*
X219328Y749450D01*
X219323Y749549D01*
X219302Y749622D01*
X219291Y749697D01*
X219254Y749789D01*
X219227Y749884D01*
X219190Y749950D01*
X219162Y750021D01*
X219106Y750102D01*
X219058Y750189D01*
X219007Y750245D01*
X218963Y750307D01*
X218890Y750373D01*
X218823Y750447D01*
X218761Y750490D01*
X218705Y750540D01*
X218618Y750588D01*
X218536Y750645D01*
X218466Y750672D01*
X218400Y750709D01*
X218304Y750736D01*
X218212Y750772D01*
X218137Y750783D01*
X218064Y750804D01*
X217913Y750816D01*
X217867Y750823D01*
X217849Y750821D01*
X217820Y750823D01*
X153923Y750823D01*
X153923Y787400D01*
X153920Y787426D01*
X153922Y787452D01*
X153900Y787599D01*
X153883Y787746D01*
X153875Y787771D01*
X153871Y787797D01*
X153816Y787935D01*
X153766Y788074D01*
X153752Y788096D01*
X153742Y788121D01*
X153657Y788242D01*
X153577Y788367D01*
X153558Y788385D01*
X153543Y788407D01*
X153433Y788506D01*
X153326Y788609D01*
X153304Y788623D01*
X153284Y788640D01*
X153154Y788712D01*
X153027Y788788D01*
X153002Y788796D01*
X152979Y788809D01*
X152836Y788849D01*
X152695Y788894D01*
X152669Y788896D01*
X152644Y788904D01*
X152400Y788923D01*
X102231Y788923D01*
X96381Y794773D01*
X96303Y794835D01*
X96230Y794905D01*
X96166Y794944D01*
X96108Y794990D01*
X96017Y795033D01*
X95931Y795084D01*
X95860Y795107D01*
X95793Y795139D01*
X95695Y795160D01*
X95599Y795190D01*
X95525Y795196D01*
X95452Y795212D01*
X95352Y795210D01*
X95252Y795218D01*
X95178Y795207D01*
X95104Y795206D01*
X95007Y795182D01*
X94907Y795167D01*
X94838Y795139D01*
X94766Y795121D01*
X94676Y795075D01*
X94583Y795038D01*
X94522Y794996D01*
X94456Y794961D01*
X94379Y794896D01*
X94297Y794839D01*
X94247Y794784D01*
X94191Y794736D01*
X94131Y794655D01*
X94064Y794580D01*
X94028Y794515D01*
X93983Y794455D01*
X93944Y794363D01*
X93895Y794275D01*
X93875Y794204D01*
X93845Y794135D01*
X93828Y794037D01*
X93800Y793940D01*
X93792Y793840D01*
X93784Y793792D01*
X93786Y793757D01*
X93781Y793696D01*
X93781Y785367D01*
X80264Y785367D01*
X80238Y785364D01*
X80212Y785366D01*
X80065Y785344D01*
X79918Y785327D01*
X79893Y785319D01*
X79867Y785315D01*
X79729Y785260D01*
X79590Y785210D01*
X79568Y785196D01*
X79543Y785186D01*
X79422Y785101D01*
X79297Y785021D01*
X79279Y785002D01*
X79257Y784987D01*
X79158Y784877D01*
X79055Y784770D01*
X79041Y784748D01*
X79024Y784728D01*
X78952Y784598D01*
X78876Y784471D01*
X78868Y784446D01*
X78855Y784423D01*
X78815Y784280D01*
X78770Y784139D01*
X78768Y784113D01*
X78761Y784088D01*
X78741Y783844D01*
X78741Y782319D01*
X77216Y782319D01*
X77190Y782316D01*
X77164Y782318D01*
X77017Y782296D01*
X76870Y782279D01*
X76845Y782270D01*
X76819Y782267D01*
X76681Y782212D01*
X76542Y782162D01*
X76520Y782147D01*
X76495Y782138D01*
X76374Y782053D01*
X76249Y781973D01*
X76231Y781954D01*
X76209Y781939D01*
X76110Y781829D01*
X76007Y781722D01*
X75993Y781700D01*
X75976Y781680D01*
X75904Y781550D01*
X75828Y781423D01*
X75820Y781398D01*
X75807Y781375D01*
X75767Y781232D01*
X75722Y781091D01*
X75720Y781065D01*
X75712Y781040D01*
X75693Y780796D01*
X75693Y767183D01*
X75665Y767172D01*
X75526Y767122D01*
X75504Y767108D01*
X75479Y767098D01*
X75358Y767013D01*
X75233Y766933D01*
X75215Y766914D01*
X75193Y766899D01*
X75094Y766789D01*
X74991Y766682D01*
X74977Y766660D01*
X74960Y766640D01*
X74888Y766510D01*
X74812Y766383D01*
X74804Y766358D01*
X74791Y766335D01*
X74751Y766192D01*
X74706Y766051D01*
X74704Y766025D01*
X74696Y766000D01*
X74677Y765756D01*
X74677Y647700D01*
X74680Y647674D01*
X74678Y647648D01*
X74700Y647501D01*
X74717Y647354D01*
X74725Y647329D01*
X74729Y647303D01*
X74784Y647165D01*
X74834Y647026D01*
X74848Y647004D01*
X74858Y646979D01*
X74943Y646858D01*
X75023Y646733D01*
X75042Y646715D01*
X75057Y646693D01*
X75167Y646594D01*
X75274Y646491D01*
X75296Y646477D01*
X75316Y646460D01*
X75446Y646388D01*
X75573Y646312D01*
X75598Y646304D01*
X75621Y646291D01*
X75764Y646251D01*
X75905Y646206D01*
X75931Y646204D01*
X75956Y646196D01*
X76200Y646177D01*
X265431Y646177D01*
X265431Y609600D01*
X265446Y609482D01*
X265453Y609363D01*
X265466Y609325D01*
X265471Y609284D01*
X265514Y609174D01*
X265551Y609061D01*
X265573Y609026D01*
X265588Y608989D01*
X265658Y608893D01*
X265721Y608792D01*
X265751Y608764D01*
X265774Y608731D01*
X265866Y608656D01*
X265953Y608574D01*
X265988Y608554D01*
X266019Y608529D01*
X266127Y608478D01*
X266231Y608420D01*
X266271Y608410D01*
X266307Y608393D01*
X266424Y608371D01*
X266539Y608341D01*
X266600Y608337D01*
X266620Y608333D01*
X266640Y608335D01*
X266700Y608331D01*
X328931Y608331D01*
X328931Y596900D01*
X328943Y596802D01*
X328946Y596703D01*
X328963Y596645D01*
X328971Y596584D01*
X329007Y596492D01*
X329035Y596397D01*
X329065Y596345D01*
X329088Y596289D01*
X329146Y596209D01*
X329196Y596123D01*
X329262Y596048D01*
X329274Y596031D01*
X329284Y596024D01*
X329303Y596003D01*
X354331Y570974D01*
X354331Y139700D01*
X354343Y139602D01*
X354346Y139503D01*
X354363Y139445D01*
X354371Y139384D01*
X354407Y139292D01*
X354435Y139197D01*
X354456Y139161D01*
X354459Y139153D01*
X354468Y139138D01*
X354488Y139089D01*
X354546Y139009D01*
X354596Y138923D01*
X354625Y138891D01*
X354629Y138884D01*
X354638Y138875D01*
X354662Y138848D01*
X354674Y138831D01*
X354684Y138824D01*
X354703Y138803D01*
X367403Y126103D01*
X367481Y126042D01*
X367553Y125974D01*
X367606Y125945D01*
X367654Y125908D01*
X367745Y125868D01*
X367831Y125820D01*
X367890Y125805D01*
X367946Y125781D01*
X368044Y125766D01*
X368139Y125741D01*
X368239Y125735D01*
X368260Y125731D01*
X368272Y125733D01*
X368300Y125731D01*
X508000Y125731D01*
X508118Y125746D01*
G37*
G36*
X842174Y165964D02*
X842174Y165964D01*
X842293Y165971D01*
X842331Y165984D01*
X842372Y165989D01*
X842482Y166032D01*
X842595Y166069D01*
X842630Y166091D01*
X842667Y166106D01*
X842763Y166175D01*
X842864Y166239D01*
X842892Y166269D01*
X842925Y166292D01*
X843001Y166384D01*
X843082Y166471D01*
X843102Y166506D01*
X843127Y166537D01*
X843178Y166645D01*
X843236Y166749D01*
X843246Y166789D01*
X843263Y166825D01*
X843285Y166942D01*
X843315Y167057D01*
X843319Y167117D01*
X843323Y167137D01*
X843321Y167158D01*
X843325Y167218D01*
X843325Y172206D01*
X843313Y172304D01*
X843310Y172403D01*
X843293Y172461D01*
X843285Y172521D01*
X843249Y172613D01*
X843221Y172709D01*
X843191Y172761D01*
X843168Y172817D01*
X843110Y172897D01*
X843060Y172983D01*
X842994Y173058D01*
X842982Y173074D01*
X842972Y173082D01*
X842954Y173103D01*
X842817Y173240D01*
X842482Y173819D01*
X842309Y174466D01*
X842309Y176301D01*
X842424Y176316D01*
X842543Y176323D01*
X842581Y176335D01*
X842622Y176341D01*
X842732Y176384D01*
X842845Y176421D01*
X842880Y176443D01*
X842917Y176458D01*
X843013Y176527D01*
X843114Y176591D01*
X843142Y176621D01*
X843175Y176644D01*
X843251Y176736D01*
X843332Y176823D01*
X843352Y176858D01*
X843377Y176889D01*
X843428Y176997D01*
X843486Y177101D01*
X843496Y177141D01*
X843513Y177177D01*
X843535Y177294D01*
X843565Y177409D01*
X843569Y177469D01*
X843573Y177489D01*
X843571Y177510D01*
X843575Y177570D01*
X843575Y178030D01*
X843560Y178148D01*
X843553Y178267D01*
X843540Y178305D01*
X843535Y178346D01*
X843492Y178456D01*
X843455Y178569D01*
X843433Y178604D01*
X843418Y178641D01*
X843349Y178737D01*
X843285Y178838D01*
X843255Y178866D01*
X843232Y178899D01*
X843140Y178975D01*
X843053Y179056D01*
X843018Y179076D01*
X842987Y179101D01*
X842879Y179152D01*
X842775Y179210D01*
X842735Y179220D01*
X842699Y179237D01*
X842582Y179259D01*
X842467Y179289D01*
X842407Y179293D01*
X842387Y179297D01*
X842366Y179295D01*
X842309Y179299D01*
X842309Y181134D01*
X842482Y181781D01*
X842817Y182360D01*
X842954Y182497D01*
X843014Y182575D01*
X843082Y182647D01*
X843111Y182700D01*
X843148Y182748D01*
X843188Y182839D01*
X843236Y182926D01*
X843251Y182984D01*
X843275Y183040D01*
X843290Y183138D01*
X843315Y183233D01*
X843321Y183333D01*
X843325Y183354D01*
X843323Y183366D01*
X843325Y183394D01*
X843325Y190932D01*
X844218Y191825D01*
X845782Y191825D01*
X845900Y191840D01*
X846019Y191847D01*
X846057Y191860D01*
X846098Y191865D01*
X846208Y191908D01*
X846321Y191945D01*
X846356Y191967D01*
X846393Y191982D01*
X846489Y192051D01*
X846590Y192115D01*
X846618Y192145D01*
X846651Y192168D01*
X846727Y192260D01*
X846808Y192347D01*
X846828Y192382D01*
X846853Y192413D01*
X846904Y192521D01*
X846962Y192625D01*
X846972Y192665D01*
X846989Y192701D01*
X847011Y192818D01*
X847041Y192933D01*
X847045Y192993D01*
X847049Y193013D01*
X847047Y193034D01*
X847051Y193094D01*
X847051Y215900D01*
X847036Y216018D01*
X847029Y216137D01*
X847016Y216175D01*
X847011Y216216D01*
X846968Y216326D01*
X846931Y216439D01*
X846909Y216474D01*
X846894Y216511D01*
X846825Y216607D01*
X846761Y216708D01*
X846731Y216736D01*
X846708Y216769D01*
X846616Y216845D01*
X846529Y216926D01*
X846494Y216946D01*
X846463Y216971D01*
X846355Y217022D01*
X846251Y217080D01*
X846211Y217090D01*
X846175Y217107D01*
X846058Y217129D01*
X845943Y217159D01*
X845883Y217163D01*
X845863Y217167D01*
X845842Y217165D01*
X845782Y217169D01*
X838726Y217169D01*
X826769Y229126D01*
X826769Y329674D01*
X838726Y341631D01*
X889000Y341631D01*
X889098Y341643D01*
X889197Y341646D01*
X889255Y341663D01*
X889316Y341671D01*
X889408Y341707D01*
X889503Y341735D01*
X889555Y341765D01*
X889611Y341788D01*
X889691Y341846D01*
X889777Y341896D01*
X889852Y341962D01*
X889869Y341974D01*
X889876Y341984D01*
X889898Y342003D01*
X914926Y367031D01*
X927100Y367031D01*
X927218Y367046D01*
X927337Y367053D01*
X927375Y367066D01*
X927416Y367071D01*
X927526Y367114D01*
X927639Y367151D01*
X927674Y367173D01*
X927711Y367188D01*
X927807Y367258D01*
X927908Y367321D01*
X927936Y367351D01*
X927969Y367374D01*
X928045Y367466D01*
X928126Y367553D01*
X928146Y367588D01*
X928171Y367619D01*
X928222Y367727D01*
X928280Y367831D01*
X928290Y367871D01*
X928307Y367907D01*
X928329Y368024D01*
X928359Y368139D01*
X928363Y368200D01*
X928367Y368220D01*
X928365Y368240D01*
X928369Y368300D01*
X928369Y393700D01*
X928354Y393818D01*
X928347Y393937D01*
X928334Y393975D01*
X928329Y394016D01*
X928286Y394126D01*
X928249Y394239D01*
X928227Y394274D01*
X928212Y394311D01*
X928143Y394407D01*
X928079Y394508D01*
X928049Y394536D01*
X928026Y394569D01*
X927934Y394645D01*
X927847Y394726D01*
X927812Y394746D01*
X927781Y394771D01*
X927673Y394822D01*
X927569Y394880D01*
X927529Y394890D01*
X927493Y394907D01*
X927376Y394929D01*
X927261Y394959D01*
X927201Y394963D01*
X927181Y394967D01*
X927160Y394965D01*
X927100Y394969D01*
X901700Y394969D01*
X901602Y394957D01*
X901503Y394954D01*
X901445Y394937D01*
X901384Y394929D01*
X901292Y394893D01*
X901197Y394865D01*
X901145Y394835D01*
X901089Y394812D01*
X901009Y394754D01*
X900923Y394704D01*
X900848Y394638D01*
X900831Y394626D01*
X900824Y394616D01*
X900803Y394598D01*
X888474Y382269D01*
X825500Y382269D01*
X825402Y382257D01*
X825303Y382254D01*
X825245Y382237D01*
X825184Y382229D01*
X825092Y382193D01*
X824997Y382165D01*
X824945Y382135D01*
X824889Y382112D01*
X824809Y382054D01*
X824723Y382004D01*
X824648Y381938D01*
X824631Y381926D01*
X824624Y381916D01*
X824603Y381898D01*
X799203Y356498D01*
X799142Y356419D01*
X799074Y356347D01*
X799045Y356294D01*
X799008Y356246D01*
X798968Y356155D01*
X798920Y356069D01*
X798905Y356010D01*
X798881Y355954D01*
X798866Y355856D01*
X798841Y355761D01*
X798835Y355667D01*
X798833Y355658D01*
X798834Y355654D01*
X798831Y355640D01*
X798833Y355628D01*
X798831Y355600D01*
X798831Y228600D01*
X798843Y228502D01*
X798846Y228403D01*
X798863Y228345D01*
X798871Y228284D01*
X798907Y228192D01*
X798935Y228097D01*
X798965Y228045D01*
X798988Y227989D01*
X799046Y227909D01*
X799096Y227823D01*
X799162Y227748D01*
X799174Y227731D01*
X799184Y227724D01*
X799203Y227703D01*
X824231Y202674D01*
X824231Y167218D01*
X824246Y167100D01*
X824253Y166981D01*
X824266Y166943D01*
X824271Y166902D01*
X824314Y166792D01*
X824351Y166679D01*
X824373Y166644D01*
X824388Y166607D01*
X824458Y166511D01*
X824521Y166410D01*
X824551Y166382D01*
X824574Y166349D01*
X824666Y166273D01*
X824753Y166192D01*
X824788Y166172D01*
X824819Y166147D01*
X824927Y166096D01*
X825031Y166038D01*
X825071Y166028D01*
X825107Y166011D01*
X825224Y165989D01*
X825339Y165959D01*
X825400Y165955D01*
X825420Y165951D01*
X825440Y165953D01*
X825500Y165949D01*
X842056Y165949D01*
X842174Y165964D01*
G37*
G36*
X965226Y100080D02*
X965226Y100080D01*
X965252Y100078D01*
X965399Y100100D01*
X965546Y100117D01*
X965571Y100125D01*
X965597Y100129D01*
X965735Y100184D01*
X965874Y100234D01*
X965896Y100248D01*
X965921Y100258D01*
X966042Y100343D01*
X966167Y100423D01*
X966185Y100442D01*
X966207Y100457D01*
X966306Y100567D01*
X966409Y100674D01*
X966423Y100696D01*
X966440Y100716D01*
X966512Y100846D01*
X966588Y100973D01*
X966596Y100998D01*
X966609Y101021D01*
X966649Y101164D01*
X966694Y101305D01*
X966696Y101331D01*
X966704Y101356D01*
X966723Y101600D01*
X966723Y177800D01*
X966722Y177811D01*
X966722Y177815D01*
X966720Y177828D01*
X966722Y177852D01*
X966700Y177999D01*
X966683Y178146D01*
X966675Y178171D01*
X966671Y178197D01*
X966616Y178335D01*
X966566Y178474D01*
X966552Y178496D01*
X966542Y178521D01*
X966457Y178642D01*
X966377Y178767D01*
X966358Y178785D01*
X966343Y178807D01*
X966233Y178906D01*
X966126Y179009D01*
X966104Y179023D01*
X966084Y179040D01*
X965954Y179112D01*
X965827Y179188D01*
X965802Y179196D01*
X965779Y179209D01*
X965636Y179249D01*
X965495Y179294D01*
X965469Y179296D01*
X965444Y179304D01*
X965200Y179323D01*
X924647Y179323D01*
X924547Y179312D01*
X924447Y179310D01*
X924375Y179292D01*
X924301Y179283D01*
X924207Y179250D01*
X924109Y179225D01*
X924043Y179191D01*
X923973Y179166D01*
X923889Y179111D01*
X923799Y179065D01*
X923743Y179017D01*
X923680Y178977D01*
X923610Y178905D01*
X923534Y178840D01*
X923490Y178780D01*
X923438Y178726D01*
X923386Y178640D01*
X923327Y178559D01*
X923297Y178491D01*
X923259Y178427D01*
X923229Y178331D01*
X923189Y178239D01*
X923176Y178166D01*
X923153Y178095D01*
X923145Y177995D01*
X923127Y177896D01*
X923131Y177822D01*
X923125Y177748D01*
X923140Y177648D01*
X923145Y177548D01*
X923166Y177477D01*
X923177Y177403D01*
X923214Y177310D01*
X923242Y177213D01*
X923278Y177148D01*
X923305Y177079D01*
X923363Y176997D01*
X923412Y176909D01*
X923477Y176833D01*
X923504Y176793D01*
X923531Y176769D01*
X923539Y176759D01*
X923542Y176756D01*
X923544Y176753D01*
X923570Y176723D01*
X923933Y176360D01*
X924268Y175781D01*
X924441Y175135D01*
X924441Y171347D01*
X915924Y171347D01*
X915898Y171344D01*
X915872Y171346D01*
X915725Y171324D01*
X915578Y171307D01*
X915553Y171298D01*
X915527Y171295D01*
X915389Y171240D01*
X915250Y171190D01*
X915228Y171176D01*
X915203Y171166D01*
X915082Y171081D01*
X914957Y171001D01*
X914939Y170982D01*
X914917Y170967D01*
X914818Y170857D01*
X914715Y170750D01*
X914701Y170728D01*
X914684Y170708D01*
X914612Y170578D01*
X914536Y170451D01*
X914528Y170426D01*
X914515Y170403D01*
X914475Y170260D01*
X914430Y170119D01*
X914428Y170093D01*
X914420Y170068D01*
X914401Y169824D01*
X914401Y168299D01*
X914399Y168299D01*
X914399Y169824D01*
X914396Y169850D01*
X914398Y169876D01*
X914376Y170023D01*
X914359Y170170D01*
X914350Y170195D01*
X914347Y170221D01*
X914292Y170359D01*
X914242Y170498D01*
X914228Y170520D01*
X914218Y170545D01*
X914133Y170666D01*
X914053Y170791D01*
X914034Y170809D01*
X914019Y170831D01*
X913909Y170930D01*
X913802Y171033D01*
X913780Y171047D01*
X913760Y171064D01*
X913630Y171136D01*
X913503Y171212D01*
X913478Y171220D01*
X913455Y171233D01*
X913312Y171273D01*
X913171Y171318D01*
X913145Y171320D01*
X913120Y171328D01*
X912876Y171347D01*
X904359Y171347D01*
X904359Y175135D01*
X904532Y175781D01*
X904867Y176360D01*
X905230Y176723D01*
X905292Y176801D01*
X905362Y176874D01*
X905400Y176938D01*
X905446Y176996D01*
X905489Y177087D01*
X905541Y177173D01*
X905563Y177244D01*
X905595Y177311D01*
X905616Y177409D01*
X905647Y177505D01*
X905653Y177579D01*
X905669Y177652D01*
X905667Y177752D01*
X905675Y177852D01*
X905664Y177926D01*
X905663Y178000D01*
X905638Y178097D01*
X905623Y178197D01*
X905596Y178266D01*
X905578Y178338D01*
X905532Y178428D01*
X905495Y178521D01*
X905452Y178582D01*
X905418Y178648D01*
X905353Y178725D01*
X905296Y178807D01*
X905241Y178857D01*
X905192Y178913D01*
X905111Y178973D01*
X905037Y179040D01*
X904972Y179076D01*
X904912Y179121D01*
X904820Y179160D01*
X904732Y179209D01*
X904660Y179229D01*
X904592Y179259D01*
X904493Y179276D01*
X904396Y179304D01*
X904296Y179312D01*
X904249Y179320D01*
X904213Y179318D01*
X904153Y179323D01*
X885148Y179323D01*
X885122Y179320D01*
X885096Y179322D01*
X884949Y179300D01*
X884802Y179283D01*
X884777Y179275D01*
X884751Y179271D01*
X884613Y179216D01*
X884474Y179166D01*
X884452Y179152D01*
X884427Y179142D01*
X884306Y179057D01*
X884181Y178977D01*
X884163Y178958D01*
X884141Y178943D01*
X884042Y178833D01*
X883939Y178726D01*
X883925Y178704D01*
X883908Y178684D01*
X883836Y178554D01*
X883760Y178427D01*
X883752Y178402D01*
X883739Y178379D01*
X883699Y178236D01*
X883654Y178095D01*
X883652Y178069D01*
X883644Y178044D01*
X883625Y177800D01*
X883628Y177774D01*
X883626Y177748D01*
X883648Y177601D01*
X883665Y177454D01*
X883673Y177429D01*
X883677Y177403D01*
X883732Y177265D01*
X883782Y177126D01*
X883796Y177103D01*
X883806Y177079D01*
X883891Y176958D01*
X883971Y176833D01*
X883990Y176814D01*
X884005Y176793D01*
X884115Y176694D01*
X884222Y176591D01*
X884244Y176577D01*
X884264Y176559D01*
X884394Y176488D01*
X884521Y176412D01*
X884546Y176404D01*
X884569Y176391D01*
X884712Y176351D01*
X884853Y176305D01*
X884879Y176303D01*
X884891Y176300D01*
X884891Y174465D01*
X884718Y173819D01*
X884383Y173240D01*
X884321Y173178D01*
X884242Y173079D01*
X884158Y172985D01*
X884134Y172943D01*
X884104Y172905D01*
X884050Y172791D01*
X883989Y172680D01*
X883976Y172633D01*
X883955Y172590D01*
X883929Y172466D01*
X883894Y172344D01*
X883889Y172284D01*
X883882Y172249D01*
X883883Y172201D01*
X883875Y172101D01*
X883875Y166468D01*
X883889Y166342D01*
X883896Y166216D01*
X883909Y166170D01*
X883915Y166122D01*
X883957Y166003D01*
X883992Y165881D01*
X884016Y165839D01*
X884032Y165793D01*
X884101Y165687D01*
X884162Y165577D01*
X884202Y165531D01*
X884221Y165501D01*
X884256Y165467D01*
X884321Y165391D01*
X906517Y143195D01*
X906616Y143116D01*
X906710Y143032D01*
X906752Y143008D01*
X906790Y142978D01*
X906904Y142924D01*
X907015Y142863D01*
X907061Y142850D01*
X907105Y142829D01*
X907228Y142803D01*
X907350Y142768D01*
X907411Y142763D01*
X907446Y142756D01*
X907494Y142757D01*
X907594Y142749D01*
X915663Y142749D01*
X930149Y128263D01*
X930149Y124848D01*
X930152Y124822D01*
X930150Y124796D01*
X930172Y124649D01*
X930189Y124502D01*
X930197Y124477D01*
X930201Y124451D01*
X930256Y124313D01*
X930306Y124174D01*
X930320Y124152D01*
X930330Y124127D01*
X930415Y124006D01*
X930495Y123881D01*
X930514Y123863D01*
X930529Y123841D01*
X930639Y123742D01*
X930746Y123639D01*
X930768Y123625D01*
X930788Y123608D01*
X930918Y123536D01*
X931045Y123460D01*
X931070Y123452D01*
X931093Y123439D01*
X931236Y123399D01*
X931377Y123354D01*
X931403Y123352D01*
X931428Y123344D01*
X931672Y123325D01*
X937432Y123325D01*
X938129Y122627D01*
X938170Y122595D01*
X938204Y122557D01*
X938305Y122487D01*
X938402Y122410D01*
X938449Y122388D01*
X938491Y122359D01*
X938606Y122314D01*
X938718Y122261D01*
X938767Y122251D01*
X938815Y122232D01*
X938937Y122214D01*
X939058Y122188D01*
X939109Y122189D01*
X939160Y122181D01*
X939283Y122192D01*
X939407Y122194D01*
X939456Y122206D01*
X939507Y122211D01*
X939625Y122249D01*
X939745Y122279D01*
X939790Y122302D01*
X939839Y122318D01*
X939945Y122382D01*
X940054Y122439D01*
X940093Y122472D01*
X940137Y122498D01*
X940226Y122584D01*
X940320Y122664D01*
X940350Y122705D01*
X940387Y122741D01*
X940526Y122942D01*
X940767Y123360D01*
X941240Y123833D01*
X941819Y124168D01*
X942465Y124341D01*
X946253Y124341D01*
X946253Y115824D01*
X946256Y115798D01*
X946254Y115772D01*
X946276Y115625D01*
X946293Y115478D01*
X946301Y115453D01*
X946305Y115427D01*
X946360Y115289D01*
X946410Y115150D01*
X946424Y115128D01*
X946434Y115103D01*
X946519Y114982D01*
X946599Y114857D01*
X946618Y114839D01*
X946633Y114817D01*
X946743Y114718D01*
X946850Y114615D01*
X946872Y114601D01*
X946892Y114584D01*
X947022Y114512D01*
X947149Y114436D01*
X947174Y114428D01*
X947197Y114415D01*
X947340Y114375D01*
X947481Y114330D01*
X947507Y114328D01*
X947532Y114320D01*
X947776Y114301D01*
X949301Y114301D01*
X949301Y114299D01*
X947776Y114299D01*
X947750Y114296D01*
X947724Y114298D01*
X947577Y114276D01*
X947430Y114259D01*
X947405Y114250D01*
X947379Y114247D01*
X947241Y114192D01*
X947102Y114142D01*
X947080Y114128D01*
X947055Y114118D01*
X946934Y114033D01*
X946809Y113953D01*
X946791Y113934D01*
X946769Y113919D01*
X946670Y113809D01*
X946567Y113702D01*
X946553Y113680D01*
X946536Y113660D01*
X946464Y113530D01*
X946388Y113403D01*
X946380Y113378D01*
X946367Y113355D01*
X946327Y113212D01*
X946282Y113071D01*
X946280Y113045D01*
X946272Y113020D01*
X946253Y112776D01*
X946253Y104259D01*
X942465Y104259D01*
X941819Y104432D01*
X941240Y104767D01*
X940767Y105240D01*
X940526Y105658D01*
X940495Y105699D01*
X940472Y105744D01*
X940392Y105838D01*
X940318Y105938D01*
X940279Y105971D01*
X940246Y106009D01*
X940147Y106083D01*
X940052Y106163D01*
X940007Y106186D01*
X939966Y106217D01*
X939852Y106266D01*
X939742Y106322D01*
X939693Y106334D01*
X939646Y106355D01*
X939524Y106376D01*
X939404Y106406D01*
X939353Y106407D01*
X939303Y106416D01*
X939179Y106410D01*
X939056Y106412D01*
X939006Y106401D01*
X938955Y106398D01*
X938836Y106364D01*
X938715Y106338D01*
X938669Y106316D01*
X938620Y106302D01*
X938512Y106241D01*
X938400Y106188D01*
X938360Y106157D01*
X938316Y106132D01*
X938129Y105973D01*
X937432Y105275D01*
X923168Y105275D01*
X922275Y106168D01*
X922275Y122432D01*
X923605Y123761D01*
X923684Y123860D01*
X923768Y123954D01*
X923792Y123997D01*
X923822Y124034D01*
X923876Y124149D01*
X923937Y124259D01*
X923950Y124306D01*
X923971Y124350D01*
X923997Y124473D01*
X924032Y124595D01*
X924037Y124655D01*
X924044Y124690D01*
X924043Y124738D01*
X924051Y124839D01*
X924051Y125106D01*
X924037Y125232D01*
X924030Y125358D01*
X924017Y125404D01*
X924011Y125452D01*
X923969Y125571D01*
X923934Y125693D01*
X923910Y125735D01*
X923894Y125781D01*
X923825Y125887D01*
X923764Y125997D01*
X923724Y126043D01*
X923705Y126073D01*
X923670Y126107D01*
X923605Y126183D01*
X913583Y136205D01*
X913484Y136284D01*
X913390Y136368D01*
X913348Y136392D01*
X913310Y136422D01*
X913196Y136476D01*
X913085Y136537D01*
X913039Y136550D01*
X912995Y136571D01*
X912872Y136597D01*
X912750Y136632D01*
X912689Y136637D01*
X912654Y136644D01*
X912606Y136643D01*
X912506Y136651D01*
X904437Y136651D01*
X877759Y163329D01*
X877660Y163408D01*
X877566Y163492D01*
X877524Y163516D01*
X877486Y163546D01*
X877372Y163600D01*
X877261Y163661D01*
X877215Y163674D01*
X877171Y163695D01*
X877048Y163721D01*
X876926Y163756D01*
X876865Y163761D01*
X876830Y163768D01*
X876782Y163767D01*
X876682Y163775D01*
X876300Y163775D01*
X876274Y163772D01*
X876248Y163774D01*
X876101Y163752D01*
X875954Y163735D01*
X875929Y163727D01*
X875903Y163723D01*
X875765Y163668D01*
X875626Y163618D01*
X875604Y163604D01*
X875579Y163594D01*
X875458Y163509D01*
X875333Y163429D01*
X875315Y163410D01*
X875293Y163395D01*
X875194Y163285D01*
X875091Y163178D01*
X875077Y163156D01*
X875060Y163136D01*
X874988Y163006D01*
X874912Y162879D01*
X874904Y162854D01*
X874891Y162831D01*
X874851Y162688D01*
X874806Y162547D01*
X874804Y162521D01*
X874796Y162496D01*
X874777Y162252D01*
X874777Y101600D01*
X874780Y101574D01*
X874778Y101548D01*
X874800Y101401D01*
X874817Y101254D01*
X874825Y101229D01*
X874829Y101203D01*
X874884Y101065D01*
X874934Y100926D01*
X874948Y100904D01*
X874958Y100879D01*
X875043Y100758D01*
X875123Y100633D01*
X875142Y100615D01*
X875157Y100593D01*
X875267Y100494D01*
X875374Y100391D01*
X875396Y100377D01*
X875416Y100360D01*
X875546Y100288D01*
X875673Y100212D01*
X875698Y100204D01*
X875721Y100191D01*
X875864Y100151D01*
X876005Y100106D01*
X876031Y100104D01*
X876056Y100096D01*
X876300Y100077D01*
X965200Y100077D01*
X965226Y100080D01*
G37*
%LPC*%
G36*
X326254Y650874D02*
X326254Y650874D01*
X320674Y656454D01*
X320674Y664346D01*
X326254Y669926D01*
X334146Y669926D01*
X339726Y664346D01*
X339726Y656454D01*
X334146Y650874D01*
X326254Y650874D01*
G37*
%LPD*%
%LPC*%
G36*
X81787Y767279D02*
X81787Y767279D01*
X81787Y779273D01*
X93781Y779273D01*
X93781Y769485D01*
X93608Y768839D01*
X93273Y768260D01*
X92800Y767787D01*
X92221Y767452D01*
X91575Y767279D01*
X81787Y767279D01*
G37*
%LPD*%
%LPC*%
G36*
X951444Y159793D02*
X951444Y159793D01*
X949494Y160601D01*
X948001Y162094D01*
X947193Y164044D01*
X947193Y166156D01*
X948001Y168106D01*
X949494Y169599D01*
X951444Y170407D01*
X953556Y170407D01*
X955506Y169599D01*
X956999Y168106D01*
X957807Y166156D01*
X957807Y164044D01*
X956999Y162094D01*
X955506Y160601D01*
X953556Y159793D01*
X951444Y159793D01*
G37*
%LPD*%
%LPC*%
G36*
X887944Y108993D02*
X887944Y108993D01*
X885994Y109801D01*
X884501Y111294D01*
X883693Y113244D01*
X883693Y115356D01*
X884501Y117306D01*
X885994Y118799D01*
X887944Y119607D01*
X890056Y119607D01*
X892006Y118799D01*
X893499Y117306D01*
X894307Y115356D01*
X894307Y113244D01*
X893499Y111294D01*
X892006Y109801D01*
X890056Y108993D01*
X887944Y108993D01*
G37*
%LPD*%
%LPC*%
G36*
X332231Y738631D02*
X332231Y738631D01*
X332231Y747142D01*
X334567Y747142D01*
X340742Y740967D01*
X340742Y738631D01*
X332231Y738631D01*
G37*
%LPD*%
%LPC*%
G36*
X916431Y383031D02*
X916431Y383031D01*
X916431Y391542D01*
X918767Y391542D01*
X924942Y385367D01*
X924942Y383031D01*
X916431Y383031D01*
G37*
%LPD*%
%LPC*%
G36*
X319658Y738631D02*
X319658Y738631D01*
X319658Y740967D01*
X325833Y747142D01*
X328169Y747142D01*
X328169Y738631D01*
X319658Y738631D01*
G37*
%LPD*%
%LPC*%
G36*
X332231Y726058D02*
X332231Y726058D01*
X332231Y734569D01*
X340742Y734569D01*
X340742Y732233D01*
X334567Y726058D01*
X332231Y726058D01*
G37*
%LPD*%
%LPC*%
G36*
X903858Y383031D02*
X903858Y383031D01*
X903858Y385367D01*
X910033Y391542D01*
X912369Y391542D01*
X912369Y383031D01*
X903858Y383031D01*
G37*
%LPD*%
%LPC*%
G36*
X916431Y370458D02*
X916431Y370458D01*
X916431Y378969D01*
X924942Y378969D01*
X924942Y376633D01*
X918767Y370458D01*
X916431Y370458D01*
G37*
%LPD*%
%LPC*%
G36*
X497458Y141731D02*
X497458Y141731D01*
X497458Y144067D01*
X503633Y150242D01*
X505969Y150242D01*
X505969Y141731D01*
X497458Y141731D01*
G37*
%LPD*%
%LPC*%
G36*
X325833Y726058D02*
X325833Y726058D01*
X319658Y732233D01*
X319658Y734569D01*
X328169Y734569D01*
X328169Y726058D01*
X325833Y726058D01*
G37*
%LPD*%
%LPC*%
G36*
X910033Y370458D02*
X910033Y370458D01*
X903858Y376633D01*
X903858Y378969D01*
X912369Y378969D01*
X912369Y370458D01*
X910033Y370458D01*
G37*
%LPD*%
%LPC*%
G36*
X503633Y129158D02*
X503633Y129158D01*
X497458Y135333D01*
X497458Y137669D01*
X505969Y137669D01*
X505969Y129158D01*
X503633Y129158D01*
G37*
%LPD*%
%LPC*%
G36*
X952347Y117347D02*
X952347Y117347D01*
X952347Y124341D01*
X956135Y124341D01*
X956781Y124168D01*
X957360Y123833D01*
X957833Y123360D01*
X958168Y122781D01*
X958341Y122135D01*
X958341Y117347D01*
X952347Y117347D01*
G37*
%LPD*%
%LPC*%
G36*
X952347Y104259D02*
X952347Y104259D01*
X952347Y111253D01*
X958341Y111253D01*
X958341Y106465D01*
X958168Y105819D01*
X957833Y105240D01*
X957360Y104767D01*
X956781Y104432D01*
X956135Y104259D01*
X952347Y104259D01*
G37*
%LPD*%
%LPC*%
G36*
X917447Y159259D02*
X917447Y159259D01*
X917447Y165253D01*
X924441Y165253D01*
X924441Y161465D01*
X924268Y160819D01*
X923933Y160240D01*
X923460Y159767D01*
X922881Y159432D01*
X922235Y159259D01*
X917447Y159259D01*
G37*
%LPD*%
%LPC*%
G36*
X906565Y159259D02*
X906565Y159259D01*
X905919Y159432D01*
X905340Y159767D01*
X904867Y160240D01*
X904532Y160819D01*
X904359Y161465D01*
X904359Y165253D01*
X911353Y165253D01*
X911353Y159259D01*
X906565Y159259D01*
G37*
%LPD*%
D10*
X1625600Y1003300D02*
X1708600Y1003300D01*
X1708600Y12700D02*
X1625600Y12700D01*
X1689100Y13350D02*
X1689100Y1002650D01*
X1685908Y977300D01*
X1692292Y977300D01*
X1689100Y1002650D01*
X1687800Y977300D01*
X1690400Y977300D02*
X1689100Y1002650D01*
X1686500Y977300D01*
X1691700Y977300D02*
X1689100Y1002650D01*
X1685908Y38700D02*
X1689100Y13350D01*
X1685908Y38700D02*
X1692292Y38700D01*
X1689100Y13350D01*
X1687800Y38700D01*
X1690400Y38700D02*
X1689100Y13350D01*
X1686500Y38700D01*
X1691700Y38700D02*
X1689100Y13350D01*
D11*
X1675368Y480464D02*
X1675368Y485883D01*
X1675368Y480464D02*
X1675366Y480346D01*
X1675360Y480228D01*
X1675351Y480110D01*
X1675337Y479993D01*
X1675320Y479876D01*
X1675299Y479759D01*
X1675274Y479644D01*
X1675245Y479529D01*
X1675212Y479415D01*
X1675176Y479303D01*
X1675136Y479192D01*
X1675093Y479082D01*
X1675046Y478973D01*
X1674996Y478866D01*
X1674941Y478761D01*
X1674884Y478658D01*
X1674823Y478557D01*
X1674759Y478457D01*
X1674692Y478360D01*
X1674622Y478265D01*
X1674548Y478173D01*
X1674472Y478082D01*
X1674392Y477995D01*
X1674310Y477910D01*
X1674225Y477828D01*
X1674138Y477748D01*
X1674047Y477672D01*
X1673955Y477598D01*
X1673860Y477528D01*
X1673763Y477461D01*
X1673663Y477397D01*
X1673562Y477336D01*
X1673459Y477279D01*
X1673354Y477224D01*
X1673247Y477174D01*
X1673138Y477127D01*
X1673028Y477084D01*
X1672917Y477044D01*
X1672805Y477008D01*
X1672691Y476975D01*
X1672576Y476946D01*
X1672461Y476921D01*
X1672344Y476900D01*
X1672227Y476883D01*
X1672110Y476869D01*
X1671992Y476860D01*
X1671874Y476854D01*
X1671756Y476852D01*
X1670853Y476852D01*
X1670720Y476854D01*
X1670588Y476860D01*
X1670456Y476870D01*
X1670324Y476883D01*
X1670192Y476901D01*
X1670062Y476922D01*
X1669931Y476947D01*
X1669802Y476976D01*
X1669674Y477009D01*
X1669546Y477045D01*
X1669420Y477085D01*
X1669295Y477129D01*
X1669171Y477177D01*
X1669049Y477228D01*
X1668928Y477283D01*
X1668809Y477341D01*
X1668691Y477403D01*
X1668576Y477468D01*
X1668462Y477537D01*
X1668351Y477608D01*
X1668242Y477684D01*
X1668135Y477762D01*
X1668030Y477843D01*
X1667928Y477928D01*
X1667828Y478015D01*
X1667731Y478105D01*
X1667636Y478198D01*
X1667545Y478294D01*
X1667456Y478392D01*
X1667370Y478493D01*
X1667287Y478597D01*
X1667207Y478703D01*
X1667131Y478811D01*
X1667057Y478921D01*
X1666987Y479034D01*
X1666920Y479148D01*
X1666857Y479265D01*
X1666797Y479383D01*
X1666740Y479503D01*
X1666687Y479625D01*
X1666638Y479748D01*
X1666592Y479872D01*
X1666550Y479998D01*
X1666512Y480125D01*
X1666477Y480253D01*
X1666446Y480382D01*
X1666419Y480511D01*
X1666396Y480642D01*
X1666376Y480773D01*
X1666361Y480905D01*
X1666349Y481037D01*
X1666341Y481169D01*
X1666337Y481302D01*
X1666337Y481434D01*
X1666341Y481567D01*
X1666349Y481699D01*
X1666361Y481831D01*
X1666376Y481963D01*
X1666396Y482094D01*
X1666419Y482225D01*
X1666446Y482354D01*
X1666477Y482483D01*
X1666512Y482611D01*
X1666550Y482738D01*
X1666592Y482864D01*
X1666638Y482988D01*
X1666687Y483111D01*
X1666740Y483233D01*
X1666797Y483353D01*
X1666857Y483471D01*
X1666920Y483588D01*
X1666987Y483702D01*
X1667057Y483815D01*
X1667131Y483925D01*
X1667207Y484033D01*
X1667287Y484139D01*
X1667370Y484243D01*
X1667456Y484344D01*
X1667545Y484442D01*
X1667636Y484538D01*
X1667731Y484631D01*
X1667828Y484721D01*
X1667928Y484808D01*
X1668030Y484893D01*
X1668135Y484974D01*
X1668242Y485052D01*
X1668351Y485128D01*
X1668462Y485199D01*
X1668576Y485268D01*
X1668691Y485333D01*
X1668809Y485395D01*
X1668928Y485453D01*
X1669049Y485508D01*
X1669171Y485559D01*
X1669295Y485607D01*
X1669420Y485651D01*
X1669546Y485691D01*
X1669674Y485727D01*
X1669802Y485760D01*
X1669931Y485789D01*
X1670062Y485814D01*
X1670192Y485835D01*
X1670324Y485853D01*
X1670456Y485866D01*
X1670588Y485876D01*
X1670720Y485882D01*
X1670853Y485884D01*
X1670853Y485883D02*
X1675368Y485883D01*
X1675543Y485881D01*
X1675717Y485875D01*
X1675891Y485864D01*
X1676065Y485849D01*
X1676239Y485830D01*
X1676412Y485807D01*
X1676584Y485780D01*
X1676756Y485748D01*
X1676927Y485713D01*
X1677097Y485673D01*
X1677266Y485629D01*
X1677434Y485581D01*
X1677601Y485529D01*
X1677766Y485473D01*
X1677930Y485413D01*
X1678093Y485350D01*
X1678253Y485282D01*
X1678413Y485210D01*
X1678570Y485135D01*
X1678726Y485055D01*
X1678879Y484972D01*
X1679031Y484886D01*
X1679180Y484795D01*
X1679327Y484701D01*
X1679472Y484604D01*
X1679615Y484503D01*
X1679755Y484399D01*
X1679892Y484291D01*
X1680027Y484180D01*
X1680159Y484066D01*
X1680288Y483949D01*
X1680415Y483828D01*
X1680538Y483705D01*
X1680659Y483578D01*
X1680776Y483449D01*
X1680890Y483317D01*
X1681001Y483182D01*
X1681109Y483045D01*
X1681213Y482905D01*
X1681314Y482762D01*
X1681411Y482617D01*
X1681505Y482470D01*
X1681596Y482321D01*
X1681682Y482169D01*
X1681765Y482016D01*
X1681845Y481860D01*
X1681920Y481703D01*
X1681992Y481543D01*
X1682060Y481383D01*
X1682123Y481220D01*
X1682183Y481056D01*
X1682239Y480891D01*
X1682291Y480724D01*
X1682339Y480556D01*
X1682383Y480387D01*
X1682423Y480217D01*
X1682458Y480046D01*
X1682490Y479874D01*
X1682517Y479702D01*
X1682540Y479529D01*
X1682559Y479355D01*
X1682574Y479181D01*
X1682585Y479007D01*
X1682591Y478833D01*
X1682593Y478658D01*
X1675368Y496096D02*
X1675368Y501514D01*
X1675368Y496096D02*
X1675366Y495978D01*
X1675360Y495860D01*
X1675351Y495742D01*
X1675337Y495625D01*
X1675320Y495508D01*
X1675299Y495391D01*
X1675274Y495276D01*
X1675245Y495161D01*
X1675212Y495047D01*
X1675176Y494935D01*
X1675136Y494824D01*
X1675093Y494714D01*
X1675046Y494605D01*
X1674996Y494498D01*
X1674941Y494393D01*
X1674884Y494290D01*
X1674823Y494189D01*
X1674759Y494089D01*
X1674692Y493992D01*
X1674622Y493897D01*
X1674548Y493805D01*
X1674472Y493714D01*
X1674392Y493627D01*
X1674310Y493542D01*
X1674225Y493460D01*
X1674138Y493380D01*
X1674047Y493304D01*
X1673955Y493230D01*
X1673860Y493160D01*
X1673763Y493093D01*
X1673663Y493029D01*
X1673562Y492968D01*
X1673459Y492911D01*
X1673354Y492856D01*
X1673247Y492806D01*
X1673138Y492759D01*
X1673028Y492716D01*
X1672917Y492676D01*
X1672805Y492640D01*
X1672691Y492607D01*
X1672576Y492578D01*
X1672461Y492553D01*
X1672344Y492532D01*
X1672227Y492515D01*
X1672110Y492501D01*
X1671992Y492492D01*
X1671874Y492486D01*
X1671756Y492484D01*
X1671756Y492483D02*
X1670853Y492483D01*
X1670720Y492485D01*
X1670588Y492491D01*
X1670456Y492501D01*
X1670324Y492514D01*
X1670192Y492532D01*
X1670062Y492553D01*
X1669931Y492578D01*
X1669802Y492607D01*
X1669674Y492640D01*
X1669546Y492676D01*
X1669420Y492716D01*
X1669295Y492760D01*
X1669171Y492808D01*
X1669049Y492859D01*
X1668928Y492914D01*
X1668809Y492972D01*
X1668691Y493034D01*
X1668576Y493099D01*
X1668462Y493168D01*
X1668351Y493239D01*
X1668242Y493315D01*
X1668135Y493393D01*
X1668030Y493474D01*
X1667928Y493559D01*
X1667828Y493646D01*
X1667731Y493736D01*
X1667636Y493829D01*
X1667545Y493925D01*
X1667456Y494023D01*
X1667370Y494124D01*
X1667287Y494228D01*
X1667207Y494334D01*
X1667131Y494442D01*
X1667057Y494552D01*
X1666987Y494665D01*
X1666920Y494779D01*
X1666857Y494896D01*
X1666797Y495014D01*
X1666740Y495134D01*
X1666687Y495256D01*
X1666638Y495379D01*
X1666592Y495503D01*
X1666550Y495629D01*
X1666512Y495756D01*
X1666477Y495884D01*
X1666446Y496013D01*
X1666419Y496142D01*
X1666396Y496273D01*
X1666376Y496404D01*
X1666361Y496536D01*
X1666349Y496668D01*
X1666341Y496800D01*
X1666337Y496933D01*
X1666337Y497065D01*
X1666341Y497198D01*
X1666349Y497330D01*
X1666361Y497462D01*
X1666376Y497594D01*
X1666396Y497725D01*
X1666419Y497856D01*
X1666446Y497985D01*
X1666477Y498114D01*
X1666512Y498242D01*
X1666550Y498369D01*
X1666592Y498495D01*
X1666638Y498619D01*
X1666687Y498742D01*
X1666740Y498864D01*
X1666797Y498984D01*
X1666857Y499102D01*
X1666920Y499219D01*
X1666987Y499333D01*
X1667057Y499446D01*
X1667131Y499556D01*
X1667207Y499664D01*
X1667287Y499770D01*
X1667370Y499874D01*
X1667456Y499975D01*
X1667545Y500073D01*
X1667636Y500169D01*
X1667731Y500262D01*
X1667828Y500352D01*
X1667928Y500439D01*
X1668030Y500524D01*
X1668135Y500605D01*
X1668242Y500683D01*
X1668351Y500759D01*
X1668462Y500830D01*
X1668576Y500899D01*
X1668691Y500964D01*
X1668809Y501026D01*
X1668928Y501084D01*
X1669049Y501139D01*
X1669171Y501190D01*
X1669295Y501238D01*
X1669420Y501282D01*
X1669546Y501322D01*
X1669674Y501358D01*
X1669802Y501391D01*
X1669931Y501420D01*
X1670062Y501445D01*
X1670192Y501466D01*
X1670324Y501484D01*
X1670456Y501497D01*
X1670588Y501507D01*
X1670720Y501513D01*
X1670853Y501515D01*
X1670853Y501514D02*
X1675368Y501514D01*
X1675543Y501512D01*
X1675717Y501506D01*
X1675891Y501495D01*
X1676065Y501480D01*
X1676239Y501461D01*
X1676412Y501438D01*
X1676584Y501411D01*
X1676756Y501379D01*
X1676927Y501344D01*
X1677097Y501304D01*
X1677266Y501260D01*
X1677434Y501212D01*
X1677601Y501160D01*
X1677766Y501104D01*
X1677930Y501044D01*
X1678093Y500981D01*
X1678253Y500913D01*
X1678413Y500841D01*
X1678570Y500766D01*
X1678726Y500686D01*
X1678879Y500603D01*
X1679031Y500517D01*
X1679180Y500426D01*
X1679327Y500332D01*
X1679472Y500235D01*
X1679615Y500134D01*
X1679755Y500030D01*
X1679892Y499922D01*
X1680027Y499811D01*
X1680159Y499697D01*
X1680288Y499580D01*
X1680415Y499459D01*
X1680538Y499336D01*
X1680659Y499209D01*
X1680776Y499080D01*
X1680890Y498948D01*
X1681001Y498813D01*
X1681109Y498676D01*
X1681213Y498536D01*
X1681314Y498393D01*
X1681411Y498248D01*
X1681505Y498101D01*
X1681596Y497952D01*
X1681682Y497800D01*
X1681765Y497647D01*
X1681845Y497491D01*
X1681920Y497334D01*
X1681992Y497174D01*
X1682060Y497014D01*
X1682123Y496851D01*
X1682183Y496687D01*
X1682239Y496522D01*
X1682291Y496355D01*
X1682339Y496187D01*
X1682383Y496018D01*
X1682423Y495848D01*
X1682458Y495677D01*
X1682490Y495505D01*
X1682517Y495333D01*
X1682540Y495160D01*
X1682559Y494986D01*
X1682574Y494812D01*
X1682585Y494638D01*
X1682591Y494464D01*
X1682593Y494289D01*
X1682593Y507489D02*
X1681690Y507489D01*
X1681690Y508392D01*
X1682593Y508392D01*
X1682593Y507489D01*
X1674465Y514367D02*
X1674145Y514371D01*
X1673826Y514382D01*
X1673506Y514401D01*
X1673188Y514428D01*
X1672870Y514462D01*
X1672553Y514504D01*
X1672237Y514554D01*
X1671922Y514611D01*
X1671609Y514675D01*
X1671297Y514747D01*
X1670987Y514826D01*
X1670680Y514913D01*
X1670374Y515007D01*
X1670071Y515108D01*
X1669770Y515217D01*
X1669472Y515332D01*
X1669176Y515455D01*
X1668884Y515585D01*
X1668595Y515722D01*
X1668594Y515722D02*
X1668486Y515761D01*
X1668379Y515804D01*
X1668274Y515850D01*
X1668171Y515900D01*
X1668069Y515954D01*
X1667969Y516011D01*
X1667871Y516072D01*
X1667775Y516136D01*
X1667682Y516203D01*
X1667591Y516273D01*
X1667502Y516347D01*
X1667416Y516423D01*
X1667333Y516503D01*
X1667252Y516585D01*
X1667174Y516670D01*
X1667100Y516757D01*
X1667028Y516848D01*
X1666959Y516940D01*
X1666894Y517035D01*
X1666832Y517132D01*
X1666773Y517231D01*
X1666718Y517332D01*
X1666667Y517435D01*
X1666619Y517540D01*
X1666574Y517646D01*
X1666533Y517753D01*
X1666496Y517862D01*
X1666463Y517973D01*
X1666434Y518084D01*
X1666408Y518196D01*
X1666386Y518309D01*
X1666369Y518423D01*
X1666355Y518537D01*
X1666345Y518652D01*
X1666339Y518767D01*
X1666337Y518882D01*
X1666339Y518997D01*
X1666345Y519112D01*
X1666355Y519227D01*
X1666369Y519341D01*
X1666386Y519455D01*
X1666408Y519568D01*
X1666434Y519680D01*
X1666463Y519792D01*
X1666496Y519902D01*
X1666533Y520011D01*
X1666574Y520119D01*
X1666619Y520225D01*
X1666667Y520330D01*
X1666718Y520432D01*
X1666774Y520534D01*
X1666832Y520633D01*
X1666894Y520730D01*
X1666960Y520825D01*
X1667028Y520917D01*
X1667100Y521007D01*
X1667174Y521095D01*
X1667252Y521180D01*
X1667333Y521262D01*
X1667416Y521341D01*
X1667502Y521418D01*
X1667591Y521491D01*
X1667682Y521562D01*
X1667776Y521629D01*
X1667871Y521693D01*
X1667969Y521754D01*
X1668069Y521811D01*
X1668171Y521864D01*
X1668275Y521915D01*
X1668380Y521961D01*
X1668487Y522004D01*
X1668595Y522043D01*
X1668884Y522180D01*
X1669176Y522310D01*
X1669472Y522433D01*
X1669770Y522548D01*
X1670071Y522657D01*
X1670374Y522758D01*
X1670680Y522852D01*
X1670987Y522939D01*
X1671297Y523018D01*
X1671609Y523090D01*
X1671922Y523154D01*
X1672237Y523211D01*
X1672553Y523261D01*
X1672870Y523303D01*
X1673188Y523337D01*
X1673506Y523364D01*
X1673826Y523383D01*
X1674145Y523394D01*
X1674465Y523398D01*
X1674465Y514367D02*
X1674785Y514371D01*
X1675104Y514382D01*
X1675424Y514401D01*
X1675742Y514428D01*
X1676060Y514462D01*
X1676377Y514504D01*
X1676693Y514554D01*
X1677008Y514611D01*
X1677321Y514675D01*
X1677633Y514747D01*
X1677943Y514826D01*
X1678250Y514913D01*
X1678556Y515007D01*
X1678859Y515108D01*
X1679160Y515217D01*
X1679458Y515332D01*
X1679754Y515455D01*
X1680046Y515585D01*
X1680335Y515722D01*
X1680336Y515721D02*
X1680444Y515760D01*
X1680551Y515803D01*
X1680656Y515849D01*
X1680760Y515900D01*
X1680862Y515953D01*
X1680962Y516010D01*
X1681060Y516071D01*
X1681155Y516135D01*
X1681249Y516202D01*
X1681340Y516273D01*
X1681429Y516346D01*
X1681515Y516423D01*
X1681598Y516502D01*
X1681679Y516584D01*
X1681757Y516669D01*
X1681831Y516757D01*
X1681903Y516847D01*
X1681972Y516940D01*
X1682037Y517034D01*
X1682099Y517131D01*
X1682157Y517231D01*
X1682213Y517332D01*
X1682264Y517434D01*
X1682312Y517539D01*
X1682357Y517645D01*
X1682398Y517753D01*
X1682435Y517862D01*
X1682468Y517972D01*
X1682497Y518084D01*
X1682523Y518196D01*
X1682545Y518309D01*
X1682562Y518423D01*
X1682576Y518537D01*
X1682586Y518652D01*
X1682592Y518767D01*
X1682594Y518882D01*
X1680335Y522043D02*
X1680046Y522180D01*
X1679754Y522310D01*
X1679458Y522433D01*
X1679160Y522548D01*
X1678859Y522657D01*
X1678556Y522758D01*
X1678250Y522852D01*
X1677943Y522939D01*
X1677633Y523018D01*
X1677321Y523090D01*
X1677008Y523154D01*
X1676693Y523211D01*
X1676377Y523261D01*
X1676060Y523303D01*
X1675742Y523337D01*
X1675424Y523364D01*
X1675104Y523383D01*
X1674785Y523394D01*
X1674465Y523398D01*
X1680335Y522043D02*
X1680443Y522004D01*
X1680550Y521961D01*
X1680655Y521915D01*
X1680759Y521864D01*
X1680861Y521811D01*
X1680961Y521754D01*
X1681059Y521693D01*
X1681154Y521629D01*
X1681248Y521562D01*
X1681339Y521491D01*
X1681428Y521418D01*
X1681514Y521341D01*
X1681597Y521262D01*
X1681678Y521180D01*
X1681756Y521095D01*
X1681830Y521007D01*
X1681902Y520917D01*
X1681971Y520824D01*
X1682036Y520730D01*
X1682098Y520633D01*
X1682156Y520533D01*
X1682212Y520432D01*
X1682263Y520329D01*
X1682311Y520225D01*
X1682356Y520119D01*
X1682397Y520011D01*
X1682434Y519902D01*
X1682467Y519792D01*
X1682496Y519680D01*
X1682522Y519568D01*
X1682544Y519455D01*
X1682561Y519341D01*
X1682575Y519227D01*
X1682585Y519112D01*
X1682591Y518997D01*
X1682593Y518882D01*
X1678981Y515270D02*
X1669949Y522495D01*
X1673562Y529998D02*
X1673562Y535417D01*
X1673564Y535535D01*
X1673570Y535653D01*
X1673579Y535771D01*
X1673593Y535888D01*
X1673610Y536005D01*
X1673631Y536122D01*
X1673656Y536237D01*
X1673685Y536352D01*
X1673718Y536466D01*
X1673754Y536578D01*
X1673794Y536689D01*
X1673837Y536799D01*
X1673884Y536908D01*
X1673934Y537015D01*
X1673989Y537120D01*
X1674046Y537223D01*
X1674107Y537324D01*
X1674171Y537424D01*
X1674238Y537521D01*
X1674308Y537616D01*
X1674382Y537708D01*
X1674458Y537799D01*
X1674538Y537886D01*
X1674620Y537971D01*
X1674705Y538053D01*
X1674792Y538133D01*
X1674883Y538209D01*
X1674975Y538283D01*
X1675070Y538353D01*
X1675167Y538420D01*
X1675267Y538484D01*
X1675368Y538545D01*
X1675471Y538602D01*
X1675576Y538657D01*
X1675683Y538707D01*
X1675792Y538754D01*
X1675902Y538797D01*
X1676013Y538837D01*
X1676125Y538873D01*
X1676239Y538906D01*
X1676354Y538935D01*
X1676469Y538960D01*
X1676586Y538981D01*
X1676703Y538998D01*
X1676820Y539012D01*
X1676938Y539021D01*
X1677056Y539027D01*
X1677174Y539029D01*
X1678077Y539029D01*
X1678077Y539030D02*
X1678210Y539028D01*
X1678342Y539022D01*
X1678474Y539012D01*
X1678606Y538999D01*
X1678738Y538981D01*
X1678868Y538960D01*
X1678999Y538935D01*
X1679128Y538906D01*
X1679256Y538873D01*
X1679384Y538837D01*
X1679510Y538797D01*
X1679635Y538753D01*
X1679759Y538705D01*
X1679881Y538654D01*
X1680002Y538599D01*
X1680121Y538541D01*
X1680239Y538479D01*
X1680354Y538414D01*
X1680468Y538345D01*
X1680579Y538274D01*
X1680688Y538198D01*
X1680795Y538120D01*
X1680900Y538039D01*
X1681002Y537954D01*
X1681102Y537867D01*
X1681199Y537777D01*
X1681294Y537684D01*
X1681385Y537588D01*
X1681474Y537490D01*
X1681560Y537389D01*
X1681643Y537285D01*
X1681723Y537179D01*
X1681799Y537071D01*
X1681873Y536961D01*
X1681943Y536848D01*
X1682010Y536734D01*
X1682073Y536617D01*
X1682133Y536499D01*
X1682190Y536379D01*
X1682243Y536257D01*
X1682292Y536134D01*
X1682338Y536010D01*
X1682380Y535884D01*
X1682418Y535757D01*
X1682453Y535629D01*
X1682484Y535500D01*
X1682511Y535371D01*
X1682534Y535240D01*
X1682554Y535109D01*
X1682569Y534977D01*
X1682581Y534845D01*
X1682589Y534713D01*
X1682593Y534580D01*
X1682593Y534448D01*
X1682589Y534315D01*
X1682581Y534183D01*
X1682569Y534051D01*
X1682554Y533919D01*
X1682534Y533788D01*
X1682511Y533657D01*
X1682484Y533528D01*
X1682453Y533399D01*
X1682418Y533271D01*
X1682380Y533144D01*
X1682338Y533018D01*
X1682292Y532894D01*
X1682243Y532771D01*
X1682190Y532649D01*
X1682133Y532529D01*
X1682073Y532411D01*
X1682010Y532294D01*
X1681943Y532180D01*
X1681873Y532067D01*
X1681799Y531957D01*
X1681723Y531849D01*
X1681643Y531743D01*
X1681560Y531639D01*
X1681474Y531538D01*
X1681385Y531440D01*
X1681294Y531344D01*
X1681199Y531251D01*
X1681102Y531161D01*
X1681002Y531074D01*
X1680900Y530989D01*
X1680795Y530908D01*
X1680688Y530830D01*
X1680579Y530754D01*
X1680468Y530683D01*
X1680354Y530614D01*
X1680239Y530549D01*
X1680121Y530487D01*
X1680002Y530429D01*
X1679881Y530374D01*
X1679759Y530323D01*
X1679635Y530275D01*
X1679510Y530231D01*
X1679384Y530191D01*
X1679256Y530155D01*
X1679128Y530122D01*
X1678999Y530093D01*
X1678868Y530068D01*
X1678738Y530047D01*
X1678606Y530029D01*
X1678474Y530016D01*
X1678342Y530006D01*
X1678210Y530000D01*
X1678077Y529998D01*
X1673562Y529998D01*
X1673385Y530000D01*
X1673207Y530007D01*
X1673030Y530018D01*
X1672854Y530033D01*
X1672678Y530052D01*
X1672502Y530076D01*
X1672327Y530104D01*
X1672152Y530137D01*
X1671979Y530174D01*
X1671806Y530215D01*
X1671635Y530260D01*
X1671465Y530309D01*
X1671296Y530363D01*
X1671128Y530420D01*
X1670962Y530482D01*
X1670797Y530548D01*
X1670634Y530618D01*
X1670473Y530692D01*
X1670314Y530769D01*
X1670156Y530851D01*
X1670001Y530937D01*
X1669848Y531026D01*
X1669697Y531119D01*
X1669548Y531216D01*
X1669402Y531316D01*
X1669258Y531420D01*
X1669117Y531527D01*
X1668979Y531638D01*
X1668843Y531752D01*
X1668710Y531870D01*
X1668580Y531990D01*
X1668453Y532114D01*
X1668329Y532241D01*
X1668209Y532371D01*
X1668091Y532504D01*
X1667977Y532639D01*
X1667866Y532778D01*
X1667759Y532919D01*
X1667655Y533063D01*
X1667555Y533209D01*
X1667458Y533358D01*
X1667365Y533509D01*
X1667276Y533662D01*
X1667190Y533817D01*
X1667108Y533975D01*
X1667031Y534134D01*
X1666957Y534295D01*
X1666887Y534458D01*
X1666821Y534623D01*
X1666759Y534789D01*
X1666702Y534957D01*
X1666648Y535126D01*
X1666599Y535296D01*
X1666554Y535467D01*
X1666513Y535640D01*
X1666476Y535813D01*
X1666443Y535988D01*
X1666415Y536163D01*
X1666391Y536339D01*
X1666372Y536515D01*
X1666357Y536691D01*
X1666346Y536868D01*
X1666339Y537046D01*
X1666337Y537223D01*
D10*
X0Y-12700D02*
X-57600Y-12700D01*
X-57600Y965200D02*
X0Y965200D01*
X-38100Y964550D02*
X-38100Y-12050D01*
X-41292Y13300D01*
X-34908Y13300D01*
X-38100Y-12050D01*
X-39400Y13300D01*
X-36800Y13300D02*
X-38100Y-12050D01*
X-40700Y13300D01*
X-35500Y13300D02*
X-38100Y-12050D01*
X-41292Y939200D02*
X-38100Y964550D01*
X-41292Y939200D02*
X-34908Y939200D01*
X-38100Y964550D01*
X-39400Y939200D01*
X-36800Y939200D02*
X-38100Y964550D01*
X-40700Y939200D01*
X-35500Y939200D02*
X-38100Y964550D01*
D11*
X-51832Y454133D02*
X-51832Y448714D01*
X-51834Y448596D01*
X-51840Y448478D01*
X-51849Y448360D01*
X-51863Y448243D01*
X-51880Y448126D01*
X-51901Y448009D01*
X-51926Y447894D01*
X-51955Y447779D01*
X-51988Y447665D01*
X-52024Y447553D01*
X-52064Y447442D01*
X-52107Y447332D01*
X-52154Y447223D01*
X-52204Y447116D01*
X-52259Y447011D01*
X-52316Y446908D01*
X-52377Y446807D01*
X-52441Y446707D01*
X-52508Y446610D01*
X-52578Y446515D01*
X-52652Y446423D01*
X-52728Y446332D01*
X-52808Y446245D01*
X-52890Y446160D01*
X-52975Y446078D01*
X-53062Y445998D01*
X-53153Y445922D01*
X-53245Y445848D01*
X-53340Y445778D01*
X-53437Y445711D01*
X-53537Y445647D01*
X-53638Y445586D01*
X-53741Y445529D01*
X-53846Y445474D01*
X-53953Y445424D01*
X-54062Y445377D01*
X-54172Y445334D01*
X-54283Y445294D01*
X-54395Y445258D01*
X-54509Y445225D01*
X-54624Y445196D01*
X-54739Y445171D01*
X-54856Y445150D01*
X-54973Y445133D01*
X-55090Y445119D01*
X-55208Y445110D01*
X-55326Y445104D01*
X-55444Y445102D01*
X-56347Y445102D01*
X-56480Y445104D01*
X-56612Y445110D01*
X-56744Y445120D01*
X-56876Y445133D01*
X-57008Y445151D01*
X-57138Y445172D01*
X-57269Y445197D01*
X-57398Y445226D01*
X-57526Y445259D01*
X-57654Y445295D01*
X-57780Y445335D01*
X-57905Y445379D01*
X-58029Y445427D01*
X-58151Y445478D01*
X-58272Y445533D01*
X-58391Y445591D01*
X-58509Y445653D01*
X-58624Y445718D01*
X-58738Y445787D01*
X-58849Y445858D01*
X-58958Y445934D01*
X-59065Y446012D01*
X-59170Y446093D01*
X-59272Y446178D01*
X-59372Y446265D01*
X-59469Y446355D01*
X-59564Y446448D01*
X-59655Y446544D01*
X-59744Y446642D01*
X-59830Y446743D01*
X-59913Y446847D01*
X-59993Y446953D01*
X-60069Y447061D01*
X-60143Y447171D01*
X-60213Y447284D01*
X-60280Y447398D01*
X-60343Y447515D01*
X-60403Y447633D01*
X-60460Y447753D01*
X-60513Y447875D01*
X-60562Y447998D01*
X-60608Y448122D01*
X-60650Y448248D01*
X-60688Y448375D01*
X-60723Y448503D01*
X-60754Y448632D01*
X-60781Y448761D01*
X-60804Y448892D01*
X-60824Y449023D01*
X-60839Y449155D01*
X-60851Y449287D01*
X-60859Y449419D01*
X-60863Y449552D01*
X-60863Y449684D01*
X-60859Y449817D01*
X-60851Y449949D01*
X-60839Y450081D01*
X-60824Y450213D01*
X-60804Y450344D01*
X-60781Y450475D01*
X-60754Y450604D01*
X-60723Y450733D01*
X-60688Y450861D01*
X-60650Y450988D01*
X-60608Y451114D01*
X-60562Y451238D01*
X-60513Y451361D01*
X-60460Y451483D01*
X-60403Y451603D01*
X-60343Y451721D01*
X-60280Y451838D01*
X-60213Y451952D01*
X-60143Y452065D01*
X-60069Y452175D01*
X-59993Y452283D01*
X-59913Y452389D01*
X-59830Y452493D01*
X-59744Y452594D01*
X-59655Y452692D01*
X-59564Y452788D01*
X-59469Y452881D01*
X-59372Y452971D01*
X-59272Y453058D01*
X-59170Y453143D01*
X-59065Y453224D01*
X-58958Y453302D01*
X-58849Y453378D01*
X-58738Y453449D01*
X-58624Y453518D01*
X-58509Y453583D01*
X-58391Y453645D01*
X-58272Y453703D01*
X-58151Y453758D01*
X-58029Y453809D01*
X-57905Y453857D01*
X-57780Y453901D01*
X-57654Y453941D01*
X-57526Y453977D01*
X-57398Y454010D01*
X-57269Y454039D01*
X-57138Y454064D01*
X-57008Y454085D01*
X-56876Y454103D01*
X-56744Y454116D01*
X-56612Y454126D01*
X-56480Y454132D01*
X-56347Y454134D01*
X-56347Y454133D02*
X-51832Y454133D01*
X-51657Y454131D01*
X-51483Y454125D01*
X-51309Y454114D01*
X-51135Y454099D01*
X-50961Y454080D01*
X-50788Y454057D01*
X-50616Y454030D01*
X-50444Y453998D01*
X-50273Y453963D01*
X-50103Y453923D01*
X-49934Y453879D01*
X-49766Y453831D01*
X-49599Y453779D01*
X-49434Y453723D01*
X-49270Y453663D01*
X-49107Y453600D01*
X-48947Y453532D01*
X-48787Y453460D01*
X-48630Y453385D01*
X-48474Y453305D01*
X-48321Y453222D01*
X-48169Y453136D01*
X-48020Y453045D01*
X-47873Y452951D01*
X-47728Y452854D01*
X-47585Y452753D01*
X-47445Y452649D01*
X-47308Y452541D01*
X-47173Y452430D01*
X-47041Y452316D01*
X-46912Y452199D01*
X-46785Y452078D01*
X-46662Y451955D01*
X-46541Y451828D01*
X-46424Y451699D01*
X-46310Y451567D01*
X-46199Y451432D01*
X-46091Y451295D01*
X-45987Y451155D01*
X-45886Y451012D01*
X-45789Y450867D01*
X-45695Y450720D01*
X-45604Y450571D01*
X-45518Y450419D01*
X-45435Y450266D01*
X-45355Y450110D01*
X-45280Y449953D01*
X-45208Y449793D01*
X-45140Y449633D01*
X-45077Y449470D01*
X-45017Y449306D01*
X-44961Y449141D01*
X-44909Y448974D01*
X-44861Y448806D01*
X-44817Y448637D01*
X-44777Y448467D01*
X-44742Y448296D01*
X-44710Y448124D01*
X-44683Y447952D01*
X-44660Y447779D01*
X-44641Y447605D01*
X-44626Y447431D01*
X-44615Y447257D01*
X-44609Y447083D01*
X-44607Y446908D01*
X-59057Y460733D02*
X-60863Y460733D01*
X-60863Y469764D01*
X-44607Y465249D01*
X-44607Y475739D02*
X-45510Y475739D01*
X-45510Y476642D01*
X-44607Y476642D01*
X-44607Y475739D01*
X-59057Y482617D02*
X-60863Y482617D01*
X-60863Y491648D01*
X-44607Y487132D01*
X-51832Y501861D02*
X-51832Y507279D01*
X-51832Y501861D02*
X-51834Y501743D01*
X-51840Y501625D01*
X-51849Y501507D01*
X-51863Y501390D01*
X-51880Y501273D01*
X-51901Y501156D01*
X-51926Y501041D01*
X-51955Y500926D01*
X-51988Y500812D01*
X-52024Y500700D01*
X-52064Y500589D01*
X-52107Y500479D01*
X-52154Y500370D01*
X-52204Y500263D01*
X-52259Y500158D01*
X-52316Y500055D01*
X-52377Y499954D01*
X-52441Y499854D01*
X-52508Y499757D01*
X-52578Y499662D01*
X-52652Y499570D01*
X-52728Y499479D01*
X-52808Y499392D01*
X-52890Y499307D01*
X-52975Y499225D01*
X-53062Y499145D01*
X-53153Y499069D01*
X-53245Y498995D01*
X-53340Y498925D01*
X-53437Y498858D01*
X-53537Y498794D01*
X-53638Y498733D01*
X-53741Y498676D01*
X-53846Y498621D01*
X-53953Y498571D01*
X-54062Y498524D01*
X-54172Y498481D01*
X-54283Y498441D01*
X-54395Y498405D01*
X-54509Y498372D01*
X-54624Y498343D01*
X-54739Y498318D01*
X-54856Y498297D01*
X-54973Y498280D01*
X-55090Y498266D01*
X-55208Y498257D01*
X-55326Y498251D01*
X-55444Y498249D01*
X-55444Y498248D02*
X-56347Y498248D01*
X-56480Y498250D01*
X-56612Y498256D01*
X-56744Y498266D01*
X-56876Y498279D01*
X-57008Y498297D01*
X-57138Y498318D01*
X-57269Y498343D01*
X-57398Y498372D01*
X-57526Y498405D01*
X-57654Y498441D01*
X-57780Y498481D01*
X-57905Y498525D01*
X-58029Y498573D01*
X-58151Y498624D01*
X-58272Y498679D01*
X-58391Y498737D01*
X-58509Y498799D01*
X-58624Y498864D01*
X-58738Y498933D01*
X-58849Y499004D01*
X-58958Y499080D01*
X-59065Y499158D01*
X-59170Y499239D01*
X-59272Y499324D01*
X-59372Y499411D01*
X-59469Y499501D01*
X-59564Y499594D01*
X-59655Y499690D01*
X-59744Y499788D01*
X-59830Y499889D01*
X-59913Y499993D01*
X-59993Y500099D01*
X-60069Y500207D01*
X-60143Y500317D01*
X-60213Y500430D01*
X-60280Y500544D01*
X-60343Y500661D01*
X-60403Y500779D01*
X-60460Y500899D01*
X-60513Y501021D01*
X-60562Y501144D01*
X-60608Y501268D01*
X-60650Y501394D01*
X-60688Y501521D01*
X-60723Y501649D01*
X-60754Y501778D01*
X-60781Y501907D01*
X-60804Y502038D01*
X-60824Y502169D01*
X-60839Y502301D01*
X-60851Y502433D01*
X-60859Y502565D01*
X-60863Y502698D01*
X-60863Y502830D01*
X-60859Y502963D01*
X-60851Y503095D01*
X-60839Y503227D01*
X-60824Y503359D01*
X-60804Y503490D01*
X-60781Y503621D01*
X-60754Y503750D01*
X-60723Y503879D01*
X-60688Y504007D01*
X-60650Y504134D01*
X-60608Y504260D01*
X-60562Y504384D01*
X-60513Y504507D01*
X-60460Y504629D01*
X-60403Y504749D01*
X-60343Y504867D01*
X-60280Y504984D01*
X-60213Y505098D01*
X-60143Y505211D01*
X-60069Y505321D01*
X-59993Y505429D01*
X-59913Y505535D01*
X-59830Y505639D01*
X-59744Y505740D01*
X-59655Y505838D01*
X-59564Y505934D01*
X-59469Y506027D01*
X-59372Y506117D01*
X-59272Y506204D01*
X-59170Y506289D01*
X-59065Y506370D01*
X-58958Y506448D01*
X-58849Y506524D01*
X-58738Y506595D01*
X-58624Y506664D01*
X-58509Y506729D01*
X-58391Y506791D01*
X-58272Y506849D01*
X-58151Y506904D01*
X-58029Y506955D01*
X-57905Y507003D01*
X-57780Y507047D01*
X-57654Y507087D01*
X-57526Y507123D01*
X-57398Y507156D01*
X-57269Y507185D01*
X-57138Y507210D01*
X-57008Y507231D01*
X-56876Y507249D01*
X-56744Y507262D01*
X-56612Y507272D01*
X-56480Y507278D01*
X-56347Y507280D01*
X-56347Y507279D02*
X-51832Y507279D01*
X-51657Y507277D01*
X-51483Y507271D01*
X-51309Y507260D01*
X-51135Y507245D01*
X-50961Y507226D01*
X-50788Y507203D01*
X-50616Y507176D01*
X-50444Y507144D01*
X-50273Y507109D01*
X-50103Y507069D01*
X-49934Y507025D01*
X-49766Y506977D01*
X-49599Y506925D01*
X-49434Y506869D01*
X-49270Y506809D01*
X-49107Y506746D01*
X-48947Y506678D01*
X-48787Y506606D01*
X-48630Y506531D01*
X-48474Y506451D01*
X-48321Y506368D01*
X-48169Y506282D01*
X-48020Y506191D01*
X-47873Y506097D01*
X-47728Y506000D01*
X-47585Y505899D01*
X-47445Y505795D01*
X-47308Y505687D01*
X-47173Y505576D01*
X-47041Y505462D01*
X-46912Y505345D01*
X-46785Y505224D01*
X-46662Y505101D01*
X-46541Y504974D01*
X-46424Y504845D01*
X-46310Y504713D01*
X-46199Y504578D01*
X-46091Y504441D01*
X-45987Y504301D01*
X-45886Y504158D01*
X-45789Y504013D01*
X-45695Y503866D01*
X-45604Y503717D01*
X-45518Y503565D01*
X-45435Y503412D01*
X-45355Y503256D01*
X-45280Y503099D01*
X-45208Y502939D01*
X-45140Y502779D01*
X-45077Y502616D01*
X-45017Y502452D01*
X-44961Y502287D01*
X-44909Y502120D01*
X-44861Y501952D01*
X-44817Y501783D01*
X-44777Y501613D01*
X-44742Y501442D01*
X-44710Y501270D01*
X-44683Y501098D01*
X-44660Y500925D01*
X-44641Y500751D01*
X-44626Y500577D01*
X-44615Y500403D01*
X-44609Y500229D01*
X-44607Y500054D01*
D10*
X0Y-12700D02*
X0Y-57600D01*
X977900Y-57600D02*
X977900Y-12700D01*
X977250Y-38100D02*
X650Y-38100D01*
X26000Y-34908D01*
X26000Y-41292D01*
X650Y-38100D01*
X26000Y-36800D01*
X26000Y-39400D02*
X650Y-38100D01*
X26000Y-35500D01*
X26000Y-40700D02*
X650Y-38100D01*
X951900Y-34908D02*
X977250Y-38100D01*
X951900Y-34908D02*
X951900Y-41292D01*
X977250Y-38100D01*
X951900Y-36800D01*
X951900Y-39400D02*
X977250Y-38100D01*
X951900Y-35500D01*
X951900Y-40700D02*
X977250Y-38100D01*
D11*
X466833Y-24368D02*
X461414Y-24368D01*
X461296Y-24366D01*
X461178Y-24360D01*
X461060Y-24351D01*
X460943Y-24337D01*
X460826Y-24320D01*
X460709Y-24299D01*
X460594Y-24274D01*
X460479Y-24245D01*
X460365Y-24212D01*
X460253Y-24176D01*
X460142Y-24136D01*
X460032Y-24093D01*
X459923Y-24046D01*
X459816Y-23996D01*
X459711Y-23941D01*
X459608Y-23884D01*
X459507Y-23823D01*
X459407Y-23759D01*
X459310Y-23692D01*
X459215Y-23622D01*
X459123Y-23548D01*
X459032Y-23472D01*
X458945Y-23392D01*
X458860Y-23310D01*
X458778Y-23225D01*
X458698Y-23138D01*
X458622Y-23047D01*
X458548Y-22955D01*
X458478Y-22860D01*
X458411Y-22763D01*
X458347Y-22663D01*
X458286Y-22562D01*
X458229Y-22459D01*
X458174Y-22354D01*
X458124Y-22247D01*
X458077Y-22138D01*
X458034Y-22028D01*
X457994Y-21917D01*
X457958Y-21805D01*
X457925Y-21691D01*
X457896Y-21576D01*
X457871Y-21461D01*
X457850Y-21344D01*
X457833Y-21227D01*
X457819Y-21110D01*
X457810Y-20992D01*
X457804Y-20874D01*
X457802Y-20756D01*
X457802Y-19853D01*
X457804Y-19720D01*
X457810Y-19588D01*
X457820Y-19456D01*
X457833Y-19324D01*
X457851Y-19192D01*
X457872Y-19062D01*
X457897Y-18931D01*
X457926Y-18802D01*
X457959Y-18674D01*
X457995Y-18546D01*
X458035Y-18420D01*
X458079Y-18295D01*
X458127Y-18171D01*
X458178Y-18049D01*
X458233Y-17928D01*
X458291Y-17809D01*
X458353Y-17691D01*
X458418Y-17576D01*
X458487Y-17462D01*
X458558Y-17351D01*
X458634Y-17242D01*
X458712Y-17135D01*
X458793Y-17030D01*
X458878Y-16928D01*
X458965Y-16828D01*
X459055Y-16731D01*
X459148Y-16636D01*
X459244Y-16545D01*
X459342Y-16456D01*
X459443Y-16370D01*
X459547Y-16287D01*
X459653Y-16207D01*
X459761Y-16131D01*
X459871Y-16057D01*
X459984Y-15987D01*
X460098Y-15920D01*
X460215Y-15857D01*
X460333Y-15797D01*
X460453Y-15740D01*
X460575Y-15687D01*
X460698Y-15638D01*
X460822Y-15592D01*
X460948Y-15550D01*
X461075Y-15512D01*
X461203Y-15477D01*
X461332Y-15446D01*
X461461Y-15419D01*
X461592Y-15396D01*
X461723Y-15376D01*
X461855Y-15361D01*
X461987Y-15349D01*
X462119Y-15341D01*
X462252Y-15337D01*
X462384Y-15337D01*
X462517Y-15341D01*
X462649Y-15349D01*
X462781Y-15361D01*
X462913Y-15376D01*
X463044Y-15396D01*
X463175Y-15419D01*
X463304Y-15446D01*
X463433Y-15477D01*
X463561Y-15512D01*
X463688Y-15550D01*
X463814Y-15592D01*
X463938Y-15638D01*
X464061Y-15687D01*
X464183Y-15740D01*
X464303Y-15797D01*
X464421Y-15857D01*
X464538Y-15920D01*
X464652Y-15987D01*
X464765Y-16057D01*
X464875Y-16131D01*
X464983Y-16207D01*
X465089Y-16287D01*
X465193Y-16370D01*
X465294Y-16456D01*
X465392Y-16545D01*
X465488Y-16636D01*
X465581Y-16731D01*
X465671Y-16828D01*
X465758Y-16928D01*
X465843Y-17030D01*
X465924Y-17135D01*
X466002Y-17242D01*
X466078Y-17351D01*
X466149Y-17462D01*
X466218Y-17576D01*
X466283Y-17691D01*
X466345Y-17809D01*
X466403Y-17928D01*
X466458Y-18049D01*
X466509Y-18171D01*
X466557Y-18295D01*
X466601Y-18420D01*
X466641Y-18546D01*
X466677Y-18674D01*
X466710Y-18802D01*
X466739Y-18931D01*
X466764Y-19062D01*
X466785Y-19192D01*
X466803Y-19324D01*
X466816Y-19456D01*
X466826Y-19588D01*
X466832Y-19720D01*
X466834Y-19853D01*
X466833Y-19853D02*
X466833Y-24368D01*
X466831Y-24543D01*
X466825Y-24717D01*
X466814Y-24891D01*
X466799Y-25065D01*
X466780Y-25239D01*
X466757Y-25412D01*
X466730Y-25584D01*
X466698Y-25756D01*
X466663Y-25927D01*
X466623Y-26097D01*
X466579Y-26266D01*
X466531Y-26434D01*
X466479Y-26601D01*
X466423Y-26766D01*
X466363Y-26930D01*
X466300Y-27093D01*
X466232Y-27253D01*
X466160Y-27413D01*
X466085Y-27570D01*
X466005Y-27726D01*
X465922Y-27879D01*
X465836Y-28031D01*
X465745Y-28180D01*
X465651Y-28327D01*
X465554Y-28472D01*
X465453Y-28615D01*
X465349Y-28755D01*
X465241Y-28892D01*
X465130Y-29027D01*
X465016Y-29159D01*
X464899Y-29288D01*
X464778Y-29415D01*
X464655Y-29538D01*
X464528Y-29659D01*
X464399Y-29776D01*
X464267Y-29890D01*
X464132Y-30001D01*
X463995Y-30109D01*
X463855Y-30213D01*
X463712Y-30314D01*
X463567Y-30411D01*
X463420Y-30505D01*
X463271Y-30596D01*
X463119Y-30682D01*
X462966Y-30765D01*
X462810Y-30845D01*
X462653Y-30920D01*
X462493Y-30992D01*
X462333Y-31060D01*
X462170Y-31123D01*
X462006Y-31183D01*
X461841Y-31239D01*
X461674Y-31291D01*
X461506Y-31339D01*
X461337Y-31383D01*
X461167Y-31423D01*
X460996Y-31458D01*
X460824Y-31490D01*
X460652Y-31517D01*
X460479Y-31540D01*
X460305Y-31559D01*
X460131Y-31574D01*
X459957Y-31585D01*
X459783Y-31591D01*
X459608Y-31593D01*
X473433Y-17143D02*
X473433Y-15337D01*
X482464Y-15337D01*
X477949Y-31593D01*
X488439Y-31593D02*
X488439Y-30690D01*
X489342Y-30690D01*
X489342Y-31593D01*
X488439Y-31593D01*
X495317Y-17143D02*
X495317Y-15337D01*
X504348Y-15337D01*
X499832Y-31593D01*
X514561Y-24368D02*
X519979Y-24368D01*
X514561Y-24368D02*
X514443Y-24366D01*
X514325Y-24360D01*
X514207Y-24351D01*
X514090Y-24337D01*
X513973Y-24320D01*
X513856Y-24299D01*
X513741Y-24274D01*
X513626Y-24245D01*
X513512Y-24212D01*
X513400Y-24176D01*
X513289Y-24136D01*
X513179Y-24093D01*
X513070Y-24046D01*
X512963Y-23996D01*
X512858Y-23941D01*
X512755Y-23884D01*
X512654Y-23823D01*
X512554Y-23759D01*
X512457Y-23692D01*
X512362Y-23622D01*
X512270Y-23548D01*
X512179Y-23472D01*
X512092Y-23392D01*
X512007Y-23310D01*
X511925Y-23225D01*
X511845Y-23138D01*
X511769Y-23047D01*
X511695Y-22955D01*
X511625Y-22860D01*
X511558Y-22763D01*
X511494Y-22663D01*
X511433Y-22562D01*
X511376Y-22459D01*
X511321Y-22354D01*
X511271Y-22247D01*
X511224Y-22138D01*
X511181Y-22028D01*
X511141Y-21917D01*
X511105Y-21805D01*
X511072Y-21691D01*
X511043Y-21576D01*
X511018Y-21461D01*
X510997Y-21344D01*
X510980Y-21227D01*
X510966Y-21110D01*
X510957Y-20992D01*
X510951Y-20874D01*
X510949Y-20756D01*
X510948Y-20756D02*
X510948Y-19853D01*
X510950Y-19720D01*
X510956Y-19588D01*
X510966Y-19456D01*
X510979Y-19324D01*
X510997Y-19192D01*
X511018Y-19062D01*
X511043Y-18931D01*
X511072Y-18802D01*
X511105Y-18674D01*
X511141Y-18546D01*
X511181Y-18420D01*
X511225Y-18295D01*
X511273Y-18171D01*
X511324Y-18049D01*
X511379Y-17928D01*
X511437Y-17809D01*
X511499Y-17691D01*
X511564Y-17576D01*
X511633Y-17462D01*
X511704Y-17351D01*
X511780Y-17242D01*
X511858Y-17135D01*
X511939Y-17030D01*
X512024Y-16928D01*
X512111Y-16828D01*
X512201Y-16731D01*
X512294Y-16636D01*
X512390Y-16545D01*
X512488Y-16456D01*
X512589Y-16370D01*
X512693Y-16287D01*
X512799Y-16207D01*
X512907Y-16131D01*
X513017Y-16057D01*
X513130Y-15987D01*
X513244Y-15920D01*
X513361Y-15857D01*
X513479Y-15797D01*
X513599Y-15740D01*
X513721Y-15687D01*
X513844Y-15638D01*
X513968Y-15592D01*
X514094Y-15550D01*
X514221Y-15512D01*
X514349Y-15477D01*
X514478Y-15446D01*
X514607Y-15419D01*
X514738Y-15396D01*
X514869Y-15376D01*
X515001Y-15361D01*
X515133Y-15349D01*
X515265Y-15341D01*
X515398Y-15337D01*
X515530Y-15337D01*
X515663Y-15341D01*
X515795Y-15349D01*
X515927Y-15361D01*
X516059Y-15376D01*
X516190Y-15396D01*
X516321Y-15419D01*
X516450Y-15446D01*
X516579Y-15477D01*
X516707Y-15512D01*
X516834Y-15550D01*
X516960Y-15592D01*
X517084Y-15638D01*
X517207Y-15687D01*
X517329Y-15740D01*
X517449Y-15797D01*
X517567Y-15857D01*
X517684Y-15920D01*
X517798Y-15987D01*
X517911Y-16057D01*
X518021Y-16131D01*
X518129Y-16207D01*
X518235Y-16287D01*
X518339Y-16370D01*
X518440Y-16456D01*
X518538Y-16545D01*
X518634Y-16636D01*
X518727Y-16731D01*
X518817Y-16828D01*
X518904Y-16928D01*
X518989Y-17030D01*
X519070Y-17135D01*
X519148Y-17242D01*
X519224Y-17351D01*
X519295Y-17462D01*
X519364Y-17576D01*
X519429Y-17691D01*
X519491Y-17809D01*
X519549Y-17928D01*
X519604Y-18049D01*
X519655Y-18171D01*
X519703Y-18295D01*
X519747Y-18420D01*
X519787Y-18546D01*
X519823Y-18674D01*
X519856Y-18802D01*
X519885Y-18931D01*
X519910Y-19062D01*
X519931Y-19192D01*
X519949Y-19324D01*
X519962Y-19456D01*
X519972Y-19588D01*
X519978Y-19720D01*
X519980Y-19853D01*
X519979Y-19853D02*
X519979Y-24368D01*
X519977Y-24543D01*
X519971Y-24717D01*
X519960Y-24891D01*
X519945Y-25065D01*
X519926Y-25239D01*
X519903Y-25412D01*
X519876Y-25584D01*
X519844Y-25756D01*
X519809Y-25927D01*
X519769Y-26097D01*
X519725Y-26266D01*
X519677Y-26434D01*
X519625Y-26601D01*
X519569Y-26766D01*
X519509Y-26930D01*
X519446Y-27093D01*
X519378Y-27253D01*
X519306Y-27413D01*
X519231Y-27570D01*
X519151Y-27726D01*
X519068Y-27879D01*
X518982Y-28031D01*
X518891Y-28180D01*
X518797Y-28327D01*
X518700Y-28472D01*
X518599Y-28615D01*
X518495Y-28755D01*
X518387Y-28892D01*
X518276Y-29027D01*
X518162Y-29159D01*
X518045Y-29288D01*
X517924Y-29415D01*
X517801Y-29538D01*
X517674Y-29659D01*
X517545Y-29776D01*
X517413Y-29890D01*
X517278Y-30001D01*
X517141Y-30109D01*
X517001Y-30213D01*
X516858Y-30314D01*
X516713Y-30411D01*
X516566Y-30505D01*
X516417Y-30596D01*
X516265Y-30682D01*
X516112Y-30765D01*
X515956Y-30845D01*
X515799Y-30920D01*
X515639Y-30992D01*
X515479Y-31060D01*
X515316Y-31123D01*
X515152Y-31183D01*
X514987Y-31239D01*
X514820Y-31291D01*
X514652Y-31339D01*
X514483Y-31383D01*
X514313Y-31423D01*
X514142Y-31458D01*
X513970Y-31490D01*
X513798Y-31517D01*
X513625Y-31540D01*
X513451Y-31559D01*
X513277Y-31574D01*
X513103Y-31585D01*
X512929Y-31591D01*
X512754Y-31593D01*
D10*
X0Y-12700D02*
X0Y-95700D01*
X495300Y-95700D02*
X495300Y-12700D01*
X494650Y-76200D02*
X650Y-76200D01*
X26000Y-73008D01*
X26000Y-79392D01*
X650Y-76200D01*
X26000Y-74900D01*
X26000Y-77500D02*
X650Y-76200D01*
X26000Y-73600D01*
X26000Y-78800D02*
X650Y-76200D01*
X469300Y-73008D02*
X494650Y-76200D01*
X469300Y-73008D02*
X469300Y-79392D01*
X494650Y-76200D01*
X469300Y-74900D01*
X469300Y-77500D02*
X494650Y-76200D01*
X469300Y-73600D01*
X469300Y-78800D02*
X494650Y-76200D01*
D11*
X220114Y-53437D02*
X216502Y-66081D01*
X225533Y-66081D01*
X222824Y-62468D02*
X222824Y-69693D01*
X235746Y-62468D02*
X241164Y-62468D01*
X235746Y-62468D02*
X235628Y-62466D01*
X235510Y-62460D01*
X235392Y-62451D01*
X235275Y-62437D01*
X235158Y-62420D01*
X235041Y-62399D01*
X234926Y-62374D01*
X234811Y-62345D01*
X234697Y-62312D01*
X234585Y-62276D01*
X234474Y-62236D01*
X234364Y-62193D01*
X234255Y-62146D01*
X234148Y-62096D01*
X234043Y-62041D01*
X233940Y-61984D01*
X233839Y-61923D01*
X233739Y-61859D01*
X233642Y-61792D01*
X233547Y-61722D01*
X233455Y-61648D01*
X233364Y-61572D01*
X233277Y-61492D01*
X233192Y-61410D01*
X233110Y-61325D01*
X233030Y-61238D01*
X232954Y-61147D01*
X232880Y-61055D01*
X232810Y-60960D01*
X232743Y-60863D01*
X232679Y-60763D01*
X232618Y-60662D01*
X232561Y-60559D01*
X232506Y-60454D01*
X232456Y-60347D01*
X232409Y-60238D01*
X232366Y-60128D01*
X232326Y-60017D01*
X232290Y-59905D01*
X232257Y-59791D01*
X232228Y-59676D01*
X232203Y-59561D01*
X232182Y-59444D01*
X232165Y-59327D01*
X232151Y-59210D01*
X232142Y-59092D01*
X232136Y-58974D01*
X232134Y-58856D01*
X232133Y-58856D02*
X232133Y-57953D01*
X232135Y-57820D01*
X232141Y-57688D01*
X232151Y-57556D01*
X232164Y-57424D01*
X232182Y-57292D01*
X232203Y-57162D01*
X232228Y-57031D01*
X232257Y-56902D01*
X232290Y-56774D01*
X232326Y-56646D01*
X232366Y-56520D01*
X232410Y-56395D01*
X232458Y-56271D01*
X232509Y-56149D01*
X232564Y-56028D01*
X232622Y-55909D01*
X232684Y-55791D01*
X232749Y-55676D01*
X232818Y-55562D01*
X232889Y-55451D01*
X232965Y-55342D01*
X233043Y-55235D01*
X233124Y-55130D01*
X233209Y-55028D01*
X233296Y-54928D01*
X233386Y-54831D01*
X233479Y-54736D01*
X233575Y-54645D01*
X233673Y-54556D01*
X233774Y-54470D01*
X233878Y-54387D01*
X233984Y-54307D01*
X234092Y-54231D01*
X234202Y-54157D01*
X234315Y-54087D01*
X234429Y-54020D01*
X234546Y-53957D01*
X234664Y-53897D01*
X234784Y-53840D01*
X234906Y-53787D01*
X235029Y-53738D01*
X235153Y-53692D01*
X235279Y-53650D01*
X235406Y-53612D01*
X235534Y-53577D01*
X235663Y-53546D01*
X235792Y-53519D01*
X235923Y-53496D01*
X236054Y-53476D01*
X236186Y-53461D01*
X236318Y-53449D01*
X236450Y-53441D01*
X236583Y-53437D01*
X236715Y-53437D01*
X236848Y-53441D01*
X236980Y-53449D01*
X237112Y-53461D01*
X237244Y-53476D01*
X237375Y-53496D01*
X237506Y-53519D01*
X237635Y-53546D01*
X237764Y-53577D01*
X237892Y-53612D01*
X238019Y-53650D01*
X238145Y-53692D01*
X238269Y-53738D01*
X238392Y-53787D01*
X238514Y-53840D01*
X238634Y-53897D01*
X238752Y-53957D01*
X238869Y-54020D01*
X238983Y-54087D01*
X239096Y-54157D01*
X239206Y-54231D01*
X239314Y-54307D01*
X239420Y-54387D01*
X239524Y-54470D01*
X239625Y-54556D01*
X239723Y-54645D01*
X239819Y-54736D01*
X239912Y-54831D01*
X240002Y-54928D01*
X240089Y-55028D01*
X240174Y-55130D01*
X240255Y-55235D01*
X240333Y-55342D01*
X240409Y-55451D01*
X240480Y-55562D01*
X240549Y-55676D01*
X240614Y-55791D01*
X240676Y-55909D01*
X240734Y-56028D01*
X240789Y-56149D01*
X240840Y-56271D01*
X240888Y-56395D01*
X240932Y-56520D01*
X240972Y-56646D01*
X241008Y-56774D01*
X241041Y-56902D01*
X241070Y-57031D01*
X241095Y-57162D01*
X241116Y-57292D01*
X241134Y-57424D01*
X241147Y-57556D01*
X241157Y-57688D01*
X241163Y-57820D01*
X241165Y-57953D01*
X241164Y-57953D02*
X241164Y-62468D01*
X241162Y-62643D01*
X241156Y-62817D01*
X241145Y-62991D01*
X241130Y-63165D01*
X241111Y-63339D01*
X241088Y-63512D01*
X241061Y-63684D01*
X241029Y-63856D01*
X240994Y-64027D01*
X240954Y-64197D01*
X240910Y-64366D01*
X240862Y-64534D01*
X240810Y-64701D01*
X240754Y-64866D01*
X240694Y-65030D01*
X240631Y-65193D01*
X240563Y-65353D01*
X240491Y-65513D01*
X240416Y-65670D01*
X240336Y-65826D01*
X240253Y-65979D01*
X240167Y-66131D01*
X240076Y-66280D01*
X239982Y-66427D01*
X239885Y-66572D01*
X239784Y-66715D01*
X239680Y-66855D01*
X239572Y-66992D01*
X239461Y-67127D01*
X239347Y-67259D01*
X239230Y-67388D01*
X239109Y-67515D01*
X238986Y-67638D01*
X238859Y-67759D01*
X238730Y-67876D01*
X238598Y-67990D01*
X238463Y-68101D01*
X238326Y-68209D01*
X238186Y-68313D01*
X238043Y-68414D01*
X237898Y-68511D01*
X237751Y-68605D01*
X237602Y-68696D01*
X237450Y-68782D01*
X237297Y-68865D01*
X237141Y-68945D01*
X236984Y-69020D01*
X236824Y-69092D01*
X236664Y-69160D01*
X236501Y-69223D01*
X236337Y-69283D01*
X236172Y-69339D01*
X236005Y-69391D01*
X235837Y-69439D01*
X235668Y-69483D01*
X235498Y-69523D01*
X235327Y-69558D01*
X235155Y-69590D01*
X234983Y-69617D01*
X234810Y-69640D01*
X234636Y-69659D01*
X234462Y-69674D01*
X234288Y-69685D01*
X234114Y-69691D01*
X233939Y-69693D01*
X247139Y-69693D02*
X247139Y-68790D01*
X248042Y-68790D01*
X248042Y-69693D01*
X247139Y-69693D01*
X254017Y-69693D02*
X259436Y-69693D01*
X259554Y-69691D01*
X259672Y-69685D01*
X259790Y-69676D01*
X259907Y-69662D01*
X260024Y-69645D01*
X260141Y-69624D01*
X260256Y-69599D01*
X260371Y-69570D01*
X260485Y-69537D01*
X260597Y-69501D01*
X260708Y-69461D01*
X260818Y-69418D01*
X260927Y-69371D01*
X261034Y-69321D01*
X261139Y-69266D01*
X261242Y-69209D01*
X261343Y-69148D01*
X261443Y-69084D01*
X261540Y-69017D01*
X261635Y-68947D01*
X261727Y-68873D01*
X261818Y-68797D01*
X261905Y-68717D01*
X261990Y-68635D01*
X262072Y-68550D01*
X262152Y-68463D01*
X262228Y-68372D01*
X262302Y-68280D01*
X262372Y-68185D01*
X262439Y-68088D01*
X262503Y-67988D01*
X262564Y-67887D01*
X262621Y-67784D01*
X262676Y-67679D01*
X262726Y-67572D01*
X262773Y-67463D01*
X262816Y-67353D01*
X262856Y-67242D01*
X262892Y-67130D01*
X262925Y-67016D01*
X262954Y-66901D01*
X262979Y-66786D01*
X263000Y-66669D01*
X263017Y-66552D01*
X263031Y-66435D01*
X263040Y-66317D01*
X263046Y-66199D01*
X263048Y-66081D01*
X263048Y-64274D01*
X263046Y-64156D01*
X263040Y-64038D01*
X263031Y-63920D01*
X263017Y-63803D01*
X263000Y-63686D01*
X262979Y-63569D01*
X262954Y-63454D01*
X262925Y-63339D01*
X262892Y-63225D01*
X262856Y-63113D01*
X262816Y-63002D01*
X262773Y-62892D01*
X262726Y-62783D01*
X262676Y-62676D01*
X262621Y-62571D01*
X262564Y-62468D01*
X262503Y-62367D01*
X262439Y-62267D01*
X262372Y-62170D01*
X262302Y-62075D01*
X262228Y-61983D01*
X262152Y-61892D01*
X262072Y-61805D01*
X261990Y-61720D01*
X261905Y-61638D01*
X261818Y-61558D01*
X261727Y-61482D01*
X261635Y-61408D01*
X261540Y-61338D01*
X261443Y-61271D01*
X261343Y-61207D01*
X261242Y-61146D01*
X261139Y-61089D01*
X261034Y-61034D01*
X260927Y-60984D01*
X260818Y-60937D01*
X260708Y-60894D01*
X260597Y-60854D01*
X260485Y-60818D01*
X260371Y-60785D01*
X260256Y-60756D01*
X260141Y-60731D01*
X260024Y-60710D01*
X259907Y-60693D01*
X259790Y-60679D01*
X259672Y-60670D01*
X259554Y-60664D01*
X259436Y-60662D01*
X254017Y-60662D01*
X254017Y-53437D01*
X263048Y-53437D01*
X269648Y-69693D02*
X274164Y-69693D01*
X274297Y-69691D01*
X274429Y-69685D01*
X274561Y-69675D01*
X274693Y-69662D01*
X274825Y-69644D01*
X274955Y-69623D01*
X275086Y-69598D01*
X275215Y-69569D01*
X275343Y-69536D01*
X275471Y-69500D01*
X275597Y-69460D01*
X275722Y-69416D01*
X275846Y-69368D01*
X275968Y-69317D01*
X276089Y-69262D01*
X276208Y-69204D01*
X276326Y-69142D01*
X276441Y-69077D01*
X276555Y-69008D01*
X276666Y-68937D01*
X276775Y-68861D01*
X276882Y-68783D01*
X276987Y-68702D01*
X277089Y-68617D01*
X277189Y-68530D01*
X277286Y-68440D01*
X277381Y-68347D01*
X277472Y-68251D01*
X277561Y-68153D01*
X277647Y-68052D01*
X277730Y-67948D01*
X277810Y-67842D01*
X277886Y-67734D01*
X277960Y-67624D01*
X278030Y-67511D01*
X278097Y-67397D01*
X278160Y-67280D01*
X278220Y-67162D01*
X278277Y-67042D01*
X278330Y-66920D01*
X278379Y-66797D01*
X278425Y-66673D01*
X278467Y-66547D01*
X278505Y-66420D01*
X278540Y-66292D01*
X278571Y-66163D01*
X278598Y-66034D01*
X278621Y-65903D01*
X278641Y-65772D01*
X278656Y-65640D01*
X278668Y-65508D01*
X278676Y-65376D01*
X278680Y-65243D01*
X278680Y-65111D01*
X278676Y-64978D01*
X278668Y-64846D01*
X278656Y-64714D01*
X278641Y-64582D01*
X278621Y-64451D01*
X278598Y-64320D01*
X278571Y-64191D01*
X278540Y-64062D01*
X278505Y-63934D01*
X278467Y-63807D01*
X278425Y-63681D01*
X278379Y-63557D01*
X278330Y-63434D01*
X278277Y-63312D01*
X278220Y-63192D01*
X278160Y-63074D01*
X278097Y-62957D01*
X278030Y-62843D01*
X277960Y-62730D01*
X277886Y-62620D01*
X277810Y-62512D01*
X277730Y-62406D01*
X277647Y-62302D01*
X277561Y-62201D01*
X277472Y-62103D01*
X277381Y-62007D01*
X277286Y-61914D01*
X277189Y-61824D01*
X277089Y-61737D01*
X276987Y-61652D01*
X276882Y-61571D01*
X276775Y-61493D01*
X276666Y-61417D01*
X276555Y-61346D01*
X276441Y-61277D01*
X276326Y-61212D01*
X276208Y-61150D01*
X276089Y-61092D01*
X275968Y-61037D01*
X275846Y-60986D01*
X275722Y-60938D01*
X275597Y-60894D01*
X275471Y-60854D01*
X275343Y-60818D01*
X275215Y-60785D01*
X275086Y-60756D01*
X274955Y-60731D01*
X274825Y-60710D01*
X274693Y-60692D01*
X274561Y-60679D01*
X274429Y-60669D01*
X274297Y-60663D01*
X274164Y-60661D01*
X275067Y-53437D02*
X269648Y-53437D01*
X275067Y-53437D02*
X275186Y-53439D01*
X275306Y-53445D01*
X275425Y-53455D01*
X275543Y-53469D01*
X275662Y-53486D01*
X275779Y-53508D01*
X275896Y-53533D01*
X276011Y-53563D01*
X276126Y-53596D01*
X276240Y-53633D01*
X276352Y-53673D01*
X276463Y-53718D01*
X276572Y-53766D01*
X276680Y-53817D01*
X276786Y-53872D01*
X276890Y-53931D01*
X276992Y-53993D01*
X277092Y-54058D01*
X277190Y-54127D01*
X277286Y-54199D01*
X277379Y-54274D01*
X277469Y-54351D01*
X277557Y-54432D01*
X277642Y-54516D01*
X277724Y-54603D01*
X277804Y-54692D01*
X277880Y-54784D01*
X277954Y-54878D01*
X278024Y-54975D01*
X278091Y-55073D01*
X278155Y-55174D01*
X278215Y-55278D01*
X278272Y-55383D01*
X278325Y-55490D01*
X278375Y-55598D01*
X278421Y-55708D01*
X278463Y-55820D01*
X278502Y-55933D01*
X278537Y-56047D01*
X278568Y-56162D01*
X278596Y-56279D01*
X278619Y-56396D01*
X278639Y-56513D01*
X278655Y-56632D01*
X278667Y-56751D01*
X278675Y-56870D01*
X278679Y-56989D01*
X278679Y-57109D01*
X278675Y-57228D01*
X278667Y-57347D01*
X278655Y-57466D01*
X278639Y-57585D01*
X278619Y-57702D01*
X278596Y-57819D01*
X278568Y-57936D01*
X278537Y-58051D01*
X278502Y-58165D01*
X278463Y-58278D01*
X278421Y-58390D01*
X278375Y-58500D01*
X278325Y-58608D01*
X278272Y-58715D01*
X278215Y-58820D01*
X278155Y-58924D01*
X278091Y-59025D01*
X278024Y-59123D01*
X277954Y-59220D01*
X277880Y-59314D01*
X277804Y-59406D01*
X277724Y-59495D01*
X277642Y-59582D01*
X277557Y-59666D01*
X277469Y-59747D01*
X277379Y-59824D01*
X277286Y-59899D01*
X277190Y-59971D01*
X277092Y-60040D01*
X276992Y-60105D01*
X276890Y-60167D01*
X276786Y-60226D01*
X276680Y-60281D01*
X276572Y-60332D01*
X276463Y-60380D01*
X276352Y-60425D01*
X276240Y-60465D01*
X276126Y-60502D01*
X276011Y-60535D01*
X275896Y-60565D01*
X275779Y-60590D01*
X275662Y-60612D01*
X275543Y-60629D01*
X275425Y-60643D01*
X275306Y-60653D01*
X275186Y-60659D01*
X275067Y-60661D01*
X275067Y-60662D02*
X271454Y-60662D01*
D10*
X0Y-12700D02*
X-32200Y-12700D01*
X-32200Y469900D02*
X0Y469900D01*
X-12700Y469250D02*
X-12700Y-12050D01*
X-15892Y13300D01*
X-9508Y13300D01*
X-12700Y-12050D01*
X-14000Y13300D01*
X-11400Y13300D02*
X-12700Y-12050D01*
X-15300Y13300D01*
X-10100Y13300D02*
X-12700Y-12050D01*
X-15892Y443900D02*
X-12700Y469250D01*
X-15892Y443900D02*
X-9508Y443900D01*
X-12700Y469250D01*
X-14000Y443900D01*
X-11400Y443900D02*
X-12700Y469250D01*
X-15300Y443900D01*
X-10100Y443900D02*
X-12700Y469250D01*
D11*
X-35463Y201064D02*
X-22819Y197452D01*
X-22819Y206483D01*
X-26432Y203774D02*
X-19207Y203774D01*
X-23723Y213083D02*
X-23856Y213085D01*
X-23988Y213091D01*
X-24120Y213101D01*
X-24252Y213114D01*
X-24384Y213132D01*
X-24514Y213153D01*
X-24645Y213178D01*
X-24774Y213207D01*
X-24902Y213240D01*
X-25030Y213276D01*
X-25156Y213316D01*
X-25281Y213360D01*
X-25405Y213408D01*
X-25527Y213459D01*
X-25648Y213514D01*
X-25767Y213572D01*
X-25885Y213634D01*
X-26000Y213699D01*
X-26114Y213768D01*
X-26225Y213839D01*
X-26334Y213915D01*
X-26441Y213993D01*
X-26546Y214074D01*
X-26648Y214159D01*
X-26748Y214246D01*
X-26845Y214336D01*
X-26940Y214429D01*
X-27031Y214525D01*
X-27120Y214623D01*
X-27206Y214724D01*
X-27289Y214828D01*
X-27369Y214934D01*
X-27445Y215042D01*
X-27519Y215152D01*
X-27589Y215265D01*
X-27656Y215379D01*
X-27719Y215496D01*
X-27779Y215614D01*
X-27836Y215734D01*
X-27889Y215856D01*
X-27938Y215979D01*
X-27984Y216103D01*
X-28026Y216229D01*
X-28064Y216356D01*
X-28099Y216484D01*
X-28130Y216613D01*
X-28157Y216742D01*
X-28180Y216873D01*
X-28200Y217004D01*
X-28215Y217136D01*
X-28227Y217268D01*
X-28235Y217400D01*
X-28239Y217533D01*
X-28239Y217665D01*
X-28235Y217798D01*
X-28227Y217930D01*
X-28215Y218062D01*
X-28200Y218194D01*
X-28180Y218325D01*
X-28157Y218456D01*
X-28130Y218585D01*
X-28099Y218714D01*
X-28064Y218842D01*
X-28026Y218969D01*
X-27984Y219095D01*
X-27938Y219219D01*
X-27889Y219342D01*
X-27836Y219464D01*
X-27779Y219584D01*
X-27719Y219702D01*
X-27656Y219819D01*
X-27589Y219933D01*
X-27519Y220046D01*
X-27445Y220156D01*
X-27369Y220264D01*
X-27289Y220370D01*
X-27206Y220474D01*
X-27120Y220575D01*
X-27031Y220673D01*
X-26940Y220769D01*
X-26845Y220862D01*
X-26748Y220952D01*
X-26648Y221039D01*
X-26546Y221124D01*
X-26441Y221205D01*
X-26334Y221283D01*
X-26225Y221359D01*
X-26114Y221430D01*
X-26000Y221499D01*
X-25885Y221564D01*
X-25767Y221626D01*
X-25648Y221684D01*
X-25527Y221739D01*
X-25405Y221790D01*
X-25281Y221838D01*
X-25156Y221882D01*
X-25030Y221922D01*
X-24902Y221958D01*
X-24774Y221991D01*
X-24645Y222020D01*
X-24514Y222045D01*
X-24384Y222066D01*
X-24252Y222084D01*
X-24120Y222097D01*
X-23988Y222107D01*
X-23856Y222113D01*
X-23723Y222115D01*
X-23590Y222113D01*
X-23458Y222107D01*
X-23326Y222097D01*
X-23194Y222084D01*
X-23062Y222066D01*
X-22932Y222045D01*
X-22801Y222020D01*
X-22672Y221991D01*
X-22544Y221958D01*
X-22416Y221922D01*
X-22290Y221882D01*
X-22165Y221838D01*
X-22041Y221790D01*
X-21919Y221739D01*
X-21798Y221684D01*
X-21679Y221626D01*
X-21561Y221564D01*
X-21446Y221499D01*
X-21332Y221430D01*
X-21221Y221359D01*
X-21112Y221283D01*
X-21005Y221205D01*
X-20900Y221124D01*
X-20798Y221039D01*
X-20698Y220952D01*
X-20601Y220862D01*
X-20506Y220769D01*
X-20415Y220673D01*
X-20326Y220575D01*
X-20240Y220474D01*
X-20157Y220370D01*
X-20077Y220264D01*
X-20001Y220156D01*
X-19927Y220046D01*
X-19857Y219933D01*
X-19790Y219819D01*
X-19727Y219702D01*
X-19667Y219584D01*
X-19610Y219464D01*
X-19557Y219342D01*
X-19508Y219219D01*
X-19462Y219095D01*
X-19420Y218969D01*
X-19382Y218842D01*
X-19347Y218714D01*
X-19316Y218585D01*
X-19289Y218456D01*
X-19266Y218325D01*
X-19246Y218194D01*
X-19231Y218062D01*
X-19219Y217930D01*
X-19211Y217798D01*
X-19207Y217665D01*
X-19207Y217533D01*
X-19211Y217400D01*
X-19219Y217268D01*
X-19231Y217136D01*
X-19246Y217004D01*
X-19266Y216873D01*
X-19289Y216742D01*
X-19316Y216613D01*
X-19347Y216484D01*
X-19382Y216356D01*
X-19420Y216229D01*
X-19462Y216103D01*
X-19508Y215979D01*
X-19557Y215856D01*
X-19610Y215734D01*
X-19667Y215614D01*
X-19727Y215496D01*
X-19790Y215379D01*
X-19857Y215265D01*
X-19927Y215152D01*
X-20001Y215042D01*
X-20077Y214934D01*
X-20157Y214828D01*
X-20240Y214724D01*
X-20326Y214623D01*
X-20415Y214525D01*
X-20506Y214429D01*
X-20601Y214336D01*
X-20698Y214246D01*
X-20798Y214159D01*
X-20900Y214074D01*
X-21005Y213993D01*
X-21112Y213915D01*
X-21221Y213839D01*
X-21332Y213768D01*
X-21446Y213699D01*
X-21561Y213634D01*
X-21679Y213572D01*
X-21798Y213514D01*
X-21919Y213459D01*
X-22041Y213408D01*
X-22165Y213360D01*
X-22290Y213316D01*
X-22416Y213276D01*
X-22544Y213240D01*
X-22672Y213207D01*
X-22801Y213178D01*
X-22932Y213153D01*
X-23062Y213132D01*
X-23194Y213114D01*
X-23326Y213101D01*
X-23458Y213091D01*
X-23590Y213085D01*
X-23723Y213083D01*
X-31851Y213987D02*
X-31970Y213989D01*
X-32090Y213995D01*
X-32209Y214005D01*
X-32327Y214019D01*
X-32446Y214036D01*
X-32563Y214058D01*
X-32680Y214083D01*
X-32795Y214113D01*
X-32910Y214146D01*
X-33024Y214183D01*
X-33136Y214223D01*
X-33247Y214268D01*
X-33356Y214316D01*
X-33464Y214367D01*
X-33570Y214422D01*
X-33674Y214481D01*
X-33776Y214543D01*
X-33876Y214608D01*
X-33974Y214677D01*
X-34070Y214749D01*
X-34163Y214824D01*
X-34253Y214901D01*
X-34341Y214982D01*
X-34426Y215066D01*
X-34508Y215153D01*
X-34588Y215242D01*
X-34664Y215334D01*
X-34738Y215428D01*
X-34808Y215525D01*
X-34875Y215623D01*
X-34939Y215724D01*
X-34999Y215828D01*
X-35056Y215933D01*
X-35109Y216040D01*
X-35159Y216148D01*
X-35205Y216258D01*
X-35247Y216370D01*
X-35286Y216483D01*
X-35321Y216597D01*
X-35352Y216712D01*
X-35380Y216829D01*
X-35403Y216946D01*
X-35423Y217063D01*
X-35439Y217182D01*
X-35451Y217301D01*
X-35459Y217420D01*
X-35463Y217539D01*
X-35463Y217659D01*
X-35459Y217778D01*
X-35451Y217897D01*
X-35439Y218016D01*
X-35423Y218135D01*
X-35403Y218252D01*
X-35380Y218369D01*
X-35352Y218486D01*
X-35321Y218601D01*
X-35286Y218715D01*
X-35247Y218828D01*
X-35205Y218940D01*
X-35159Y219050D01*
X-35109Y219158D01*
X-35056Y219265D01*
X-34999Y219370D01*
X-34939Y219474D01*
X-34875Y219575D01*
X-34808Y219673D01*
X-34738Y219770D01*
X-34664Y219864D01*
X-34588Y219956D01*
X-34508Y220045D01*
X-34426Y220132D01*
X-34341Y220216D01*
X-34253Y220297D01*
X-34163Y220374D01*
X-34070Y220449D01*
X-33974Y220521D01*
X-33876Y220590D01*
X-33776Y220655D01*
X-33674Y220717D01*
X-33570Y220776D01*
X-33464Y220831D01*
X-33356Y220882D01*
X-33247Y220930D01*
X-33136Y220975D01*
X-33024Y221015D01*
X-32910Y221052D01*
X-32795Y221085D01*
X-32680Y221115D01*
X-32563Y221140D01*
X-32446Y221162D01*
X-32327Y221179D01*
X-32209Y221193D01*
X-32090Y221203D01*
X-31970Y221209D01*
X-31851Y221211D01*
X-31732Y221209D01*
X-31612Y221203D01*
X-31493Y221193D01*
X-31375Y221179D01*
X-31256Y221162D01*
X-31139Y221140D01*
X-31022Y221115D01*
X-30907Y221085D01*
X-30792Y221052D01*
X-30678Y221015D01*
X-30566Y220975D01*
X-30455Y220930D01*
X-30346Y220882D01*
X-30238Y220831D01*
X-30132Y220776D01*
X-30028Y220717D01*
X-29926Y220655D01*
X-29826Y220590D01*
X-29728Y220521D01*
X-29632Y220449D01*
X-29539Y220374D01*
X-29449Y220297D01*
X-29361Y220216D01*
X-29276Y220132D01*
X-29194Y220045D01*
X-29114Y219956D01*
X-29038Y219864D01*
X-28964Y219770D01*
X-28894Y219673D01*
X-28827Y219575D01*
X-28763Y219474D01*
X-28703Y219370D01*
X-28646Y219265D01*
X-28593Y219158D01*
X-28543Y219050D01*
X-28497Y218940D01*
X-28455Y218828D01*
X-28416Y218715D01*
X-28381Y218601D01*
X-28350Y218486D01*
X-28322Y218369D01*
X-28299Y218252D01*
X-28279Y218135D01*
X-28263Y218016D01*
X-28251Y217897D01*
X-28243Y217778D01*
X-28239Y217659D01*
X-28239Y217539D01*
X-28243Y217420D01*
X-28251Y217301D01*
X-28263Y217182D01*
X-28279Y217063D01*
X-28299Y216946D01*
X-28322Y216829D01*
X-28350Y216712D01*
X-28381Y216597D01*
X-28416Y216483D01*
X-28455Y216370D01*
X-28497Y216258D01*
X-28543Y216148D01*
X-28593Y216040D01*
X-28646Y215933D01*
X-28703Y215828D01*
X-28763Y215724D01*
X-28827Y215623D01*
X-28894Y215525D01*
X-28964Y215428D01*
X-29038Y215334D01*
X-29114Y215242D01*
X-29194Y215153D01*
X-29276Y215066D01*
X-29361Y214982D01*
X-29449Y214901D01*
X-29539Y214824D01*
X-29632Y214749D01*
X-29728Y214677D01*
X-29826Y214608D01*
X-29926Y214543D01*
X-30028Y214481D01*
X-30132Y214422D01*
X-30238Y214367D01*
X-30346Y214316D01*
X-30455Y214268D01*
X-30566Y214223D01*
X-30678Y214183D01*
X-30792Y214146D01*
X-30907Y214113D01*
X-31022Y214083D01*
X-31139Y214058D01*
X-31256Y214036D01*
X-31375Y214019D01*
X-31493Y214005D01*
X-31612Y213995D01*
X-31732Y213989D01*
X-31851Y213987D01*
X-20110Y228089D02*
X-19207Y228089D01*
X-20110Y228089D02*
X-20110Y228992D01*
X-19207Y228992D01*
X-19207Y228089D01*
X-31399Y243998D02*
X-31524Y243996D01*
X-31649Y243990D01*
X-31774Y243981D01*
X-31898Y243967D01*
X-32022Y243950D01*
X-32146Y243929D01*
X-32268Y243904D01*
X-32390Y243875D01*
X-32511Y243843D01*
X-32631Y243807D01*
X-32750Y243767D01*
X-32867Y243724D01*
X-32983Y243677D01*
X-33098Y243626D01*
X-33210Y243572D01*
X-33322Y243514D01*
X-33431Y243454D01*
X-33538Y243389D01*
X-33644Y243322D01*
X-33747Y243251D01*
X-33848Y243177D01*
X-33947Y243100D01*
X-34043Y243020D01*
X-34137Y242937D01*
X-34228Y242852D01*
X-34317Y242763D01*
X-34402Y242672D01*
X-34485Y242578D01*
X-34565Y242482D01*
X-34642Y242383D01*
X-34716Y242282D01*
X-34787Y242179D01*
X-34854Y242073D01*
X-34919Y241966D01*
X-34979Y241857D01*
X-35037Y241745D01*
X-35091Y241633D01*
X-35142Y241518D01*
X-35189Y241402D01*
X-35232Y241285D01*
X-35272Y241166D01*
X-35308Y241046D01*
X-35340Y240925D01*
X-35369Y240803D01*
X-35394Y240681D01*
X-35415Y240557D01*
X-35432Y240433D01*
X-35446Y240309D01*
X-35455Y240184D01*
X-35461Y240059D01*
X-35463Y239934D01*
X-35461Y239791D01*
X-35455Y239649D01*
X-35445Y239506D01*
X-35432Y239364D01*
X-35414Y239223D01*
X-35393Y239081D01*
X-35368Y238941D01*
X-35339Y238801D01*
X-35306Y238662D01*
X-35269Y238524D01*
X-35229Y238387D01*
X-35185Y238252D01*
X-35137Y238117D01*
X-35085Y237984D01*
X-35030Y237852D01*
X-34971Y237722D01*
X-34909Y237594D01*
X-34843Y237467D01*
X-34774Y237342D01*
X-34702Y237219D01*
X-34626Y237099D01*
X-34547Y236980D01*
X-34464Y236863D01*
X-34379Y236749D01*
X-34290Y236637D01*
X-34199Y236528D01*
X-34104Y236421D01*
X-34007Y236316D01*
X-33906Y236215D01*
X-33803Y236116D01*
X-33698Y236020D01*
X-33589Y235927D01*
X-33478Y235837D01*
X-33365Y235750D01*
X-33250Y235666D01*
X-33132Y235586D01*
X-33012Y235508D01*
X-32890Y235434D01*
X-32766Y235364D01*
X-32640Y235296D01*
X-32512Y235233D01*
X-32383Y235172D01*
X-32252Y235115D01*
X-32120Y235062D01*
X-31986Y235013D01*
X-31851Y234967D01*
X-28238Y242643D02*
X-28330Y242737D01*
X-28424Y242827D01*
X-28521Y242915D01*
X-28621Y243000D01*
X-28723Y243082D01*
X-28828Y243161D01*
X-28935Y243236D01*
X-29044Y243308D01*
X-29155Y243377D01*
X-29269Y243443D01*
X-29384Y243505D01*
X-29501Y243564D01*
X-29620Y243619D01*
X-29740Y243670D01*
X-29862Y243718D01*
X-29985Y243763D01*
X-30109Y243803D01*
X-30235Y243840D01*
X-30362Y243873D01*
X-30489Y243902D01*
X-30618Y243928D01*
X-30747Y243949D01*
X-30877Y243967D01*
X-31007Y243980D01*
X-31137Y243990D01*
X-31268Y243996D01*
X-31399Y243998D01*
X-28238Y242643D02*
X-19207Y234967D01*
X-19207Y243998D01*
X-28238Y250598D02*
X-28238Y256017D01*
X-28236Y256135D01*
X-28230Y256253D01*
X-28221Y256371D01*
X-28207Y256488D01*
X-28190Y256605D01*
X-28169Y256722D01*
X-28144Y256837D01*
X-28115Y256952D01*
X-28082Y257066D01*
X-28046Y257178D01*
X-28006Y257289D01*
X-27963Y257399D01*
X-27916Y257508D01*
X-27866Y257615D01*
X-27811Y257720D01*
X-27754Y257823D01*
X-27693Y257924D01*
X-27629Y258024D01*
X-27562Y258121D01*
X-27492Y258216D01*
X-27418Y258308D01*
X-27342Y258399D01*
X-27262Y258486D01*
X-27180Y258571D01*
X-27095Y258653D01*
X-27008Y258733D01*
X-26917Y258809D01*
X-26825Y258883D01*
X-26730Y258953D01*
X-26633Y259020D01*
X-26533Y259084D01*
X-26432Y259145D01*
X-26329Y259202D01*
X-26224Y259257D01*
X-26117Y259307D01*
X-26008Y259354D01*
X-25898Y259397D01*
X-25787Y259437D01*
X-25675Y259473D01*
X-25561Y259506D01*
X-25446Y259535D01*
X-25331Y259560D01*
X-25214Y259581D01*
X-25097Y259598D01*
X-24980Y259612D01*
X-24862Y259621D01*
X-24744Y259627D01*
X-24626Y259629D01*
X-23723Y259629D01*
X-23723Y259630D02*
X-23590Y259628D01*
X-23458Y259622D01*
X-23326Y259612D01*
X-23194Y259599D01*
X-23062Y259581D01*
X-22932Y259560D01*
X-22801Y259535D01*
X-22672Y259506D01*
X-22544Y259473D01*
X-22416Y259437D01*
X-22290Y259397D01*
X-22165Y259353D01*
X-22041Y259305D01*
X-21919Y259254D01*
X-21798Y259199D01*
X-21679Y259141D01*
X-21561Y259079D01*
X-21446Y259014D01*
X-21332Y258945D01*
X-21221Y258874D01*
X-21112Y258798D01*
X-21005Y258720D01*
X-20900Y258639D01*
X-20798Y258554D01*
X-20698Y258467D01*
X-20601Y258377D01*
X-20506Y258284D01*
X-20415Y258188D01*
X-20326Y258090D01*
X-20240Y257989D01*
X-20157Y257885D01*
X-20077Y257779D01*
X-20001Y257671D01*
X-19927Y257561D01*
X-19857Y257448D01*
X-19790Y257334D01*
X-19727Y257217D01*
X-19667Y257099D01*
X-19610Y256979D01*
X-19557Y256857D01*
X-19508Y256734D01*
X-19462Y256610D01*
X-19420Y256484D01*
X-19382Y256357D01*
X-19347Y256229D01*
X-19316Y256100D01*
X-19289Y255971D01*
X-19266Y255840D01*
X-19246Y255709D01*
X-19231Y255577D01*
X-19219Y255445D01*
X-19211Y255313D01*
X-19207Y255180D01*
X-19207Y255048D01*
X-19211Y254915D01*
X-19219Y254783D01*
X-19231Y254651D01*
X-19246Y254519D01*
X-19266Y254388D01*
X-19289Y254257D01*
X-19316Y254128D01*
X-19347Y253999D01*
X-19382Y253871D01*
X-19420Y253744D01*
X-19462Y253618D01*
X-19508Y253494D01*
X-19557Y253371D01*
X-19610Y253249D01*
X-19667Y253129D01*
X-19727Y253011D01*
X-19790Y252894D01*
X-19857Y252780D01*
X-19927Y252667D01*
X-20001Y252557D01*
X-20077Y252449D01*
X-20157Y252343D01*
X-20240Y252239D01*
X-20326Y252138D01*
X-20415Y252040D01*
X-20506Y251944D01*
X-20601Y251851D01*
X-20698Y251761D01*
X-20798Y251674D01*
X-20900Y251589D01*
X-21005Y251508D01*
X-21112Y251430D01*
X-21221Y251354D01*
X-21332Y251283D01*
X-21446Y251214D01*
X-21561Y251149D01*
X-21679Y251087D01*
X-21798Y251029D01*
X-21919Y250974D01*
X-22041Y250923D01*
X-22165Y250875D01*
X-22290Y250831D01*
X-22416Y250791D01*
X-22544Y250755D01*
X-22672Y250722D01*
X-22801Y250693D01*
X-22932Y250668D01*
X-23062Y250647D01*
X-23194Y250629D01*
X-23326Y250616D01*
X-23458Y250606D01*
X-23590Y250600D01*
X-23723Y250598D01*
X-28238Y250598D01*
X-28413Y250600D01*
X-28587Y250606D01*
X-28761Y250617D01*
X-28935Y250632D01*
X-29109Y250651D01*
X-29282Y250674D01*
X-29454Y250701D01*
X-29626Y250733D01*
X-29797Y250768D01*
X-29967Y250808D01*
X-30136Y250852D01*
X-30304Y250900D01*
X-30471Y250952D01*
X-30636Y251008D01*
X-30800Y251068D01*
X-30963Y251131D01*
X-31123Y251199D01*
X-31283Y251271D01*
X-31440Y251346D01*
X-31596Y251426D01*
X-31749Y251509D01*
X-31901Y251595D01*
X-32050Y251686D01*
X-32197Y251780D01*
X-32342Y251877D01*
X-32485Y251978D01*
X-32625Y252082D01*
X-32762Y252190D01*
X-32897Y252301D01*
X-33029Y252415D01*
X-33158Y252532D01*
X-33285Y252653D01*
X-33408Y252776D01*
X-33529Y252903D01*
X-33646Y253032D01*
X-33760Y253164D01*
X-33871Y253299D01*
X-33979Y253436D01*
X-34083Y253576D01*
X-34184Y253719D01*
X-34281Y253864D01*
X-34375Y254011D01*
X-34466Y254160D01*
X-34552Y254312D01*
X-34635Y254465D01*
X-34715Y254621D01*
X-34790Y254778D01*
X-34862Y254938D01*
X-34930Y255098D01*
X-34993Y255261D01*
X-35053Y255425D01*
X-35109Y255590D01*
X-35161Y255757D01*
X-35209Y255925D01*
X-35253Y256094D01*
X-35293Y256264D01*
X-35328Y256435D01*
X-35360Y256607D01*
X-35387Y256779D01*
X-35410Y256952D01*
X-35429Y257126D01*
X-35444Y257300D01*
X-35455Y257474D01*
X-35461Y257648D01*
X-35463Y257823D01*
D12*
X730060Y914400D02*
X743140Y914400D01*
X743140Y889000D02*
X730060Y889000D01*
X730060Y863600D02*
X743140Y863600D01*
X743140Y838200D02*
X730060Y838200D01*
X730060Y812800D02*
X743140Y812800D01*
X743140Y787400D02*
X730060Y787400D01*
X730060Y762000D02*
X743140Y762000D01*
X743140Y736600D02*
X730060Y736600D01*
X730060Y711200D02*
X743140Y711200D01*
X743140Y685800D02*
X730060Y685800D01*
X730060Y660400D02*
X743140Y660400D01*
X743140Y635000D02*
X730060Y635000D01*
X730060Y609600D02*
X743140Y609600D01*
X743140Y584200D02*
X730060Y584200D01*
X730060Y558800D02*
X743140Y558800D01*
X743140Y533400D02*
X730060Y533400D01*
X730060Y508000D02*
X743140Y508000D01*
X743140Y482600D02*
X730060Y482600D01*
X730060Y457200D02*
X743140Y457200D01*
X743140Y431800D02*
X730060Y431800D01*
X882460Y914400D02*
X895540Y914400D01*
X895540Y889000D02*
X882460Y889000D01*
X882460Y863600D02*
X895540Y863600D01*
X895540Y838200D02*
X882460Y838200D01*
X882460Y812800D02*
X895540Y812800D01*
X895540Y787400D02*
X882460Y787400D01*
X882460Y762000D02*
X895540Y762000D01*
X895540Y736600D02*
X882460Y736600D01*
X882460Y711200D02*
X895540Y711200D01*
X895540Y685800D02*
X882460Y685800D01*
X882460Y660400D02*
X895540Y660400D01*
X895540Y635000D02*
X882460Y635000D01*
X882460Y609600D02*
X895540Y609600D01*
X895540Y584200D02*
X882460Y584200D01*
X882460Y558800D02*
X895540Y558800D01*
X895540Y533400D02*
X882460Y533400D01*
X882460Y508000D02*
X895540Y508000D01*
X895540Y482600D02*
X882460Y482600D01*
X882460Y457200D02*
X895540Y457200D01*
X895540Y431800D02*
X882460Y431800D01*
D13*
X482600Y389890D02*
X482600Y372110D01*
X508000Y372110D02*
X508000Y389890D01*
X457200Y389890D02*
X457200Y372110D01*
X431800Y372110D02*
X431800Y389890D01*
X406400Y389890D02*
X406400Y372110D01*
X533400Y372110D02*
X533400Y389890D01*
X558800Y389890D02*
X558800Y372110D01*
X584200Y372110D02*
X584200Y389890D01*
D14*
X660400Y406400D03*
X660400Y330200D03*
D15*
X774700Y330200D03*
X774700Y406400D03*
D14*
X317500Y508000D03*
X317500Y431800D03*
X317500Y381000D03*
X317500Y304800D03*
D16*
X482600Y876300D03*
X558800Y876300D03*
D17*
X234200Y889000D03*
D18*
X299200Y889000D03*
D17*
X69100Y889000D03*
D18*
X134100Y889000D03*
D19*
X78740Y386080D03*
X251460Y386080D03*
X251460Y782320D03*
X78740Y782320D03*
D14*
X406400Y863600D03*
X425450Y876300D03*
X406400Y889000D03*
D20*
X609600Y736600D03*
X609600Y660400D03*
X330200Y736600D03*
X330200Y660400D03*
X914400Y381000D03*
X914400Y330200D03*
X952500Y622300D03*
X952500Y571500D03*
X952500Y520700D03*
X508000Y190500D03*
X508000Y139700D03*
X508000Y88900D03*
X25400Y431800D03*
X25400Y381000D03*
D21*
X520700Y920750D03*
D22*
X495300Y920750D03*
D21*
X546100Y920750D03*
X571500Y920750D03*
X596900Y920750D03*
X622300Y920750D03*
D23*
X489053Y544897D02*
X481147Y544897D01*
X481147Y556603D01*
X489053Y556603D01*
X489053Y544897D01*
X489053Y546222D02*
X481147Y546222D01*
X481147Y547547D02*
X489053Y547547D01*
X489053Y548872D02*
X481147Y548872D01*
X481147Y550197D02*
X489053Y550197D01*
X489053Y551522D02*
X481147Y551522D01*
X481147Y552847D02*
X489053Y552847D01*
X489053Y554172D02*
X481147Y554172D01*
X481147Y555497D02*
X489053Y555497D01*
X504047Y544897D02*
X511953Y544897D01*
X504047Y544897D02*
X504047Y556603D01*
X511953Y556603D01*
X511953Y544897D01*
X511953Y546222D02*
X504047Y546222D01*
X504047Y547547D02*
X511953Y547547D01*
X511953Y548872D02*
X504047Y548872D01*
X504047Y550197D02*
X511953Y550197D01*
X511953Y551522D02*
X504047Y551522D01*
X504047Y552847D02*
X511953Y552847D01*
X511953Y554172D02*
X504047Y554172D01*
X504047Y555497D02*
X511953Y555497D01*
X526947Y544897D02*
X534853Y544897D01*
X526947Y544897D02*
X526947Y556603D01*
X534853Y556603D01*
X534853Y544897D01*
X534853Y546222D02*
X526947Y546222D01*
X526947Y547547D02*
X534853Y547547D01*
X534853Y548872D02*
X526947Y548872D01*
X526947Y550197D02*
X534853Y550197D01*
X534853Y551522D02*
X526947Y551522D01*
X526947Y552847D02*
X534853Y552847D01*
X534853Y554172D02*
X526947Y554172D01*
X526947Y555497D02*
X534853Y555497D01*
D24*
X523218Y612082D02*
X492782Y612082D01*
X492782Y623218D01*
X523218Y623218D01*
X523218Y612082D01*
X523218Y613949D02*
X492782Y613949D01*
X492782Y615816D02*
X523218Y615816D01*
X523218Y617683D02*
X492782Y617683D01*
X492782Y619550D02*
X523218Y619550D01*
X523218Y621417D02*
X492782Y621417D01*
D15*
X609600Y546100D03*
X609600Y571500D03*
X406400Y546100D03*
X406400Y571500D03*
D25*
X850100Y187300D03*
X850100Y177800D03*
X850100Y168300D03*
X877100Y168300D03*
X877100Y177800D03*
X877100Y187300D03*
D26*
X877100Y168300D03*
X877100Y177800D03*
X877100Y187300D03*
X850100Y187300D03*
X850100Y177800D03*
X850100Y168300D03*
D27*
X914400Y187300D03*
X914400Y168300D03*
D28*
X876300Y260096D02*
X876300Y273304D01*
X850900Y273304D02*
X850900Y260096D01*
D29*
X800100Y162900D03*
X800100Y141900D03*
D27*
X800100Y111100D03*
X800100Y92100D03*
D30*
X930300Y114300D03*
X949300Y114300D03*
D31*
X647700Y876300D02*
X558800Y876300D01*
X647700Y876300D02*
X660400Y889000D01*
X736600Y889000D01*
X470662Y394462D02*
X457200Y381000D01*
X470662Y394462D02*
X470662Y394835D01*
X583827Y508000D01*
X673100Y508000D01*
X685800Y520700D01*
X685800Y584200D01*
X698500Y596900D01*
X723900Y596900D01*
X736600Y584200D01*
X496062Y394462D02*
X482600Y381000D01*
X496062Y394462D02*
X496062Y394835D01*
X596527Y495300D01*
X685800Y495300D01*
X698500Y508000D01*
X698500Y546100D01*
X711200Y558800D01*
X736600Y558800D01*
X736600Y508000D02*
X850900Y622300D01*
X952500Y622300D01*
X863600Y749300D02*
X876300Y762000D01*
X889000Y762000D01*
D32*
X317500Y431800D02*
X317500Y381000D01*
D33*
X685800Y749300D03*
D31*
X863600Y749300D01*
X774700Y330200D02*
X660400Y330200D01*
X406400Y889000D02*
X299200Y889000D01*
D32*
X635000Y393700D02*
X635000Y317500D01*
X635000Y393700D02*
X647700Y406400D01*
X660400Y406400D01*
X635000Y317500D02*
X647700Y304800D01*
X812800Y304800D01*
X812800Y342900D02*
X819150Y349250D01*
X812800Y342900D02*
X812800Y304800D01*
D31*
X850100Y177800D02*
X774700Y177800D01*
X762000Y165100D01*
X762000Y101600D01*
X774700Y88900D01*
X800100Y88900D01*
X882650Y349250D02*
X914400Y381000D01*
X882650Y349250D02*
X819150Y349250D01*
X485100Y538894D02*
X485100Y550750D01*
D33*
X485100Y538894D03*
D31*
X914400Y168300D02*
X936600Y168300D01*
X949300Y155600D02*
X949300Y114300D01*
X949300Y155600D02*
X936600Y168300D01*
X889000Y177800D02*
X877100Y177800D01*
X35560Y429260D02*
X33020Y431800D01*
X25400Y431800D01*
D34*
X35560Y429260D02*
X78740Y386080D01*
D35*
X76200Y381000D02*
X25400Y431800D01*
D31*
X78740Y386080D02*
X132080Y386080D01*
X190500Y444500D02*
X190500Y495300D01*
X203200Y508000D01*
X317500Y508000D01*
X190500Y444500D02*
X132080Y386080D01*
X78740Y782320D02*
X69100Y791960D01*
X69100Y889000D01*
X203200Y889000D02*
X234200Y889000D01*
X203200Y889000D02*
X177800Y914400D01*
X76200Y914400D02*
X69850Y908050D01*
X76200Y914400D02*
X177800Y914400D01*
X69850Y889750D02*
X69100Y889000D01*
X69850Y889750D02*
X69850Y908050D01*
X323850Y730250D02*
X330200Y736600D01*
X330200Y787400D01*
X355600Y812800D01*
X508000Y812800D01*
X520700Y825500D01*
X520700Y889000D01*
X533400Y901700D01*
X584200Y901700D02*
X596900Y914400D01*
X584200Y901700D02*
X533400Y901700D01*
D32*
X508000Y736600D02*
X330200Y736600D01*
X571500Y673100D02*
X571500Y584200D01*
X584200Y571500D01*
X609600Y571500D01*
X571500Y673100D02*
X508000Y736600D01*
X609600Y571500D02*
X622300Y571500D01*
X698500Y647700D01*
X927100Y647700D01*
D33*
X927100Y647700D03*
D35*
X279400Y707376D02*
X153684Y707376D01*
X279400Y707376D02*
X300976Y707376D01*
X153684Y707376D02*
X78740Y782320D01*
X300976Y707376D02*
X330200Y736600D01*
D32*
X279400Y707376D02*
X279400Y635000D01*
X292100Y622300D01*
X330200Y622300D01*
X368300Y584200D02*
X368300Y165100D01*
X393700Y139700D01*
X508000Y139700D01*
X368300Y584200D02*
X330200Y622300D01*
D31*
X877100Y187300D02*
X914400Y187300D01*
X546100Y139700D02*
X508000Y139700D01*
D33*
X546100Y139700D03*
D31*
X901700Y203200D02*
X914400Y190500D01*
D33*
X914400Y241300D03*
D31*
X901700Y228600D02*
X901700Y203200D01*
X901700Y228600D02*
X914400Y241300D01*
D36*
X914400Y187300D01*
D31*
X482600Y876300D02*
X425450Y876300D01*
D32*
X530900Y550750D02*
X535550Y546100D01*
X609600Y546100D01*
D31*
X431800Y571500D02*
X406400Y571500D01*
X431800Y571500D02*
X444500Y558800D01*
X444500Y533400D01*
X457200Y520700D01*
X495300Y520700D01*
X508000Y533400D01*
X508000Y550750D01*
X850100Y253200D02*
X850100Y187300D01*
X850100Y253200D02*
X850900Y254000D01*
X850900Y266700D01*
X850100Y168300D02*
X846900Y165100D01*
X850100Y162900D02*
X850100Y168300D01*
X850100Y162900D02*
X800100Y162900D01*
X877100Y168300D02*
X905700Y139700D01*
X914400Y139700D01*
X927100Y127000D01*
X927100Y114300D01*
X930300Y114300D01*
X800100Y111100D02*
X800100Y141900D01*
D33*
X863600Y177800D03*
X952500Y165100D03*
X889000Y114300D03*
M02*
