G04 EAGLE Gerber RS-274X export*
G75*
%MOMM*%
%FSLAX34Y34*%
%LPD*%
%INSoldermask Bottom*%
%IPPOS*%
%AMOC8*
5,1,8,0,0,1.08239X$1,22.5*%
G01*
%ADD10C,0.553200*%
%ADD11C,1.511200*%
%ADD12C,1.981200*%
%ADD13P,1.649562X8X292.500000*%
%ADD14P,1.649562X8X112.500000*%
%ADD15P,1.649562X8X22.500000*%
%ADD16R,1.511200X1.511200*%
%ADD17C,1.511200*%
%ADD18R,2.703200X2.703200*%
%ADD19C,3.203200*%
%ADD20P,1.951982X8X22.500000*%
%ADD21P,2.556822X8X22.500000*%
%ADD22C,1.711200*%
%ADD23R,1.711200X1.711200*%
%ADD24C,0.959600*%


D10*
X25400Y12700D03*
X952500Y12700D03*
X952500Y939800D03*
X25400Y939800D03*
D11*
X730060Y914400D02*
X743140Y914400D01*
X743140Y889000D02*
X730060Y889000D01*
X730060Y863600D02*
X743140Y863600D01*
X743140Y838200D02*
X730060Y838200D01*
X730060Y812800D02*
X743140Y812800D01*
X743140Y787400D02*
X730060Y787400D01*
X730060Y762000D02*
X743140Y762000D01*
X743140Y736600D02*
X730060Y736600D01*
X730060Y711200D02*
X743140Y711200D01*
X743140Y685800D02*
X730060Y685800D01*
X730060Y660400D02*
X743140Y660400D01*
X743140Y635000D02*
X730060Y635000D01*
X730060Y609600D02*
X743140Y609600D01*
X743140Y584200D02*
X730060Y584200D01*
X730060Y558800D02*
X743140Y558800D01*
X743140Y533400D02*
X730060Y533400D01*
X730060Y508000D02*
X743140Y508000D01*
X743140Y482600D02*
X730060Y482600D01*
X730060Y457200D02*
X743140Y457200D01*
X743140Y431800D02*
X730060Y431800D01*
X882460Y914400D02*
X895540Y914400D01*
X895540Y889000D02*
X882460Y889000D01*
X882460Y863600D02*
X895540Y863600D01*
X895540Y838200D02*
X882460Y838200D01*
X882460Y812800D02*
X895540Y812800D01*
X895540Y787400D02*
X882460Y787400D01*
X882460Y762000D02*
X895540Y762000D01*
X895540Y736600D02*
X882460Y736600D01*
X882460Y711200D02*
X895540Y711200D01*
X895540Y685800D02*
X882460Y685800D01*
X882460Y660400D02*
X895540Y660400D01*
X895540Y635000D02*
X882460Y635000D01*
X882460Y609600D02*
X895540Y609600D01*
X895540Y584200D02*
X882460Y584200D01*
X882460Y558800D02*
X895540Y558800D01*
X895540Y533400D02*
X882460Y533400D01*
X882460Y508000D02*
X895540Y508000D01*
X895540Y482600D02*
X882460Y482600D01*
X882460Y457200D02*
X895540Y457200D01*
X895540Y431800D02*
X882460Y431800D01*
D12*
X482600Y389890D02*
X482600Y372110D01*
X508000Y372110D02*
X508000Y389890D01*
X457200Y389890D02*
X457200Y372110D01*
X431800Y372110D02*
X431800Y389890D01*
X406400Y389890D02*
X406400Y372110D01*
X533400Y372110D02*
X533400Y389890D01*
X558800Y389890D02*
X558800Y372110D01*
X584200Y372110D02*
X584200Y389890D01*
D13*
X660400Y406400D03*
X660400Y330200D03*
D14*
X774700Y330200D03*
X774700Y406400D03*
D13*
X317500Y508000D03*
X317500Y431800D03*
X317500Y381000D03*
X317500Y304800D03*
D15*
X482600Y876300D03*
X558800Y876300D03*
D16*
X234200Y889000D03*
D17*
X299200Y889000D03*
D16*
X69100Y889000D03*
D17*
X134100Y889000D03*
D18*
X577850Y44450D03*
X717550Y44450D03*
X609600Y273050D03*
X685800Y273050D03*
X577850Y273050D03*
X717550Y273050D03*
X781050Y44450D03*
X920750Y44450D03*
X812800Y273050D03*
X889000Y273050D03*
X781050Y273050D03*
X920750Y273050D03*
X78740Y386080D03*
X251460Y386080D03*
X251460Y782320D03*
X78740Y782320D03*
D19*
X88900Y439420D03*
X241300Y736600D03*
D13*
X406400Y863600D03*
X425450Y876300D03*
X406400Y889000D03*
D20*
X609600Y736600D03*
X609600Y660400D03*
X330200Y736600D03*
X330200Y660400D03*
X914400Y381000D03*
X914400Y330200D03*
X952500Y622300D03*
X952500Y571500D03*
X952500Y520700D03*
X508000Y190500D03*
X508000Y139700D03*
X508000Y88900D03*
X25400Y431800D03*
X25400Y381000D03*
D21*
X406400Y76200D03*
X406400Y25400D03*
D22*
X520700Y920750D03*
D23*
X495300Y920750D03*
D22*
X546100Y920750D03*
X571500Y920750D03*
X596900Y920750D03*
X622300Y920750D03*
D14*
X609600Y546100D03*
X609600Y571500D03*
X406400Y546100D03*
X406400Y571500D03*
D24*
X685800Y749300D03*
X485100Y538894D03*
X927100Y647700D03*
M02*
