G04 EAGLE Gerber RS-274X export*
G75*
%MOMM*%
%FSLAX34Y34*%
%LPD*%
%INSolderpaste Top*%
%IPPOS*%
%AMOC8*
5,1,8,0,0,1.08239X$1,22.5*%
G01*
%ADD10C,0.139500*%
%ADD11C,0.196500*%
%ADD12R,1.050000X0.600000*%
%ADD13R,1.000000X0.550000*%
%ADD14R,1.500000X1.300000*%
%ADD15R,1.200000X1.200000*%
%ADD16R,1.300000X1.500000*%


D10*
X489053Y544897D02*
X481147Y544897D01*
X481147Y556603D01*
X489053Y556603D01*
X489053Y544897D01*
X489053Y546222D02*
X481147Y546222D01*
X481147Y547547D02*
X489053Y547547D01*
X489053Y548872D02*
X481147Y548872D01*
X481147Y550197D02*
X489053Y550197D01*
X489053Y551522D02*
X481147Y551522D01*
X481147Y552847D02*
X489053Y552847D01*
X489053Y554172D02*
X481147Y554172D01*
X481147Y555497D02*
X489053Y555497D01*
X504047Y544897D02*
X511953Y544897D01*
X504047Y544897D02*
X504047Y556603D01*
X511953Y556603D01*
X511953Y544897D01*
X511953Y546222D02*
X504047Y546222D01*
X504047Y547547D02*
X511953Y547547D01*
X511953Y548872D02*
X504047Y548872D01*
X504047Y550197D02*
X511953Y550197D01*
X511953Y551522D02*
X504047Y551522D01*
X504047Y552847D02*
X511953Y552847D01*
X511953Y554172D02*
X504047Y554172D01*
X504047Y555497D02*
X511953Y555497D01*
X526947Y544897D02*
X534853Y544897D01*
X526947Y544897D02*
X526947Y556603D01*
X534853Y556603D01*
X534853Y544897D01*
X534853Y546222D02*
X526947Y546222D01*
X526947Y547547D02*
X534853Y547547D01*
X534853Y548872D02*
X526947Y548872D01*
X526947Y550197D02*
X534853Y550197D01*
X534853Y551522D02*
X526947Y551522D01*
X526947Y552847D02*
X534853Y552847D01*
X534853Y554172D02*
X526947Y554172D01*
X526947Y555497D02*
X534853Y555497D01*
D11*
X523218Y612082D02*
X492782Y612082D01*
X492782Y623218D01*
X523218Y623218D01*
X523218Y612082D01*
X523218Y613949D02*
X492782Y613949D01*
X492782Y615816D02*
X523218Y615816D01*
X523218Y617683D02*
X492782Y617683D01*
X492782Y619550D02*
X523218Y619550D01*
X523218Y621417D02*
X492782Y621417D01*
D12*
X850100Y187300D03*
X850100Y177800D03*
X850100Y168300D03*
X877100Y168300D03*
X877100Y177800D03*
X877100Y187300D03*
D13*
X877100Y168300D03*
X877100Y177800D03*
X877100Y187300D03*
X850100Y187300D03*
X850100Y177800D03*
X850100Y168300D03*
D14*
X914400Y187300D03*
X914400Y168300D03*
D15*
X800100Y162900D03*
X800100Y141900D03*
D14*
X800100Y111100D03*
X800100Y92100D03*
D16*
X930300Y114300D03*
X949300Y114300D03*
M02*
