M48
;GenerationSoftware,Autodesk,EAGLE,9.5.2*%
;CreationDate,2020-01-16T15:56:39Z*%
FMAT,2
ICI,OFF
METRIC,TZ,000.000
T9C0.350
T8C0.800
T7C0.813
T6C1.000
T5C1.016
T4C1.200
T3C1.500
T2C3.000
%
G90
M71
T2
X8890Y43942
X24130Y73660
T3
X7874Y38608
X25146Y38608
X25146Y78232
X7874Y78232
T4
X78105Y4445
X71755Y27305
X57785Y27305
X68580Y27305
X60960Y27305
X71755Y4445
X57785Y4445
X92075Y4445
X81280Y27305
X88900Y27305
X78105Y27305
X92075Y27305
T5
X40640Y7620
X40640Y2540
T6
X52070Y92075
X49530Y92075
X54610Y92075
X57150Y92075
X59690Y92075
X62230Y92075
T7
X48260Y87630
X55880Y87630
X60960Y73660
X31750Y30480
X31750Y38100
X31750Y43180
X31750Y50800
X77470Y40640
X77470Y33020
X66040Y40640
X95250Y57150
X40640Y57150
X40640Y54610
X60960Y57150
X60960Y54610
X2540Y38100
X2540Y43180
X50800Y8890
X50800Y13970
X50800Y19050
X95250Y52070
X40640Y86360
X95250Y62230
X91440Y33020
X91440Y38100
X33020Y66040
X33020Y73660
X60960Y66040
X66040Y33020
X40640Y88900
X42545Y87630
T8
X73660Y60960
X88900Y78740
X88900Y81280
X88900Y83820
X88900Y86360
X88900Y88900
X88900Y91440
X73660Y43180
X73660Y45720
X73660Y48260
X73660Y50800
X73660Y53340
X73660Y55880
X73660Y58420
X58420Y38100
X73660Y63500
X73660Y66040
X73660Y68580
X73660Y71120
X73660Y73660
X73660Y76200
X73660Y78740
X73660Y81280
X73660Y83820
X73660Y86360
X73660Y88900
X73660Y91440
X88900Y73660
X55880Y38100
X53340Y38100
X40640Y38100
X43180Y38100
X45720Y38100
X50800Y38100
X48260Y38100
X88900Y43180
X23420Y88900
X29920Y88900
X6910Y88900
X13410Y88900
X88900Y45720
X88900Y48260
X88900Y50800
X88900Y53340
X88900Y55880
X88900Y58420
X88900Y60960
X88900Y63500
X88900Y66040
X88900Y68580
X88900Y71120
X88900Y76200
T9
X48510Y53889
X92710Y64770
X2540Y1270
X95250Y1270
X95250Y93980
X2540Y93980
X68580Y74930
M30