M48
;GenerationSoftware,Autodesk,EAGLE,9.5.0*%
;CreationDate,2020-03-08T12:09:16Z*%
FMAT,2
ICI,OFF
METRIC,TZ,000.000
T6C0.350
T5C0.800
T4C0.813
T3C1.000
T2C1.500
T1C3.000
%
G90
M71
T1
X8890Y43942
X24130Y73660
T2
X7874Y78232
X25146Y38608
X7874Y38608
X25146Y78232
T3
X52070Y92075
X49530Y92075
X54610Y92075
X57150Y92075
X59690Y92075
X62230Y92075
T4
X77470Y40640
X77470Y33020
X66040Y33020
X2540Y43180
X66040Y40640
X40640Y86360
X42545Y87630
X40640Y88900
X60960Y73660
X60960Y66040
X33020Y73660
X33020Y66040
X91440Y38100
X91440Y33020
X95250Y62230
X95250Y57150
X95250Y52070
X50800Y19050
X50800Y13970
X50800Y8890
X2540Y38100
X31750Y43180
X55880Y87630
X48260Y87630
X31750Y30480
X31750Y38100
X31750Y50800
X60960Y54610
X60960Y57150
X40640Y54610
X40640Y57150
X87630Y26670
X85090Y26670
T5
X88900Y63500
X88900Y60960
X88900Y58420
X88900Y55880
X88900Y53340
X88900Y50800
X88900Y48260
X88900Y45720
X88900Y43180
X88900Y73660
X50800Y38100
X45720Y38100
X43180Y38100
X40640Y38100
X53340Y38100
X55880Y38100
X58420Y38100
X48260Y38100
X23420Y88900
X29920Y88900
X6910Y88900
X13410Y88900
X73660Y60960
X73660Y91440
X73660Y88900
X73660Y86360
X73660Y83820
X73660Y81280
X73660Y78740
X73660Y76200
X73660Y73660
X73660Y71120
X73660Y68580
X73660Y66040
X73660Y63500
X73660Y58420
X73660Y55880
X73660Y53340
X73660Y50800
X73660Y48260
X73660Y45720
X73660Y43180
X88900Y91440
X88900Y88900
X88900Y86360
X88900Y83820
X88900Y81280
X88900Y78740
X88900Y76200
X88900Y71120
X88900Y68580
X88900Y66040
T6
X2540Y1270
X88900Y11430
X92710Y64770
X48510Y53889
X2540Y93980
X95250Y16510
X86360Y17780
X91440Y24130
X54610Y13970
X95250Y93980
X68580Y74930
X95250Y1270
M30